<?xml version="1.0" standalone="no"?>
<!DOCTYPE svg PUBLIC "-//W3C//DTD SVG 20010904//EN"
 "http://www.w3.org/TR/2001/REC-SVG-20010904/DTD/svg10.dtd">
<svg version="1.0" xmlns="http://www.w3.org/2000/svg"
 width="1024.000000pt" height="1024.000000pt" viewBox="0 0 1024.000000 1024.000000"
 preserveAspectRatio="xMidYMid meet">
<metadata>
Created by potrace 1.14, written by Peter Selinger 2001-2017
</metadata>
<g transform="translate(0.000000,1024.000000) scale(0.100000,-0.100000)"
fill="#000000" stroke="none">
<path d="M5057 7684 c-3 -3 -40 -7 -84 -9 -84 -4 -195 -15 -203 -20 -3 -2 -30
-6 -60 -10 -30 -3 -75 -11 -100 -17 -25 -5 -53 -11 -62 -13 -10 -2 -60 -15
-110 -29 -88 -24 -142 -42 -283 -97 -72 -28 -324 -155 -346 -175 -8 -8 -19
-14 -23 -14 -4 0 -22 -11 -40 -25 -18 -14 -38 -25 -44 -25 -6 0 -12 -4 -14 -8
-1 -5 -23 -22 -48 -39 -25 -17 -55 -39 -66 -49 -12 -11 -36 -30 -54 -44 -115
-87 -290 -265 -403 -409 -15 -20 -33 -43 -40 -51 -7 -9 -25 -36 -41 -60 -17
-25 -39 -55 -50 -67 -11 -13 -15 -23 -10 -23 5 0 4 -4 -3 -8 -13 -8 -109 -175
-142 -247 -12 -28 -27 -57 -32 -65 -5 -8 -12 -22 -15 -30 -47 -119 -77 -195
-78 -204 -1 -6 -4 -15 -7 -21 -4 -5 -10 -23 -14 -40 -5 -16 -9 -32 -10 -35 -1
-3 -7 -24 -14 -47 l-12 -43 -57 -1 c-31 -1 -61 0 -67 1 -5 1 -29 1 -52 0 -66
-1 -66 -2 -103 -1 -19 1 -42 1 -50 0 -8 0 -41 1 -73 2 -31 1 -59 0 -62 -3 -3
-3 -23 -2 -45 2 -21 4 -44 4 -51 0 -6 -4 -23 -5 -38 -1 -14 5 -38 5 -52 1 -15
-4 -32 -4 -39 0 -7 4 -24 4 -39 0 -14 -4 -35 -4 -45 0 -11 3 -39 3 -63 0 -23
-4 -43 -4 -43 -1 0 3 -20 6 -45 6 -25 0 -45 -3 -45 -6 0 -4 -15 -3 -32 0 -18
4 -52 4 -75 1 -24 -4 -43 -4 -43 -1 0 3 -20 6 -45 6 -25 0 -45 -3 -45 -6 0 -4
-16 -3 -35 1 -19 4 -37 4 -40 0 -2 -4 -22 -4 -44 0 -22 4 -45 4 -51 0 -7 -4
-27 -4 -46 0 -18 4 -35 6 -38 3 -2 -3 -26 -4 -53 -3 -26 0 -57 1 -68 0 -24 -1
-24 -1 -98 1 -31 1 -59 0 -62 -3 -3 -3 -23 -2 -45 2 -21 4 -44 4 -51 0 -6 -4
-24 -4 -39 0 -15 4 -33 4 -40 0 -7 -4 -24 -5 -39 0 -14 4 -32 5 -38 3 -10 -4
-13 -141 -13 -643 0 -601 1 -639 18 -639 62 -2 116 0 123 5 5 3 9 2 9 -3 0 -4
20 -8 45 -8 25 0 45 3 45 6 0 4 15 3 33 0 17 -4 51 -4 74 -1 24 4 43 4 43 1 0
-3 20 -6 45 -6 25 0 45 3 45 6 0 4 16 3 35 -1 19 -4 37 -4 40 0 2 4 22 4 44 0
22 -4 45 -4 51 0 7 4 27 4 46 0 18 -4 35 -6 38 -3 2 3 26 4 53 3 26 0 57 -1
68 0 24 1 24 1 98 -1 31 -1 59 0 62 3 3 3 23 2 45 -2 21 -4 44 -4 51 0 6 4 23
5 38 1 14 -5 38 -5 52 -1 15 4 32 4 39 0 7 -4 24 -4 39 0 14 4 35 4 45 0 11
-3 39 -3 63 0 23 4 43 4 43 1 0 -3 20 -6 45 -6 25 0 45 3 45 6 0 4 15 3 33 0
17 -4 51 -4 74 -1 24 4 43 4 43 1 0 -3 20 -6 45 -6 25 0 45 3 45 6 0 4 16 3
35 -1 19 -4 37 -4 40 0 2 4 23 4 45 0 23 -4 40 -3 40 2 0 5 4 7 10 3 5 -3 25
-6 45 -7 32 -1 36 -4 46 -42 6 -23 15 -48 19 -57 5 -9 12 -33 15 -53 4 -20 11
-39 16 -42 5 -3 7 -9 4 -14 -3 -5 -1 -11 5 -15 5 -3 10 -13 10 -21 0 -8 9 -34
20 -56 11 -23 20 -45 20 -50 0 -9 106 -225 137 -278 11 -19 29 -50 39 -67 11
-18 22 -33 27 -33 4 0 7 -6 7 -13 0 -8 9 -24 20 -37 11 -13 20 -27 20 -31 0
-4 6 -14 13 -21 6 -7 25 -31 42 -53 16 -22 34 -45 40 -51 5 -7 21 -26 35 -44
85 -110 262 -286 381 -380 24 -19 46 -38 47 -42 2 -4 8 -8 13 -8 9 0 18 -6 58
-40 20 -17 16 -15 161 -103 102 -63 287 -157 309 -157 6 0 11 -4 11 -9 0 -5
10 -11 23 -14 12 -3 67 -21 122 -40 98 -35 193 -64 231 -71 11 -2 37 -9 59
-14 41 -11 79 -18 150 -28 22 -3 46 -7 53 -9 21 -7 152 -18 229 -19 40 -1 73
-4 73 -7 0 -3 20 -3 45 1 25 4 45 3 45 -2 0 -5 5 -6 11 -2 7 4 44 8 83 9 121
4 321 30 364 46 13 5 28 6 33 3 6 -3 15 -1 22 4 7 5 26 12 42 15 51 9 83 17
112 28 16 6 28 10 28 9 0 -1 13 4 29 10 16 6 36 12 45 14 27 5 143 50 246 96
33 15 62 27 65 26 3 -1 19 8 35 19 17 12 55 34 85 50 30 16 88 50 128 77 41
26 75 48 78 48 2 0 12 7 22 15 9 9 55 45 102 82 47 36 90 71 96 79 6 8 14 14
17 14 9 0 199 192 242 245 22 27 49 58 60 70 30 33 133 179 133 189 0 5 4 12
9 15 5 3 23 29 41 56 17 28 35 55 39 60 5 6 9 17 11 25 2 7 12 26 24 42 11 16
21 34 22 41 4 20 39 87 46 87 4 0 7 6 7 13 0 6 9 32 20 57 40 88 80 196 113
306 21 71 21 71 58 73 101 5 142 6 142 1 0 -6 140 -2 158 5 6 2 12 1 12 -4 0
-4 20 -5 43 -1 24 3 52 3 62 0 10 -3 38 -3 62 0 23 4 43 4 43 1 0 -3 20 -6 45
-6 25 0 45 3 45 6 0 4 15 3 34 -1 19 -4 40 -4 46 0 7 4 25 4 40 0 15 -4 33 -4
40 0 7 4 24 4 39 0 14 -4 35 -4 46 0 11 4 31 4 45 0 14 -3 42 -3 62 0 21 4 38
5 38 1 0 -5 76 -6 90 0 3 1 9 0 15 -1 26 -5 284 -2 293 4 6 3 13 2 16 -3 3 -5
21 -5 41 -1 19 4 37 4 40 0 3 -4 21 -4 40 0 19 4 37 4 40 0 3 -4 21 -4 40 0
19 4 37 4 40 0 3 -4 21 -4 40 0 19 4 37 4 40 0 3 -4 21 -4 40 0 19 4 37 4 40
0 3 -4 21 -4 40 0 19 4 37 4 40 0 3 -4 19 -5 37 -1 l33 7 3 629 c1 347 0 635
-2 642 -3 8 -16 9 -40 3 -20 -4 -38 -4 -41 0 -3 4 -21 4 -40 0 -19 -4 -37 -4
-40 0 -3 4 -21 4 -40 0 -19 -4 -37 -4 -40 0 -3 4 -21 4 -40 0 -19 -4 -37 -4
-40 0 -3 4 -21 4 -40 0 -19 -4 -37 -4 -40 0 -3 4 -21 4 -40 0 -19 -4 -37 -4
-40 0 -3 4 -21 4 -40 0 -19 -4 -37 -4 -40 1 -3 4 -11 6 -19 3 -17 -7 -146 -10
-146 -4 0 6 -140 2 -157 -5 -7 -2 -13 -1 -13 4 0 4 -20 5 -43 1 -24 -3 -52 -3
-62 0 -10 3 -38 3 -62 0 -23 -4 -43 -4 -43 -1 0 3 -20 6 -45 6 -25 0 -45 -3
-45 -6 0 -4 -15 -3 -34 1 -19 4 -40 4 -46 0 -7 -4 -25 -4 -40 0 -15 4 -33 4
-40 0 -7 -4 -24 -4 -39 0 -14 4 -35 4 -46 0 -11 -4 -31 -4 -45 0 -14 3 -42 3
-62 0 -21 -4 -38 -5 -38 -1 0 5 -76 6 -90 0 -3 -1 -9 0 -15 1 -18 3 -280 2
-295 -1 -10 -3 -19 11 -28 41 -7 25 -17 54 -22 65 -5 11 -16 45 -26 75 -37
119 -138 350 -156 358 -5 2 -8 9 -8 16 0 7 -24 52 -52 100 -29 48 -57 95 -63
104 -8 14 -55 80 -97 137 -130 173 -355 402 -488 495 -19 13 -37 27 -40 31 -8
11 -167 117 -203 135 -17 9 -34 20 -37 24 -8 10 -287 144 -350 168 -30 11 -75
28 -100 37 -25 9 -52 18 -61 20 -9 2 -47 12 -85 23 -88 25 -123 34 -154 38
-14 2 -45 8 -70 14 -25 6 -61 12 -80 14 -19 2 -62 7 -94 11 -33 4 -94 8 -136
9 -42 2 -81 6 -88 9 -6 4 -13 4 -16 -1 -5 -9 -70 -7 -85 2 -4 3 -11 3 -14 0z
m248 -1168 c106 -15 261 -54 320 -80 117 -52 195 -91 195 -98 0 -4 3 -7 8 -6
6 3 71 -34 97 -54 6 -5 35 -27 65 -51 105 -80 300 -292 300 -326 0 -6 4 -11 9
-11 5 0 11 -8 15 -17 3 -10 17 -36 30 -58 14 -22 29 -49 34 -60 6 -11 19 -41
30 -65 22 -47 72 -191 78 -225 2 -11 12 -61 21 -110 25 -125 23 -374 -3 -495
-3 -14 -8 -36 -10 -50 -15 -78 -52 -187 -102 -290 -14 -30 -26 -58 -26 -61 -1
-3 -18 -32 -38 -63 -21 -32 -38 -62 -38 -67 0 -5 -4 -9 -8 -9 -5 0 -13 -8 -18
-19 -30 -63 -210 -244 -324 -325 -45 -33 -128 -83 -184 -111 -100 -51 -293
-121 -304 -111 -3 3 -11 1 -19 -5 -7 -6 -13 -9 -13 -6 0 3 -15 1 -32 -4 -113
-32 -410 -32 -554 1 -27 7 -57 13 -66 15 -86 18 -333 123 -350 149 -4 6 -8 7
-8 3 0 -9 -138 83 -190 128 -67 57 -175 171 -221 232 -42 56 -143 218 -145
232 0 3 -10 26 -22 51 -46 98 -93 269 -110 400 -14 119 -5 360 18 450 5 19 11
46 14 60 7 38 36 130 53 170 41 98 48 112 91 189 85 155 241 330 387 437 22
16 43 33 46 37 3 5 8 8 10 6 2 -1 24 10 48 25 98 62 341 163 362 150 5 -3 9
-1 9 3 0 5 8 10 18 11 21 2 57 10 57 12 0 2 19 5 100 15 33 4 61 8 62 9 6 6
262 -1 308 -8z"/>
</g>
</svg>
