<svg width="800" height="500" xmlns="http://www.w3.org/2000/svg" xml:space="preserve" version="1.1">

 <g>
  <title>Layer 1</title>
  <g id="svg_2">
   <rect id="svg_3" height="13.3" width="13.3" transform="matrix(0.7071 -0.7071 0.7071 0.7071 -101.5253 415.0461)" y="323.5" x="443.7"/>
   <path id="svg_4" d="m530.3,240.7l0,0l-75.6,75.6l9.4,9.4l66.2,-66.2c5.1,-5.2 5.1,-13.6 0,-18.8" fill="#000000"/>
   <path id="svg_5" d="m429.9,332.3l96,-96l-23.1,-23.1l-68.4,68.4l13.8,13.8l-4.4,4.4l-13.9,-13.8l-9.4,9.4l13.8,13.8l-4.4,4.4l-44.3,-44.3l-9.4,9.4l53.7,53.6zm72.8,-100.4l4.4,4.4l-49.7,49.7l-4.4,-4.4l49.7,-49.7z" fill="#000000"/>
   <path id="svg_6" d="m498.3,208.8c-5.2,-5.2 -13.6,-5.2 -18.7,0l-72.8,72.9l9.4,9.4l82.1,-82.3z" fill="#000000"/>
   <path id="svg_7" d="m402.3,368.7l-126.1,-126.1c-5.2,5.2 -5.2,13.6 0,18.7l116.7,116.7c5.2,5.2 13.6,5.2 18.7,0l34.2,-34.2l-9.4,-9.4l-34.1,34.3z" fill="#000000"/>
   <path id="svg_8" d="m424.6,335.9l-111.5,-111.5l4.4,-4.4l53.6,53.6l9.4,-9.4l-53,-53c-5.5,-5.5 -14.5,-5.5 -20,0l-13.2,13.2l111.5,111.5l-4.4,4.4l-111.4,-111.5l-9.4,9.4l120.9,120.8l23.1,-23.1z" fill="#000000"/>
   <path id="svg_9" d="m422.5,84.8c2.4,-1.5 4.5,-3.3 6.2,-5.4c-10.4,2.5 -21.7,-1.9 -27.7,-11.5c-5.9,-9.6 -4.8,-21.6 2.1,-29.9c-2.6,0.6 -5.2,1.7 -7.6,3.2c-12,7.4 -15.8,23.2 -8.3,35.3c7.4,12 23.2,15.8 35.3,8.3" fill="#000000"/>
   <path id="svg_10" d="m484,168.3l-40.7,-40.7l-9.4,9.4l41.3,41.3l-82.7,82.7l9.4,9.4l82,-82c5.6,-5.7 5.6,-14.6 0.1,-20.1" fill="#000000"/>
   <rect id="svg_11" height="13.3" width="13.3" transform="matrix(0.7071 -0.7071 0.7071 0.7071 -16.3825 316.9412)" y="171.6" x="367.8"/>
   <rect id="svg_12" height="13.3" width="13.3" transform="matrix(0.7071 -0.7071 0.7071 0.7071 11.1623 328.3361)" y="144.1" x="395.3"/>
   <polygon id="svg_13" points="438.9,150.7 401.9,113.8 351.2,164.5 360.6,173.8 401.9,132.5 420.1,150.7 401.9,168.9 388.2,155.1 378.8,164.5    401.9,187.6  "/>
   <path id="svg_14" d="m443.3,155.1l-37,36.9l13.8,13.8l-32,32l-4.4,-4.4l27.6,-27.6l-23.1,-23.1l-13.8,13.8l-27.6,-27.6l-13.8,13.8l-4.4,-4.4l73.3,-73.3l27.6,27.6l9.4,-9.4l-26.9,-26.9c-5.5,-5.5 -14.5,-5.5 -20,0l-72.1,72.1c-5.5,5.5 -5.5,14.5 0,20l68.3,68.3l78.3,-78.3l-23.2,-23.3zm-100.9,36.9l4.4,-4.4l27.6,27.6l13.8,-13.8l4.4,4.4l-18.2,18.2l-32,-32zm82.7,0l18.2,-18.2l4.4,4.4l-18.2,18.2l-4.4,-4.4z" fill="#000000"/>
   <g id="svg_15">
    <polygon id="svg_16" points="312.7,409.7 321.5,409.7 321.5,414 312.7,414 312.7,424.2 324.7,424.2 324.7,421.2 316,421.2 316,416.9     324.7,416.9 324.7,406.7 312.7,406.7   "/>
    <path id="svg_17" d="m335.8,424.2l12,0l0,-17.5l-12,0l0,17.5zm3.4,-14.5l5.5,0l0,11.5l-5.5,0l0,-11.5z" fill="#000000"/>
    <polygon id="svg_18" points="359,409.7 367.8,409.7 367.8,414 359,414 359,424.2 371,424.2 371,421.2 362.3,421.2 362.3,416.9 371,416.9     371,406.7 359,406.7   "/>
    <rect id="svg_19" height="17.5" width="3.4" y="406.7" x="382.1"/>
    <rect id="svg_20" height="17.3" width="3.3" y="406.8" x="417"/>
    <polygon id="svg_21" points="440.2,414.1 434.7,414.1 434.7,406.8 431.4,406.8 431.4,416.9 440.2,416.9 440.2,424.2 443.3,424.2 443.3,406.8     440.2,406.8   "/>
    <polygon id="svg_22" points="463.2,414.1 457.7,414.1 457.7,406.8 454.4,406.8 454.4,416.9 463.2,416.9 463.2,424.2 466.3,424.2 466.3,406.8     463.2,406.8   "/>
    <polygon id="svg_23" points="489.3,416.9 489.3,406.8 477.4,406.8 477.4,409.8 486.1,409.8 486.1,414.1 477.4,414.1 477.4,424.2 489.3,424.2     489.3,421.2 480.7,421.2 480.7,416.9   "/>
   </g>
  </g>
 </g>
</svg>