<svg width="800" height="500" xmlns="http://www.w3.org/2000/svg" xml:space="preserve" version="1.1">

 <g>
  <title>Layer 1</title>
  <g id="XMLID_2621_">
   <g id="XMLID_2624_">
    <path d="m413.96,240.06l-2.72,4.07c0,0 0.83,4.26 -1.13,4.18c-1.95,-0.07 -3.45,-1.74 -3.02,-4.95c0.43,-3.2 -2.65,0.85 -3.07,4.05c-0.43,3.2 -2.16,5.05 -4.07,4.98c-1.91,-0.08 -3.29,-5.91 -6.59,-3.78c-3.3,2.13 -14.44,15.58 -20.95,17.53c-6.52,1.95 -13.74,5.54 -20.18,5.3c0,0 11,2.99 16.04,1.28c13.06,-4.63 20.71,-18.81 24.88,-18.65c4.17,0.16 3.04,3.34 4.99,3.42c1.96,0.08 4.15,0.76 6.67,-5.88c1.53,1.97 2.51,2.67 4.12,2.73c1.61,0.07 5.58,-3.96 5.71,-7.17c0.12,-3.2 -0.68,-7.11 -0.68,-7.11z" id="XMLID_2658_" fill="#000000"/>
    <path d="m389.99,209.06c0,0 4.45,2.1 6.95,2.98c2.5,0.87 4.64,-3.42 6.22,-6.03c2.54,-6.96 -9.93,-18.81 -11.77,-19.33c-1.84,-0.52 -5.43,5.28 -5.43,5.28l0.96,3.37c0,0 -3.85,2.75 -5.12,6.39c-1.26,3.64 5.35,6.5 5.35,6.5c-9.09,12.68 -47.01,21.98 -62.93,24.2l-7.41,3.24c0,0 9.15,-1.97 13.65,-2.42c38.08,-3.71 53.82,-18.77 59.53,-24.18zm8.61,-9.82c0,0 4.39,3.78 3.59,6.07c-0.79,2.3 -2.15,2.06 -4.05,1.4c-1.91,-0.66 -3.36,-2.63 0.46,-7.47zm-8.78,4.23c-2.82,-0.98 -4.32,-3.64 -3.67,-5.54c0.66,-1.9 5.49,-2.92 5.49,-2.92s4.21,4.06 3.33,6.57c-0.86,2.5 -2.34,2.87 -5.15,1.89z" id="XMLID_2654_" fill="#000000"/>
    <path d="m577.25,389.32c39.03,-7.28 56.96,-19.99 59.25,-23.66c0,0 1.07,-4.22 -1.92,-5.45c-1.78,-0.74 -5.77,3.19 -5.77,3.19s-1.37,1.97 1.57,3.5c2.94,1.53 10.24,5.18 13.85,5.55c3.06,0.31 1.26,-3.21 1.26,-3.21s-0.49,-0.81 -6.42,-5.73c-6.8,-5.63 -6.78,-7.55 -6.78,-7.55s0.43,-3.05 0.92,-4.18c0,0 2.24,2.33 3.5,2.65c1.27,0.31 -0.52,0.94 -0.52,0.94s0.12,1.64 7.14,5.86c4,2.41 5.44,6.18 4.58,8.51c0,0 -1.5,6.37 -4.24,7.05c-3.24,0.82 -16.26,-5.04 -16.47,-5.93c0,0 -3.49,-2.28 0.96,-8.88c3.86,-5.73 7.71,-4.67 7.71,-4.67s4.03,3.56 1.68,9.02c-2.34,5.45 -16.57,20.18 -60.38,23.43l0.08,-0.44z" id="XMLID_2653_" fill="#000000"/>
    <path d="m708.38,100.82l0,0c0,0 -9.97,12.09 -9.95,16.37c0.01,4.28 1.26,9.79 1.28,14.07c0.02,4.29 7.31,170.44 9.02,217.87l0.13,35.5c0,0 1.04,4.09 5.29,-6.94c4.24,-11.03 4.84,-53.27 4.84,-53.27s-0.64,-91.93 -6.49,-168.67c-1.54,-20.1 7.99,-7.22 7.99,-7.22s5.89,9.67 3.36,-2.77c-2.77,-13.63 -13.33,-43.73 -15.47,-44.94z" id="XMLID_2652_" fill="#000000"/>
    <path d="m139.23,284.92c0,0 -1.66,5.15 -3.28,5.34c-1.62,0.2 -5.13,-0.91 -5.63,-8.2c-0.5,-7.29 0.61,-10.16 8.29,-26.35c0,0 -13.66,14.18 -12.82,34.38c0.37,8.86 7.38,9.64 7.38,9.64s6.11,0.42 6.06,-14.81z" id="XMLID_2651_" fill="#000000"/>
    <path d="m385.15,118.56c0,0 -1.66,5.15 -3.28,5.34c-1.62,0.2 -5.13,-0.91 -5.64,-8.2c-0.5,-7.29 0.62,-10.16 8.3,-26.35c0,0 -13.67,14.18 -12.82,34.38c0.37,8.86 7.38,9.63 7.38,9.63s6.11,0.42 6.06,-14.8z" id="XMLID_2650_" fill="#000000"/>
    <path d="m524.46,169.42c0,0 -1.66,5.15 -3.28,5.34c-1.62,0.2 -5.13,-0.91 -5.63,-8.2c-0.5,-7.29 0.62,-10.16 8.3,-26.35c0,0 -13.67,14.18 -12.82,34.39c0.37,8.86 7.38,9.63 7.38,9.63s6.09,0.41 6.05,-14.81z" id="XMLID_2649_" fill="#000000"/>
    <path d="m678.44,99.5c0,0 11.05,0.82 4.5,-11.46c-6.54,-12.28 -22.91,10.23 -22.91,10.23s-10.23,12.69 5.73,17.19c15.96,4.5 3.68,0.82 3.68,0.82s-5.72,0.41 -7.78,7.77l0.41,4.09c0,0 13.5,-13.5 34.77,-24.14l-0.41,-5.32c0,0 -9,6.55 -20.86,6.95c-11.86,0.41 -13.91,-3.68 -9,-6.95c4.92,-3.27 9.41,-4.09 11.87,0.82z" id="XMLID_2648_" fill="#000000"/>
    <path d="m421.69,157.86c0,0 -3.69,5.63 -12.55,9.12c10.83,-4.28 -143.48,42.3 -143.48,42.3l10.82,-8.46l143.7,-43.03" id="XMLID_2647_" fill="#000000"/>
    <path d="m594.92,190.7l87.06,-31.35c0,0 3.22,-2.01 4.36,-6.49l-83.23,28.69c0,0.01 -7.34,5.37 -8.19,9.15z" id="XMLID_2646_" fill="#000000"/>
    <path d="m482.01,104.58l87.07,-31.34c0,0 3.22,-2.01 4.36,-6.49l-83.24,28.68c0,0 -7.33,5.36 -8.19,9.15z" id="XMLID_2645_" fill="#000000"/>
    <path d="m483.87,116.47l87.07,-31.34c0,0 3.22,-2.01 4.36,-6.49l-83.24,28.69c0,-0.01 -7.34,5.35 -8.19,9.14z" id="XMLID_2644_" fill="#000000"/>
    <path d="m118.27,104.5l87.06,-31.35c0,0 3.22,-2.01 4.36,-6.49l-83.24,28.69c0.01,0 -7.33,5.36 -8.18,9.15z" id="XMLID_2643_" fill="#000000"/>
    <path d="m120.13,116.38l87.06,-31.34c0,0 3.22,-2.02 4.36,-6.49l-83.23,28.69c0,0 -7.34,5.36 -8.19,9.14z" id="XMLID_2642_" fill="#000000"/>
    <path d="m615.13,207.14c0,0 -3.07,0.53 -4.7,-1.48c-1.63,-2.01 -4.52,-9.9 1.33,-6.36c5.84,3.53 9.97,11.79 9.97,11.79s0.67,-18.53 6.56,-17.16c5.88,1.37 5.5,5 5.5,5l-1.9,2.81c0,0 -2.58,-4.55 -4.59,-2.93c-2,1.63 -4.72,3.32 -4.28,21.03l-1.57,1.11c0,0 -0.39,-9.32 -6.32,-13.81z" id="XMLID_2641_" fill="#000000"/>
    <path d="m238.24,355.82c0,0 -3.07,0.52 -4.7,-1.48c-1.62,-2.01 -4.52,-9.89 1.33,-6.36c5.84,3.54 9.97,11.78 9.97,11.78s0.67,-18.53 6.56,-17.16c5.88,1.37 5.5,5.01 5.5,5.01l-1.9,2.82c0,0 -2.58,-4.56 -4.59,-2.93c-2.01,1.62 -4.73,3.31 -4.28,21.02l-1.57,1.11c0,0 -0.39,-9.32 -6.32,-13.81z" id="XMLID_2640_" fill="#000000"/>
    <path d="m117.48,231.29c0,0 -3.07,0.53 -4.7,-1.48c-1.63,-2.01 -4.52,-9.89 1.33,-6.36c5.84,3.53 9.97,11.78 9.97,11.78s0.67,-18.53 6.56,-17.16c5.88,1.37 5.5,5 5.5,5l-1.9,2.81c0,0 -2.58,-4.55 -4.59,-2.93c-2.01,1.63 -4.73,3.32 -4.28,21.03l-1.57,1.11c0,0 -0.39,-9.31 -6.32,-13.8z" id="XMLID_2639_" fill="#000000"/>
    <path d="m607.89,146.66c0,0 -0.21,-3.74 1.45,-8.51c1.66,-4.78 1.38,-6.45 9.96,-7.68c7.27,-1.04 19.31,0.83 19.31,0.83s1.33,10.17 -9.97,20.76c-4.83,4.53 -22,11.21 -22,11.21l1.03,-2.08c0,0 20.56,-12.25 22.63,-17.02c2.07,-4.78 0.62,-1.45 0.62,-1.45l-13.91,0.21c0.01,0 -3.52,-1.05 -9.12,3.73z" id="XMLID_2638_" fill="#000000"/>
    <path d="m236.2,129.82c0,0 -0.23,-4.15 1.61,-9.46c1.85,-5.31 1.53,-7.17 11.07,-8.54c8.08,-1.15 21.45,0.93 21.45,0.93s1.48,11.3 -11.07,23.07c-5.37,5.03 -24.45,12.45 -24.45,12.45l1.15,-2.31c0,0 22.84,-13.61 25.14,-18.91c2.3,-5.3 0.69,-1.61 0.69,-1.61l-15.45,0.23c0.01,0 -3.91,-1.15 -10.14,4.15z" id="XMLID_2637_" fill="#000000"/>
    <path d="m414.3,134.49c0,0 -157.79,36.41 -178.2,52.49c-20.4,16.09 8.57,25.77 8.57,25.77l3.23,-7.51l-12.87,-9.67c0,0 -3.23,-12.37 175.08,-54.36l4.19,-6.72z" id="XMLID_2636_" fill="#000000"/>
    <path d="m80.11,88.95c0,0 16.53,24.81 25.54,29.68c0,0 -5.2,9.05 -2.43,14.27c2.78,5.22 15.27,23.88 59.25,82.7c43.97,58.82 17.19,99.68 17.19,99.68s2.26,-19.97 -2.9,-36.07c-5.15,-16.11 -3.03,-26.48 -42.27,-82.31c-23.5,-33.45 -43.73,-48 -54.81,-77.93l-4.16,0l4.59,-30.02z" id="XMLID_2635_" fill="#000000"/>
    <path d="m437.6,102.28c0,0 16.53,24.82 25.53,29.68c0,0 -5.19,9.05 -2.43,14.27c2.77,5.22 15.28,23.88 59.25,82.7c43.98,58.82 17.19,99.68 17.19,99.68s2.25,-19.97 -2.9,-36.07c-5.15,-16.11 -3.03,-26.48 -42.27,-82.31c-23.5,-33.44 -43.73,-48 -54.81,-77.93l-4.16,0l4.6,-30.02z" id="XMLID_2634_" fill="#000000"/>
    <path d="m596.55,351.71c-34.13,-3.3 -31.71,-69.8 -31.71,-69.8l1.61,-10.63c-1.93,35.43 -14.17,74.08 -33.81,87.93c-20.11,14.17 -69.9,28.98 -69.9,28.98c24.48,-10.62 79.88,-49.6 88.57,-77.29c8.7,-27.7 6.27,-62.11 6.53,-99.06c0.27,-36.95 -6.94,-98.15 -6.94,-98.15l8.05,-19.75l1.61,0c19.92,145.72 8.46,179.59 13.94,206.97c0,0 -0.6,35.5 28.18,35.5c29.75,0.68 46.74,-23.87 46.74,-23.87s2.21,-14.99 -8.59,-18.24c-6.44,-1.93 -18.88,13.09 -18.88,13.09s-4.08,7.29 6.65,11.58c10.73,4.29 37.32,14.37 49.99,14.37c10.73,0 3.22,-11.58 3.22,-11.58s-1.96,-2.64 -24.24,-17.59c-25.55,-17.14 -26.17,-23.81 -26.17,-23.81s0.43,-10.72 1.71,-14.8c0,0 8.58,7.29 13.09,7.94c4.5,0.64 -1.51,3.43 -1.51,3.43s1.03,5.64 26.82,17.8c14.7,6.94 21.02,19.52 18.88,27.89c0,0 -2.97,22.61 -12.23,25.96c-10.94,3.96 -58.14,-11.8 -59.21,-14.8c0,0 -12.87,-6.65 0.22,-31.11c11.37,-21.24 25.1,-18.88 25.1,-18.88s15.23,10.94 9.01,30.68c0,0.01 -14.44,44.55 -56.73,37.24z" id="XMLID_2633_" fill="#000000"/>
    <path d="m670.09,235.78c0,0 -1.19,3.43 -2.28,3.54c-1.1,0.11 -3.44,-0.68 -3.68,-5.59c-0.24,-4.91 0.55,-6.82 5.93,-17.61c0,0 -9.38,9.35 -9.08,22.95c0.13,5.96 4.84,6.57 4.84,6.57s4.09,0.38 4.27,-9.86z" id="XMLID_2632_" fill="#000000"/>
    <path d="m564.47,360.22c0,0 -1.19,3.44 -2.28,3.55c-1.1,0.11 -3.44,-0.68 -3.68,-5.59c-0.24,-4.91 0.54,-6.82 5.92,-17.61c0,0 -9.38,9.35 -9.07,22.95c0.13,5.97 4.83,6.58 4.83,6.58s4.11,0.36 4.28,-9.88z" id="XMLID_2631_" fill="#000000"/>
    <path d="m211.9,346.15c0,0 -1.18,3.44 -2.28,3.55c-1.1,0.11 -3.44,-0.68 -3.68,-5.59c-0.24,-4.91 0.55,-6.82 5.93,-17.61c0,0 -9.38,9.36 -9.08,22.95c0.13,5.96 4.83,6.57 4.83,6.57s4.11,0.37 4.28,-9.87z" id="XMLID_2630_" fill="#000000"/>
    <path d="m312.12,103.79l-1.81,7.98c0,0 18.85,15.95 10.15,42.41l1.81,-0.72c0,0 5.08,-10.88 4.35,-22.48c-0.72,-11.6 -6.88,-22.84 -14.5,-27.19z" id="XMLID_2629_" fill="#000000"/>
    <path d="m606.72,242.75l-0.29,7.32c0,0 7.68,1.16 7.9,5.56c0.28,5.57 -7.46,6 -7.46,6s-6,0.15 -5.71,-6.58c0.29,-6.73 6.15,-18.14 6.15,-18.14l-0.59,-1.46c0,0 -9.02,11.29 -9.07,22.53c-0.04,8.08 9.07,9.07 9.07,9.07s10.39,-0.15 10.54,-11.12c0.13,-10.25 -10.54,-13.18 -10.54,-13.18z" id="XMLID_2628_" fill="#000000"/>
    <path d="m259.61,233.79l-0.29,7.32c0,0 7.68,1.16 7.9,5.56c0.28,5.57 -7.46,6 -7.46,6s-6,0.15 -5.71,-6.58c0.29,-6.73 6.15,-18.14 6.15,-18.14l-0.59,-1.46c0,0 -9.02,11.29 -9.07,22.53c-0.04,8.08 9.07,9.07 9.07,9.07s10.39,-0.15 10.54,-11.12c0.13,-10.26 -10.54,-13.18 -10.54,-13.18z" id="XMLID_2627_" fill="#000000"/>
    <path d="m156.5,150.76c0,0 -3.95,0.68 -6.05,-1.9c-2.1,-2.58 -5.84,-12.74 1.7,-8.2c7.54,4.54 12.29,15.5 12.29,15.5s-0.97,-24.35 8.99,-22.45c7.65,1.45 7.09,6.44 7.09,6.44l-2.44,3.63c0,0 -3.34,-5.86 -5.92,-3.77c-2.58,2.1 -4.65,3.79 -5.48,27.09l-2.03,1.43c0.01,0 -0.5,-12 -8.15,-17.77z" id="XMLID_2626_" fill="#000000"/>
    <path d="m438.29,217.93c0,0 -4.39,0.76 -6.72,-2.11c-2.33,-2.87 -6.49,-14.15 1.89,-9.11c8.37,5.05 13.66,17.22 13.66,17.22s-1.08,-27.05 9.99,-24.94c8.49,1.62 7.88,7.16 7.88,7.16l-2.7,4.03c0,0 -3.71,-6.52 -6.57,-4.19c-2.88,2.33 -5.17,4.21 -6.09,30.1l-2.25,1.58c-0.02,0.01 -0.59,-13.33 -9.09,-19.74z" id="XMLID_2625_" fill="#000000"/>
   </g>
   <path d="m348.18,305.95c-18.81,7.23 -41.57,16.42 -72.53,16.13c0,0 4.05,-26.04 17.65,-48.33c0,0 2.96,16.82 -0.98,27.94c0,0 -20.15,12.86 -47.06,12.86c-26.91,0 -32.68,-22.57 -29.79,-76.69c-0.2,-27.13 -2.09,-70.38 -12.39,-145.75l-1.61,0l-8.05,19.75c0,0 7.21,49.7 6.94,86.65c-0.26,36.95 2.17,71.35 -6.53,99.06c-8.7,27.7 -64.09,66.67 -88.57,77.29c0,0 49.79,-14.81 69.9,-28.98c19.02,-13.42 30.15,-46.01 32.59,-80.23c-1.45,26.04 3.67,66.84 43.32,66.84c39.65,0 47.17,-18.52 54.11,-39.93c6.94,-21.41 0.42,-60.51 0.42,-60.51c-39.8,66.53 -38.8,109.97 -38.8,109.97s37.12,-1.17 45.63,14.39c2.58,4.73 -10.73,15.44 -30.98,-13.79l-5.95,-0.26c0,0 3.96,38.29 32.29,37.01c19.1,-0.87 13.41,-46.89 13.41,-46.89s22.48,-7.22 32.89,-15.62c0,0 -1.45,22.86 18.92,24.16c22.57,-0.19 29.04,-20.28 29.53,-22.28c0.49,-2.01 2.35,-0.85 2.35,-0.85c2.68,15.89 14.4,17.24 19.08,16.23c4.68,-1.01 11.15,-1.34 17.07,-21.76c6.53,-22.52 -3.68,-30.12 -3.68,-30.12l-4.35,14.72c2,1.82 3.51,12.57 3.51,12.57s-9.2,3.51 -15.74,0.99c-6.53,-2.52 -6.69,-7.86 -6.02,-11.05c0.67,-3.18 5.36,-7.87 2.51,-10.2c-2.83,-2.33 -7.16,4.91 -15.06,15.9c-6.52,9.04 -16.08,16.06 -27.29,14.91c-11.21,-1.15 -12.55,-8.05 -11.54,-11.55c1.01,-3.51 5.52,-7.71 4.84,-10.21c-0.69,-2.52 -10.87,4.58 -20.04,7.63z" id="XMLID_2623_" fill="#000000"/>
   <path d="m493.66,273.98c-5.43,3.04 -21.19,0.78 -21.19,-4.21c0,-4.99 8.54,-5.39 8.54,-5.39c7.41,0 22.2,19.76 22.85,32.35c-0.25,3.74 -14.89,15.18 -16.53,16.44c-31.14,23.48 -56.49,35.94 -60.92,39c-17.97,12.4 -61.05,29.21 -65.69,30.93c-4.63,1.7 -18.37,8.4 -18.37,8.4s2.33,0.21 5.8,-1.17c3.47,-1.36 33.12,-8.75 35.69,-9.64c2.57,-0.9 20.93,-2.22 36.38,-9.43c11.91,-5.53 50.47,-31.24 59.28,-37.45c8.82,-6.21 18.03,-15.98 19.99,-18.72c1.97,-2.76 7.76,-4.61 9.43,-30.23c0.85,-13.02 -14.62,-33.83 -25.1,-34.52c-3.2,-0.21 -16.21,2.36 -18.49,22.24c-1.46,12.42 9.77,16.31 15.11,16.66c5.35,0.34 10.14,-1.19 13.87,-0.94c3.55,0.24 9.25,4.51 9.57,8.17c0,-0.01 -0.42,-10.68 -10.22,-22.49z" id="XMLID_2622_" fill="#000000"/>
  </g>
 </g>
</svg>