<svg width="800" height="500" xmlns="http://www.w3.org/2000/svg" xml:space="preserve" version="1.1">

 <g>
  <title>Layer 1</title>
  <path id="svg_1" d="m518.1,354.2c0.9,0 1.8,-0.9 2.7,-0.9c-0.9,5.4 -2.7,11.7 -7.2,16.2c-2.7,-3.6 -9,-8.1 -10.8,-11.7c5.4,0 9.9,-1.8 15.3,-3.6m34.3,-30.6c0.9,0 0.9,0 1.8,0c2.7,0 6.3,-0.9 7.2,2.7c1.8,3.6 3.6,9 3.6,12.6c-3.6,-3.6 -10.8,-11.7 -12.6,-15.3zm-183.2,82.1c0.9,0.9 1.8,0.9 2.7,1.8c-3.6,1.8 -8.1,2.7 -12.6,2.7c-1.8,0 -2.7,0 -4.5,-0.9c0.9,-4.5 1.8,-10.8 3.6,-15.3c3.6,4.5 7.2,8.1 10.8,11.7zm44.3,14.4c0.9,1.8 2.7,4.5 3.6,6.3c-0.9,2.7 -7.2,10.8 -9.9,11.7c0.8,-5.4 3.6,-13.5 6.3,-18zm-37,-106.5c2.7,6.3 8.1,13.5 10.8,18.9c-10.8,12.6 -18.9,25.3 -26.2,40.6c0,1.8 -0.9,2.7 -1.8,4.5c-2.7,-7.2 -4.5,-15.3 -4.5,-22.6c0,-9.9 2.7,-17.1 9,-26.2c1.8,1.8 3.6,2.7 6.3,2.7c3.6,0 8.1,-3.6 8.1,-8.1c0,-2.7 -2.7,-5.4 -4.5,-6.3c1,-0.8 1.9,-1.7 2.8,-3.5zm28.8,33.4c-1.8,-4.5 -2.7,-11.7 -2.7,-16.2c0,-3.6 0.9,-7.2 4.5,-9c2.7,9.9 4.5,18.9 4.5,28.9l0,0.9c-1.7,-1.9 -3.6,-3.7 -6.3,-4.6zm-3.6,-28c-1.8,0 -3.6,0.9 -5.4,0.9c-1.8,-2.7 -2.7,-6.3 -2.7,-9.9c0,-3.6 0.9,-7.2 1.8,-10.8l0.9,0.9c2.7,5.4 6.3,10.8 8.1,16.2c-0.9,0.9 -1.8,1.8 -2.7,2.7zm10,2.8c12.6,7.2 9.9,30.7 30.7,30.7c5.4,0 10.8,-0.9 10.8,-12.6c0.9,0 1.8,0.9 2.7,1.8c11.7,9 25.3,16.2 39.7,16.2c2.7,0 12.6,11.7 16.2,14.4c-8.1,9.9 -27.1,13.5 -39.7,13.5c-18.9,0 -39.7,-5.4 -54.1,-18.9c10.8,7.2 27.1,11.7 40.6,11.7c5.4,0 13.5,-0.9 18,-3.6c-0.9,-2.7 -3.6,-11.7 -6.3,-11.7c-0.9,0 -5.4,1.8 -7.2,2.7c-3.6,0 -6.3,0 -9,0c-11.7,0 -26.2,-2.7 -36.1,-9.9c-1.8,-0.9 -0.9,-4.5 -0.9,-6.3c-0.9,-9.1 -2.7,-19 -5.4,-28zm0,-6.4c0.9,0.9 0.9,1.8 0.9,2.7c0,0.9 -1.8,0.9 -1.8,0.9l-0.9,-1.8c0.9,-0.9 1.8,-0.9 1.8,-1.8zm-2.7,52.4c-3.6,13.5 -15.3,28.9 -26.2,35.2c-9,-4.5 -15.3,-11.7 -19.9,-19.9c5.4,-16.2 15.3,-34.3 27.1,-46.9c4.5,6.3 6.3,17.1 12.6,23.5c1.8,2.7 3.6,5.4 6.4,8.1zm-158,-65c0,0.9 0,1.8 -0.9,2.7c-4.5,-3.6 -8.1,-9 -9.9,-14.4c4.5,-0.9 9,-2.7 14.4,-3.6l0.9,0c-1.8,4.5 -3.6,9.9 -4.5,15.3zm9.1,45.1c-0.9,1.8 -2.7,6.3 -5.4,6.3c-3.6,0 -11.7,-0.9 -13.5,-2.7c4.4,-1.8 15.3,-3.6 18.9,-3.6zm74,-85.7c-2.7,4.5 -6.3,9.9 -9,14.4c-0.9,1.8 -0.9,3.6 -1.8,4.5c-10.8,-1.8 -20.8,-3.6 -31.6,-3.6c-7.2,0.9 -14.4,1.8 -21.7,1.8c9,-11.7 23.5,-20.8 37.9,-20.8c2.7,0 4.5,0 7.2,0.9c-0.9,0.9 -0.9,1.8 -0.9,2.7c0,4.5 3.6,8.1 8.1,8.1c4.5,0 7.2,-4.5 7.2,-9c1.8,1 2.8,1 4.6,1zm-13.6,42.4c4.5,-6.3 12.6,-12.6 18.9,-12.6c0.9,0 1.8,0 2.7,0.9c-6.3,7.2 -16.2,17.1 -23.5,18.9c0.1,-2.7 1,-4.5 1.9,-7.2zm21.7,-17.1c-0.9,-1.8 -2.7,-3.6 -3.6,-4.5c3.6,-6.3 9,-9.9 18,-10.8l-0.9,0.9c-2.7,4.5 -5.4,10.8 -9.9,15.3c-0.9,-0.9 -2.7,-0.9 -3.6,-0.9zm19.8,-14.5c0.9,9 2.7,16.2 6.3,25.3c-1.8,0 -2.7,0 -2.7,0.9l-1.8,0c-2.7,-2.7 -7.2,-4.5 -9.9,-8.1c0,0 0,0.9 -0.9,0.9l-2.7,-1.8c2.7,-4.5 6.3,-9 9.9,-13.5l1.8,-3.7zm10.9,-36.1c2.7,-3.6 8.1,-6.3 12.6,-6.3c8.1,0 18,8.1 18,14.4c0,1.8 -0.9,3.6 -1.8,4.5c-1.8,-5.4 -6.3,-8.1 -12.6,-8.1c-6.3,0 -12.6,3.6 -18,9c0.9,-4.4 1.8,-9 1.8,-13.5zm-28.9,59.6c0,0.9 0,0.9 0,1.8c0,9 -13.5,19.9 -13.5,30.7c0,5.4 4.5,16.2 9.9,16.2c2.7,0 6.3,-2.7 9,-3.6c0,5.4 -0.9,10.8 -0.9,17.1c0,9.9 1.8,19.9 6.3,28.9c0,0 0.9,0.9 0.9,1.8c-1.8,6.3 -3.6,12.6 -4.5,18.9c-30.7,-6.3 -44.2,-47.8 -44.2,-69.5c0,-4.5 0.9,-9 1.8,-14.4c0,0.9 0,1.8 0,1.8c0,18 5.4,37.9 18,50.5c0.9,0.9 2.7,2.7 3.6,3.6c1.8,-2.7 7.2,-8.1 7.2,-10.8c0,-0.9 -3.6,-4.5 -5.4,-6.3c-9,-11.7 -14.4,-26.2 -14.4,-39.7c0,-6.3 2.7,-6.3 5.4,-8.1c7.2,-5.4 14.5,-11.7 20.8,-18.9zm6.3,-1.8c-0.9,0.9 -1.8,0.9 -2.7,1.8c-0.9,-0.9 -0.9,-0.9 -0.9,-1.8l0.9,-1.8c0.9,0.9 1.8,0.9 2.7,1.8zm13.5,6.3c-0.9,1.8 -1.8,2.7 -1.8,4.5c0,2.7 1.8,5.4 3.6,6.3c-6.3,9.9 -17.1,22.6 -28,24.4c0,-0.9 -0.9,-2.7 -0.9,-3.6c0,-10.8 13.5,-22.6 22.6,-31.6c0,-0.9 0,-1.8 -0.9,-2.7c1.8,0.9 2.7,1.8 4.5,2.7l0.9,0zm22.6,19.8c-2.7,-3.6 -4.5,-6.3 -7.2,-10.8c0.9,-0.9 1.8,-2.7 2.7,-4.5c0,-0.9 -2.7,-6.3 -4.5,-9c-0.9,0.9 -0.9,1.8 -1.8,2.7l-0.9,0c0,0 -0.9,-0.9 -1.8,-0.9c-3.6,-8.1 -7.2,-17.1 -7.2,-25.3c1.8,0 3.6,2.7 4.5,4.5c5.4,5.4 11.7,9.9 18,12.6c-0.9,2.7 -2.7,5.4 -2.7,9c0,2.7 2.7,4.5 2.7,8.1c0.9,4.5 2.7,9 6.3,13.5c-0.9,1.8 -0.9,2.7 -0.9,4.5l-0.9,0.9c-0.9,0.9 -0.9,1.8 -1.8,2.7c-2.7,-2.7 -4.5,-7.2 -7.2,-9.9l1.8,1.8c0.9,0.9 1.8,2.7 3.6,3.6c-0.9,-0.7 -1.8,-1.6 -2.7,-3.5zm-83,-3.6c-4.5,1.8 -9,1.8 -13.5,1.8c-9.9,0 -22.6,-1.8 -29.8,-7.2c0,-0.9 0,-0.9 0,-1.8c0,-9 2.7,-17.1 7.2,-25.3c8.1,-0.9 17.1,-1.8 26.2,-1.8c9,0 18.9,0 27.1,2.7c-2.7,7.2 -9.9,13.5 -13.5,22.6c-1.9,2.7 -2.8,6.3 -3.7,9zm-22.6,-168.7c-0.9,0 -1.8,0.9 -2.7,0.9c0.9,-6.3 3.6,-11.7 7.2,-16.2c3.6,3.6 9.9,8.1 11.7,11.7c-5.4,0 -10.8,1.8 -16.2,3.6zm-34.3,30.7c-3.6,0 -7.2,0.9 -9,-3.6c-1.8,-3.6 -3.6,-7.2 -3.6,-11.7c3.6,2.6 11.7,13.5 12.6,15.3zm111,20.7c-7.2,0 -11.7,0 -17.1,0c-0.9,0 -2.7,0 -3.6,0l-0.9,0c-5.4,-15.3 -12.6,-29.8 -22.6,-42.4c-0.9,-0.9 -1.8,-2.7 -2.7,-3.6c18,0.9 32.5,13.5 39.7,28c-3.6,0.9 -7.2,2.7 -7.2,7.2s4.5,8.1 8.1,8.1c1.8,0 2.7,-0.9 4.5,-0.9c0.9,0.9 0.9,1.8 1.8,3.6zm-43.3,9.1c6.3,1.8 20.8,5.4 20.8,12.6l0,0.9c-8.1,-0.9 -23.5,-6.3 -28.9,-10.8c2.7,-0.9 5.4,-1.8 8.1,-2.7zm26.2,10.8c0.9,-1.8 0.9,-3.6 1.8,-6.3c7.2,0 12.6,3.6 18,10.8l-0.9,0c-2.7,0 -5.4,0 -8.1,0c-3.6,0 -7.2,0 -10.8,-0.9c0,-0.9 0,-2.7 0,-3.6zm20.7,9.9c-0.9,0.9 -1.8,1.8 -3.6,2.7c-5.4,4.5 -9.9,9.9 -13.5,15.3c-0.9,-0.9 -1.8,-1.8 -3.6,-1.8l0,-1.8c0.9,-3.6 0.9,-7.2 1.8,-11.7c0,-0.9 0,-0.9 -0.9,-0.9l0,-3.6c5.4,0 11.7,0.9 17.1,1.8l2.7,0zm37.9,-9c7.2,3.6 13.5,6.3 13.5,17.1c0,4.5 -1.8,14.4 -8.1,14.4c-0.9,0 -1.8,0 -1.8,0c0.9,-1.8 1.8,-4.5 1.8,-7.2c0,-9.9 -9.9,-16.2 -18,-18.9c4.5,-0.9 8.1,-2.7 12.6,-5.4zm-66.7,5.4c-2.7,1.8 -6.3,2.7 -9,2.7c-4.5,0 -9,-0.9 -13.5,-0.9c-8.1,0 -14.4,2.7 -18.9,9.9c-0.9,1.8 -2.7,4.5 -1.8,7.2c0,3.6 4.5,6.3 8.1,8.1c-14.4,6.3 -29.8,14.4 -37,27.1c-1.8,3.6 -15.3,5.4 -21.7,7.2c-0.9,-2.7 -0.9,-6.3 -0.9,-9.9c0,-32.5 29.8,-60.5 53.2,-68.6c-16.2,8.1 -31.6,25.3 -36.1,42.4c0,0.9 -0.9,2.7 -0.9,3.6c0,1.8 8.1,2.7 10.8,2.7c2.7,0 2.7,-5.4 4.5,-9c5.4,-13.5 17.1,-28 30.7,-34.3c0,0 0,0 0.9,0s3.6,1.8 5.4,2.7c8.1,3.7 17.1,7.3 26.2,9.1zm5.4,4.5c-0.9,-0.9 -1.8,-0.9 -2.7,-1.8c0,-0.9 0,-0.9 0.9,-1.8l1.8,0c0,0.9 0,1.8 0,3.6zm0.9,14.5c-5.4,0 -8.1,3.6 -8.1,8.1c-12.6,-1.8 -27.1,-3.6 -35.2,-12.6c2.7,-3.6 7.2,-4.5 11.7,-4.5c10.8,0 19.9,2.7 29.8,5.4c0,-0.9 0.9,-0.9 1.8,-1.8c0,0.9 0,0.9 0,1.8s0,1.8 0,2.7l0,0.9zm-6.3,29.7c2.7,-3.6 3.6,-8.1 6.3,-11.7c1.8,0 3.6,0 4.5,0c1.8,0 4.5,-5.4 6.3,-8.1c-0.9,0 -2.7,0 -3.6,-0.9l0,-0.9c0,-0.9 0,-0.9 0,-1.8c4.5,-6.3 10.8,-14.4 18,-18c0,0 0,0 0.9,0.9c-3.6,6.3 -4.5,14.4 -4.5,21.7c0,1.8 0,3.6 0,5.4c-2.7,0 -6.3,0 -9,1.8c-2.7,1.8 -3.6,4.5 -5.4,6.3c-4.5,3.6 -7.2,8.1 -9,12.6c-1.8,0 -2.7,0 -4.5,0.9l-0.9,0c-0.9,0 -2.7,0 -3.6,-0.9c1.8,-3.6 3.6,-7.2 5.4,-10.8l-0.9,2.7c0,1.8 -0.9,2.7 -1.8,4.5c0.8,-1 1.8,-2.8 1.8,-3.7zm-37.9,-73.1c-9.9,-9.9 -17.1,-26.2 -17.1,-39.7c0,-2.7 8.1,-5.4 9.9,-6.3c5.4,-1.8 10.8,-2.7 17.1,-2.7c11.7,14.4 20.8,29.8 27.1,46.9c-2.7,0.9 -4.5,0.9 -6.3,0.9c-5.4,-0.9 -9,-1.8 -14.4,-1.8c-5.5,0 -10.9,0.9 -16.3,2.7zm135.3,-104.6c-0.9,-0.9 -1.8,-0.9 -2.7,-1.8c4.5,-1.8 8.1,-2.7 12.6,-2.7c1.8,0 3.6,0 5.4,0.9c-1.8,5.4 -3.6,10.8 -4.5,15.3c-3.6,-4.5 -7.2,-8.1 -10.8,-11.7zm-44.2,-14.5c-0.9,-1.8 -2.7,-4.5 -3.6,-6.3c0.9,-3.6 9,-10.8 9.9,-12.6c0,5.4 -4.5,17.1 -6.3,18.9zm37,106.5c-1.8,-5.4 -4.5,-9.9 -8.1,-15.3c-0.9,-0.9 -1.8,-1.8 -2.7,-3.6c11.7,-11.7 20.8,-26.2 26.2,-40.6c0.9,-0.9 0.9,-2.7 1.8,-4.5c3.6,7.2 4.5,15.3 4.5,21.7c0,10.8 -3.6,18.9 -9,27.1c-1.8,-1.8 -3.6,-2.7 -6.3,-2.7c-3.6,0 -7.2,3.6 -7.2,7.2c0,2.7 1.8,6.3 3.6,7.2c-0.1,0.8 -1,2.6 -2.8,3.5zm-28.9,-33.4c0.9,5.4 2.7,10.8 2.7,16.2c0,3.6 -0.9,8.1 -3.6,9c-3.6,-9 -5.4,-19.9 -5.4,-28.9l0,-0.9c1.8,1 4.5,2.8 6.3,4.6zm3.6,28c1.8,0 3.6,-0.9 5.4,-0.9c2.7,2.7 3.6,6.3 3.6,9.9c0,3.6 -0.9,7.2 -2.7,10.8l-0.9,-0.9c-2.7,-5.4 -6.3,-11.7 -8.1,-16.2c0.9,-0.9 1.8,-1.8 2.7,-2.7zm1.8,23.5c-5.4,-3.6 -16.2,-5.4 -24.4,-6.3c0,-0.9 0.9,-0.9 0.9,-1.8c0,-0.9 -0.9,-0.9 -0.9,-1.8l1.8,0c2.7,-1.8 11.7,-5.4 11.7,-6.3l2.7,-1.8c1.8,4.5 4.5,9.9 7.2,15.3l1,2.7zm26.2,27.9c0.9,2.7 0.9,4.5 0.9,7.2c0,9 -9,16.2 -18.9,16.2c-2.7,0 -6.3,-0.9 -7.2,-4.5c0.9,0 0.9,0 1.8,0c9.9,0 14.4,-10.8 14.4,-18.9c0,-2.7 -0.9,-5.4 -0.9,-7.2c2.7,2.7 6.3,5.4 9.9,7.2zm-37,-54.1c-12.6,-4.5 -10.8,-30.7 -30.7,-30.7c-6.3,0 -9.9,0 -10.8,12.6c-13.5,-9 -23.5,-17.1 -42.4,-18c-3.6,0 -12.6,-10.8 -17.1,-14.4c10.8,-10.8 26.2,-13.5 40.6,-13.5c18.9,0 38.8,5.4 54.1,18.9c-12.6,-7.2 -27.1,-11.7 -41.5,-11.7c-5.4,0 -14.4,0.9 -18,3.6c0.9,1.8 3.6,10.8 5.4,10.8s6.3,-0.9 9,-1.8c2.7,0 5.4,0 8.1,0c12.6,0 26.2,2.7 36.1,9.9c1.8,0.9 0.9,4.5 1.8,6.3c0.9,9 2.7,19 5.4,28zm-0.9,6.3c-0.9,-0.9 -0.9,-2.7 -0.9,-3.6c0.9,0 0.9,0 0.9,0c0.9,0 0.9,0 1.8,0l0,1.8c-0.9,0.9 -0.9,0.9 -1.8,1.8zm-12.6,8.1c-1.8,-2.7 -4.5,-4.5 -7.2,-4.5c-0.9,0 -2.7,0 -3.6,0.9c-4.5,-9 -8.1,-18.9 -8.1,-29.8c0,-1.8 0,-4.5 0.9,-6.3c10.8,0 16.2,23.5 19.9,36.1c0.9,0 1.8,0 2.7,0.9c-0.9,0.9 -2.7,0.9 -4.5,1.8l0,0.9l-0.1,0zm-28.9,9.9c4.5,-0.9 8.1,-0.9 12.6,-0.9c0.9,0.9 1.8,4.5 3.6,4.5l0.9,0c2.7,0 5.4,0.9 8.1,0.9c0,-0.9 -0.9,-2.7 -0.9,-3.6c0.9,-0.9 1.8,-0.9 2.7,-1.8c8.1,0.9 17.1,2.7 25.3,7.2c-1.8,0.9 -4.5,0.9 -7.2,0.9c-7.2,1.8 -13.5,5.4 -19.9,9.9c-1.8,-2.7 -2.7,-5.4 -5.4,-7.2c-2.7,-1.8 -6.3,-0.9 -8.1,-1.8c-3.6,-0.9 -7.2,-1.8 -10.8,-1.8c-0.9,0 -3.6,0 -4.5,0c-0.9,-0.9 -1.8,-1.8 -3.6,-2.7l-0.9,-0.9c0,-0.9 0,-1.8 -0.9,-2.7c4.5,-0.9 9,-0.9 12.6,-0.9c-2.7,0 -5.4,0 -8.1,0.9c1.8,0 2.7,0 4.5,0zm44.2,-70.3c3.6,-13.5 12.6,-23.5 23.5,-33.4c0.9,0 1.8,-0.9 3.6,-1.8c8.1,3.6 15.3,11.7 19.9,19.9c-6.3,16.2 -16.2,34.3 -27.1,46.9c-5.4,-6.3 -7.2,-17.1 -13.5,-23.5c-1.9,-2.7 -3.7,-5.4 -6.4,-8.1zm53.2,171.4c0,-0.9 -0.9,-1.8 -0.9,-3.6c1.8,0 3.6,0 5.4,0c5.4,0 9.9,0 15.3,0c0,0 0,0 0.9,0c4.5,15.3 12.6,29.8 21.7,42.4c0.9,1.8 1.8,2.7 2.7,3.6c-17.1,-1.8 -32.5,-12.6 -39.7,-28c3.6,0 7.2,-3.6 7.2,-7.2c0,-4.5 -3.6,-8.1 -8.1,-8.1c-1.8,0 -2.7,0.9 -4.5,0.9zm-18.9,-0.9l-0.9,0c-4.5,1.8 -7.2,4.5 -11.7,4.5c0,0.9 0,0.9 0,1.8l-2.7,1.8c-2.7,-4.5 -5.4,-10.8 -7.2,-15.3l-1.8,-2.7c8.1,2.7 15.3,5.4 24.4,6.3c0,0 -0.9,0.9 -0.9,1.8c-0.1,0 0.8,0.9 0.8,1.8zm10.8,5.4c4.5,8.1 8.1,18.9 8.1,28.9c0,2.7 0,5.4 -0.9,7.2c-11.7,-0.9 -17.1,-24.4 -19.9,-36.1c-0.9,-0.9 -1.8,-0.9 -2.7,-0.9c1.8,0 2.7,-0.9 4.5,-1.8l0.9,-0.9c0.9,2.7 2.7,4.5 6.3,4.5c1.9,0 2.8,-0.9 3.7,-0.9zm112.8,-111c0,-0.9 0,-1.8 0.9,-2.7c4.5,3.6 8.1,8.1 9.9,14.4c-4.5,1.8 -9.9,1.8 -15.3,3.6c1.8,-4.4 3.6,-9.9 4.5,-15.3zm-9,-45.1c1.8,-3.6 2.7,-6.3 5.4,-6.3c3.6,0 9.9,0.9 13.5,2.7c-4.5,1.8 -15.3,3.6 -18.9,3.6zm-74,129.1c0,-0.9 -0.9,-1.8 -0.9,-2.7s0,-0.9 0,-0.9c9.9,1.8 20.8,5.4 28.9,10.8c-2.7,0.9 -5.4,1.8 -7.2,2.7c-8.2,-1.8 -16.3,-4.5 -20.8,-9.9zm0.9,-43.4c3.6,-6.3 7.2,-14.4 10.8,-18.9c9.9,1.8 19.9,2.7 30.7,2.7c7.2,0 14.4,-0.9 21.7,-0.9c-8.1,11.7 -24.4,20.8 -38.8,20.8c-1.8,0 -3.6,-0.9 -5.4,-0.9c0,-0.9 0,-1.8 0,-2.7c0,-4.5 -3.6,-8.1 -7.2,-8.1c-4.5,0 -8.1,4.5 -8.1,9c-1,-1 -2.8,-1 -3.7,-1zm-26.2,37.9c2.7,0 4.5,0 7.2,0c3.6,0 8.1,0 11.7,0.9c0,0.9 0,2.7 0.9,3.6c-1.8,2.7 -1.8,4.5 -1.8,5.4c-8,0.1 -13.5,-2.6 -18,-9.9zm39.7,-80.3c-5.4,5.4 -13.5,12.6 -18.9,12.6c-1.8,0 -2.7,0 -3.6,-0.9c6.3,-6.3 16.2,-17.1 23.5,-18.9c-0.1,2.7 -1,5.4 -1,7.2zm-22.5,18.1c0.9,0.9 2.7,2.7 4.5,3.6c-4.5,7.2 -10.8,9.9 -18,10.8c3.6,-5.4 6.3,-11.7 9.9,-16.2c1.8,0 2.7,0.9 3.6,1.8zm-19,12.6c-1.8,-8.1 -3.6,-16.2 -7.2,-23.5c1.8,-0.9 2.7,-0.9 3.6,-1.8l0.9,0c3.6,2.7 7.2,4.5 9.9,8.1l0.9,-0.9l2.7,1.8c-2.7,4.5 -6.3,9 -9,13.5l-1.8,2.8zm-11.7,37c-2.7,3.6 -8.1,6.3 -12.6,6.3c-8.1,0 -18,-9 -18,-14.4c0,-1.8 0.9,-3.6 1.8,-4.5c1.8,4.5 7.2,8.1 12.6,8.1c7.2,0 13.5,-4.5 18,-8.1c-0.9,3.6 -1.8,8.1 -1.8,12.6zm-29.8,-15.3c-0.9,1.8 -1.8,4.5 -1.8,7.2c0,9.9 9.9,17.1 18,18.9c-4.5,0.9 -8.1,2.7 -12.6,5.4c-7.2,-2.7 -13.5,-7.2 -13.5,-16.2c0,-5.4 1.8,-15.3 9,-15.3l0.9,0zm-12.6,24.3c-2.7,-2.7 -6.3,-5.4 -9.9,-7.2c-0.9,-2.7 -0.9,-4.5 -0.9,-7.2c0,-9.9 10.8,-16.2 19.9,-16.2c2.7,0 5.4,0.9 6.3,4.5l-0.9,0c-10.8,0 -14.4,9.9 -14.4,18.9c-0.1,2.7 -0.1,5.4 -0.1,7.2zm77.6,19.9c0,0.9 0.9,1.8 0.9,3.6c-3.6,0 -8.1,0 -11.7,0c1.8,0 4.5,0 7.2,-0.9c-6.3,0 -10.8,0.9 -17.1,0.9c-0.9,-1.8 -0.9,-3.6 -4.5,-4.5c-2.7,0 -5.4,-0.9 -8.1,-0.9c0,0.9 0.9,2.7 0.9,3.6c-0.9,0 -1.8,0.9 -2.7,1.8c-8.1,-0.9 -17.1,-2.7 -24.4,-7.2c0.9,-0.9 3.6,-0.9 6.3,-0.9c7.2,-1.8 13.5,-5.4 19.9,-9.9c1.8,2.7 3.6,5.4 6.3,7.2c1.8,0.9 5.4,0 8.1,1.8c2.7,0.9 6.3,1.8 9.9,1.8c1.8,0 3.6,0 5.4,0c0.9,0.9 1.8,1.8 2.7,2.7l0.9,0.9zm43.3,6.3c9.9,9.9 17.1,26.2 17.1,39.7c0,5.4 -18.9,9 -27.1,9c-10.8,-13.5 -20.8,-31.6 -26.2,-46.9c1.8,-0.9 3.6,-0.9 5.4,-0.9c5.4,0.9 9,1.8 13.5,1.8c5.6,0 11.9,-0.9 17.3,-2.7zm-49.6,-95.7c0,0 0,0 0,-0.9c0,-9.9 13.5,-19.9 13.5,-30.7c0,-5.4 -3.6,-16.2 -9.9,-16.2c-2.7,0 -6.3,2.7 -9,3.6c0,-5.4 0.9,-11.7 0.9,-17.1c0,-9.9 -1.8,-19.9 -6.3,-28.9l-0.9,-0.9c0,-0.9 0,-0.9 0.9,-0.9c1.8,-6.3 2.7,-12.6 3.6,-18.9c19.9,2.7 34.3,27.1 39.7,43.3c2.7,8.1 4.5,17.1 4.5,26.2c0,4.5 0,9.9 -1.8,14.4c0,-0.9 0,-1.8 0,-3.6c0,-16.2 -5.4,-36.1 -18,-48.7c-0.9,-0.9 -1.8,-2.7 -3.6,-3.6c-1.8,2.7 -7.2,8.1 -7.2,10.8c0,0.9 3.6,4.5 5.4,6.3c9,10.8 14.4,26.2 14.4,39.7c0,6.3 -1.8,6.3 -4.5,8.1c-8.2,5.4 -15.4,11.7 -21.7,18zm-6.3,2.8c0.9,0 1.8,-0.9 2.7,-1.8c0.9,0.9 0.9,1.8 1.8,1.8l-1.8,1.8c-0.9,-0.9 -1.8,-0.9 -2.7,-1.8zm-12.7,-7.3c0,-0.9 0.9,-1.8 0.9,-3.6c0,-2.7 -1.8,-5.4 -3.6,-6.3c8.1,-10.8 17.1,-22.6 28,-24.4c0.9,0.9 0.9,2.7 0.9,3.6c0,10.8 -13.5,22.6 -22.6,31.6c0,0.9 0.9,1.8 0.9,2.7c-1.8,-0.9 -2.7,-1.8 -4.5,-2.7l0,-0.9zm-23.4,-18.9c2.7,3.6 5.4,6.3 7.2,10.8c-0.9,0.9 -2.7,2.7 -2.7,4.5c0,0.9 2.7,6.3 4.5,9c0.9,-0.9 1.8,-1.8 1.8,-2.7l0.9,0c0.9,0 0.9,0.9 1.8,0.9c4.5,8.1 7.2,17.1 7.2,25.3c-7.2,-7.2 -13.5,-13.5 -22.6,-17.1c0.9,-2.7 2.7,-6.3 2.7,-9c0,-2.7 -1.8,-5.4 -2.7,-7.2c-0.9,-6.3 -2.7,-9.9 -6.3,-14.4c0.9,-1.8 0.9,-2.7 1.8,-4.5l0,-0.9c0.9,-0.9 1.8,-1.8 2.7,-2.7c1.8,2.7 4.5,7.2 6.3,9.9l-1.8,-1.8c-0.9,-0.9 -1.8,-2.7 -2.7,-3.6c0.1,0.8 1,1.7 1.9,3.5zm25.2,91.1c6.3,-3.6 12.6,-11.7 18,-18c0,0.9 1.8,1.8 2.7,1.8l0,1.8c-0.9,4.5 0,7.2 -1.8,11.7c0,0.9 0.9,0.9 0.9,0.9l0.9,3.6c-5.4,0 -11.7,-0.9 -18,-1.8l-2.7,0zm57.8,-88.4c4.5,-0.9 9,-1.8 13.5,-1.8c9,0 18,2.7 27.1,6.3c1.8,0.9 2.7,0 2.7,3.6c0,9 -2.7,17.1 -6.3,25.3c-9,0.9 -18,1.8 -27.1,1.8c-9,0 -18.9,-0.9 -27.1,-2.7c2.7,-7.2 9.9,-13.5 14.4,-22.6c1,-2.7 1.9,-6.3 2.8,-9.9zm16.2,114.6c12.6,-4.5 23.5,-15.3 31.6,-23.5c13.5,-15.3 27.1,-33.4 27.1,-53.2c0,-3.6 -0.9,-7.2 -1.8,-10.8c13.5,-6.3 27.1,-14.4 37.9,-23.5c1.8,-1.8 3.6,-2.7 5.4,-4.5c-14.4,9 -28,18 -44.2,24.4c-4.5,-8.1 -9,-14.4 -16.2,-19.9c-1.8,-0.9 -2.7,-12.6 -3.6,-16.2c-0.9,-3.6 -1.8,-6.3 -3.6,-9.9c9.9,-1.8 18.9,-3.6 28.9,-6.3c2.7,-0.9 6.3,-8.1 6.3,-9c0,-4.5 -34.3,-7.2 -34.3,-9c0,-1.8 0,-4.5 -1.8,-5.4c-4.5,7.2 -8.1,14.4 -12.6,21.7c-0.9,1.8 -1.8,3.6 -1.8,6.3c0,1.8 4.5,7.2 6.3,9.9c1.8,3.6 2.7,6.3 3.6,9.9c-0.9,0 -0.9,0 -0.9,0c-8.1,-3.6 -15.3,-4.5 -22.6,-4.5c-6.3,0 -12.6,0.9 -18.9,1.8c0.9,-2.7 0.9,-5.4 0.9,-8.1c0,-9.9 -2.7,-20.8 -5.4,-30.7c-7.2,-23.5 -17.1,-45.1 -42.4,-54.1c0.9,-5.4 0.9,-11.7 0.9,-17.1c0,-9 -0.9,-18 -1.8,-27.1c-0.9,-1.8 -0.9,-4.5 -1.8,-7.2c0.9,8.1 1.8,15.3 1.8,23.5c0,4.5 0,28 -3.6,28c-1.8,0 -3.6,-0.9 -4.5,-0.9c-7.2,0 -14.4,1.8 -19.9,4.5c-0.9,0 -0.9,0.9 -1.8,0.9c-8.1,-4.5 -15.3,-7.2 -24.4,-7.2c3.6,-9 6.3,-18.9 9,-28.9c0,0 0,0 0,-0.9c0,-3.6 -5.4,-9 -5.4,-9c-4.5,0 -16.2,17.1 -23.5,25.3c0,0 0,0.9 -0.9,0.9c-0.9,0 -2.7,-1.8 -4.5,-1.8l-0.9,0c2.7,7.2 13.5,24.4 16.2,26.2c0.9,0 1.8,0.9 2.7,0.9c3.6,0 6.3,-0.9 9.9,-0.9c3.6,0 7.2,0 9.9,1.8c0,0 0,0.9 -0.9,0.9c-10.8,8.1 -18,20.8 -21.7,34.3c-21.7,-15.3 -46,-18.9 -68.6,-18.9c-9.9,0 -19.9,1.8 -28.9,7.2c-2.7,1.8 -4.5,4.5 -6.3,6.3c-12.6,-9 -26.2,-16.2 -39.7,-21.7c-2.7,-0.9 -4.5,-1.8 -6.3,-1.8c14.4,7.2 29.8,14.4 43.3,25.3c0,0.9 0,0.9 -0.9,1.8c-4.5,6.3 -7.2,14.4 -8.1,23.5c0,1.8 -9.9,7.2 -12.6,10.8c-2.7,2.7 -4.5,5.4 -6.3,8.1c-6.3,-8.1 -13.5,-15.3 -19.9,-22.6c-0.9,-0.9 -2.7,0 -3.6,0c-2.7,0 -8.1,-0.9 -8.1,0.9c0,9 6.3,21.7 9.9,31.6c0,0 0,0 0,0.9c0,0.9 -3.6,1.8 -4.5,4.5c9.9,0 18,0 27.1,0c7.2,0 7.2,-6.3 10.8,-11.7c0.9,-3.6 3.6,-6.3 6.3,-8.1l0,0.9c1.8,13.5 9,27.1 18.9,36.1c-12.6,5.4 -22.6,14.4 -31.6,24.4c-12.6,13.5 -26.2,32.5 -26.2,52.3c0,3.6 0,7.2 0.9,10.8c-13.5,6.3 -26.2,14.4 -37.9,23.5c-1.8,1.8 -3.6,2.7 -5.4,4.5c1.8,-0.9 3.6,-2.7 5.4,-3.6c11.7,-9 25.3,-16.2 38.8,-20.8c4.5,8.1 9,14.4 16.2,19.9c2.7,2.7 2.7,11.7 3.6,16.2c0.9,3.6 1.8,6.3 4.5,9c0,0.9 -30.7,7.2 -30.7,8.1c-1.8,1.8 -4.5,7.2 -4.5,8.1c0,3.6 33.4,7.2 33.4,9c0.9,1.8 0,4.5 1.8,5.4c5.4,-8.1 14.4,-24.4 14.4,-27.1c0,-2.7 -3.6,-8.1 -6.3,-10.8c-1.8,-3.6 -2.7,-6.3 -3.6,-9.9c8.1,2.7 15.3,4.5 24.4,4.5c5.4,0 11.7,-0.9 18,-1.8c-0.9,2.7 -0.9,5.4 -0.9,9c0,9.9 2.7,19.9 5.4,29.8c6.3,21.7 18,47.8 42.4,53.2c0,6.3 -0.9,13.5 -0.9,19.9c0,9.9 0.9,23.5 3.6,31.6c0,-6.3 -1.8,-14.4 -1.8,-22.6c0,-9 0.9,-18.9 2.7,-28c1.8,0 3.6,0 5.4,0c7.2,0 14.4,-0.9 20.8,-3.6c0,0 0,-0.9 0.9,-0.9c0,0 0,0 0,0.9c8.1,2.7 15.3,6.3 24.4,6.3c-3.6,9 -6.3,18.9 -9,28.9c0,3.6 5.4,9.9 5.4,9.9c4.5,0 17.1,-17.1 23.5,-25.3c0,0 0,0 0.9,0c1.8,0 2.7,0.9 4.5,0.9l0.9,0c-4.5,-8.1 -12.6,-24.4 -16.2,-26.2c-0.9,-0.9 -1.8,-0.9 -3.6,-0.9c-2.7,0 -5.4,0.9 -9,0.9c-3.6,0 -7.2,0 -9.9,-1.8c0,0 0,-0.9 0.9,-0.9c10.8,-8.1 18,-20.8 21.7,-34.3c18.9,13.5 45.1,19.9 66.8,19.9c14.4,0 27.1,-4.5 37.9,-14.4c11.7,9 25.3,16.2 38.8,21.7c2.7,0.9 4.5,1.8 7.2,1.8c-1.8,-0.9 -4.5,-0.9 -6.3,-2.7c-13.5,-5.4 -26.2,-13.5 -37.9,-23.5c0,0 0.9,0 0.9,-0.9c5.4,-6.3 8.1,-14.4 9,-23.5c0.9,-2.7 9,-7.2 12.6,-10.8c1.8,-1.8 3.6,-4.5 5.4,-8.1c6.3,8.1 13.5,15.3 20.8,22.6c0.9,0 0.9,0.9 1.8,0.9c0.9,0 2.7,-0.9 3.6,-0.9l0.9,0.9c1.8,-0.9 3.6,0 5.4,-1.8c0,-9 -7.2,-21.7 -10.8,-31.6c0,0 0,0 0,-0.9s3.6,-2.7 4.5,-4.5c-9,0 -18,0 -27.1,0c-6.3,0 -8.1,7.2 -9.9,11.7c-1.8,3.6 -4.5,6.3 -7.2,8.1l0,-0.9c-1.7,-14.7 -9,-26.4 -18.9,-36.3zm-45.1,-22.6c2.7,-1.8 6.3,-2.7 9,-2.7c4.5,0 9,0.9 12.6,0.9c9,0 16.2,-2.7 19.9,-9.9c0.9,-1.8 2.7,-4.5 2.7,-7.2c0,-3.6 -4.5,-6.3 -8.1,-8.1c0.9,-0.9 1.8,-0.9 3.6,-1.8c12.6,-5.4 25.3,-13.5 33.4,-26.2c0,0 0.9,-0.9 1.8,-0.9c6.3,-1.8 12.6,-3.6 18.9,-6.3c0.9,3.6 0.9,7.2 0.9,10.8c0,32.5 -29.8,61.4 -53.2,68.6c16.2,-8.1 31.6,-24.4 36.1,-42.4c0.9,-0.9 0.9,-2.7 0.9,-4.5c-3.6,-0.9 -7.2,-1.8 -10.8,-1.8c-2.7,0 -2.7,5.4 -4.5,9c-5.4,13.5 -16.2,28 -29.8,33.4c-0.9,0 -0.9,0.9 -1.8,0.9s-3.6,-1.8 -5.4,-2.7c-8.2,-3.7 -17.2,-7.3 -26.2,-9.1zm-5.4,-3.6c0.9,0 2.7,0 3.6,0.9c-0.9,0.9 -0.9,0.9 -1.8,1.8l-0.9,0c-0.9,-1.8 -0.9,-2.7 -0.9,-2.7zm7.2,-22.5c12.6,0.9 27.1,2.7 35.2,11.7c-1.8,3.6 -7.2,4.5 -11.7,4.5c-9.9,0 -19.9,-2.7 -28.9,-5.4c-0.9,0.9 -1.8,0.9 -1.8,1.8c0,-1.8 0,-2.7 0,-4.5l0,-0.9c3.6,0 7.2,-3.6 7.2,-7.2zm-1.8,-22.6c-1.8,4.5 -3.6,8.1 -5.4,11.7c-1.8,0 -3.6,0 -5.4,0c-1.8,0 -4.5,5.4 -6.3,8.1c0.9,0 2.7,0 3.6,0.9l0,0.9c0,0.9 0,0.9 0,1.8c-4.5,7.2 -10.8,14.4 -18,18.9c0,-0.9 0,-0.9 -0.9,-1.8c3.6,-4.5 5.4,-14.4 5.4,-21.7c0,-1.8 0,-3.6 -0.9,-5.4c3.6,0 6.3,0 9,-1.8c2.7,-1.8 3.6,-4.5 5.4,-6.3c3.6,-3.6 7.2,-6.3 9,-12.6c1.8,0 2.7,0 4.5,-0.9l0.9,0c1.8,0 2.7,0 3.6,0.9c-1.8,3.6 -3.6,8.1 -5.4,10.8l0.9,-2.7c0.9,-1.8 0.9,-2.7 1.8,-4.5c-0.9,1 -0.9,2.8 -1.8,3.7z" fill="#000000"/>
 </g>
</svg>