<svg width="800" height="500" xmlns="http://www.w3.org/2000/svg" xml:space="preserve" version="1.1">

 <g>
  <title>Layer 1</title>
  <g id="svg_1">
   <path id="svg_2" d="m503.6,260.4c0.3,-0.6 1.1,-1.9 0.8,-2.6c-1.3,-3.1 -4.3,-5.1 -7,-6.9c-3,-2 -6.3,-3.5 -9.7,-4.6c-0.5,-0.2 -1.8,2 -1.8,2c-1.2,1.7 -2.3,3.6 -3.3,5.4c-0.3,0.6 -4.3,8.1 -3.7,8.3c3.4,1.1 6.6,2.7 9.7,4.6c1.2,0.7 2.4,1.5 3.5,2.5c-0.4,0.5 -0.7,1 -0.7,1c-1.2,1.7 -2.3,3.6 -3.3,5.4c-0.3,0.6 -4.3,8.1 -3.7,8.3c3.4,1.1 6.6,2.7 9.7,4.6c2.7,1.7 5.7,3.7 7,6.9c0.1,0.3 1.8,-1.9 1.8,-2c1.2,-1.7 2.3,-3.6 3.3,-5.4c1,-1.9 2.1,-3.7 2.9,-5.7c0.3,-0.6 1.1,-1.9 0.8,-2.6c-1.3,-3.1 -4.3,-5.1 -7,-6.9c-1.5,-1 -3,-1.8 -4.6,-2.6c0.9,-1.3 1.7,-2.7 2.5,-4.1c1,-1.7 2,-3.6 2.8,-5.6" class="st0" fill="#231F20"/>
   <path id="svg_3" d="m406.2,302.6c0.2,0.4 1.9,-2.6 1.9,-2.7c1.2,-2.2 2.3,-4.6 3.2,-7c1,-2.4 2,-4.8 2.7,-7.3c0.2,-0.8 1,-2.5 0.5,-3.3c-2,-3.6 -5.9,-5.5 -9.4,-7.2c-3.9,-1.9 -8.1,-3.2 -12.3,-4.1c-0.6,-0.1 -1.9,2.7 -1.9,2.7c-1.2,2.3 -2.3,4.7 -3.3,7.1c-0.3,0.7 -4,10.4 -3.2,10.6c4.2,0.8 8.4,2.2 12.3,4.1c3.5,1.5 7.5,3.5 9.5,7.1" class="st0" fill="#231F20"/>
   <path id="svg_4" d="m480,436.1c-0.8,1 -1.6,2 -2.4,3c0.1,0.1 0.2,0.3 0.3,0.4c2,-1.6 4.1,-3 6,-4.7c3.9,-3.6 7,-7.9 9.3,-12.8c1.3,-2.9 1.9,-5.9 1.5,-9c-0.1,-1.2 -0.7,-2.6 -1.5,-3.4c-2.4,-2.4 -6.9,-1.5 -8.9,1.1c-1.5,2 -2.5,4.3 -2.6,6.9c0,0.3 0,0.7 0,1c0.4,-0.1 0.8,0 1.1,-0.3c1.3,-1 2.7,-1.4 4.3,-1.3c1.8,0.1 2.8,1.2 2.9,3c0.2,2.1 -0.6,3.8 -1.7,5.3c-2.6,3.7 -5.4,7.2 -8.3,10.8" class="st0" fill="#231F20"/>
   <path id="svg_5" d="m424,394.7c-2.6,14.2 1,18.6 1.1,18.8c0,0 0,0 0,0c0.3,0.5 0.7,0.9 1,1.3c1.2,1.1 2.6,1.7 4,1.7c0.2,0 0.4,0 0.6,0c1.8,-0.2 3.5,-1.3 4.7,-3.1c1.9,-2.7 2.8,-5.9 3.7,-9l0.2,-0.6c0.3,-1.1 0.4,-2.3 0.6,-3.5c0.1,-0.5 0.1,-1 0.2,-1.6c0,-0.1 -0.1,-0.2 -0.2,-0.3l-0.4,-0.1c-0.1,0 -0.2,0 -0.3,0.1l-0.3,0.4c-0.2,0.3 -0.4,0.6 -0.6,0.9c-0.6,0.8 -1.2,1.7 -1.8,2.5c0,0 -0.2,0.3 -0.6,0.8c-1,1.2 -3,3.1 -4.8,2.7c-0.4,-0.2 -0.8,-0.4 -1.2,-0.6c-0.2,-0.2 -0.3,-0.3 -0.4,-0.4c-0.3,-0.3 -0.6,-0.7 -0.8,-1.2c-1.2,-2.7 -1.4,-5.8 -0.8,-9.6c0.7,-4.1 1.8,-8.2 2.9,-12.2c0.3,-1.1 0.6,-2.1 0.8,-3.1c0.6,-2.2 1.3,-4.4 1.9,-6.6c0.3,-1 0.6,-2 0.9,-2.9c0,-0.1 0,-0.2 -0.1,-0.3c-0.1,-0.1 -0.2,0 -0.3,0.1c-3.2,4.2 -5.1,9 -6.6,13.2c-0.7,1.8 -1.2,3.4 -1.7,4.9c0,0 0,0 0,0c-0.8,2.8 -1.4,5.3 -1.7,7.7" class="st0" fill="#231F20"/>
   <path id="svg_6" d="m334.2,444.1c-11.9,-1.5 -24,-3.5 -35.9,-6c-8.1,-1.7 -15.9,-4.1 -23.7,-7.1c-1.5,-0.6 -2.9,-1.2 -4.3,-1.8c-0.2,-0.1 -0.3,-0.2 -0.5,-0.3c-4.8,-1.8 -9.5,-4.8 -13.9,-7.5c-4.7,-2.9 -9.2,-6 -13.4,-9.6c-14.6,-12.3 -25.9,-30.7 -26.1,-50.7c0,-4.3 0.3,-8.7 1,-13c2.5,-16.4 8.3,-31.8 13.8,-47.2c11.1,-30.9 23.9,-61 36.9,-91c3.7,-8.4 7,-17 10.2,-25.7c2.3,-6.1 4.3,-12.3 6.6,-18.4c1.3,-3.6 2,-7.3 2.4,-11.1c0.5,-5.4 0.5,-10.7 -0.4,-16c-0.7,-4.3 -1.9,-8.3 -3.7,-12.2c-0.2,-0.5 -0.5,-1 -0.8,-1.5c-0.6,-0.8 -1.5,-0.7 -1.7,0.3c-0.2,1.1 -0.3,2.3 -0.3,3.4c0.1,1.4 0.5,2.8 0.5,4.2c0.1,1.7 0.3,3.5 -0.2,5.2c-0.5,1.8 -1,3.5 -1.5,5.2c-7.2,22.4 -17.3,43.4 -26.3,65c-1.8,4.2 -3.5,8.5 -5.3,12.7c-6.3,15.4 -12.7,31.1 -18.7,46.7c-3.1,8 -6.1,16 -9,24.1c-5.7,15.7 -10.4,31.1 -11.8,47.9c-0.6,7.1 -0.9,14.8 -0.4,22.4c0.9,12.4 4.9,24.3 9.7,35.6c5.3,12.5 12,24.3 23,32.1c16.2,11.5 35.7,15.6 55,16.5c11,0.5 22.2,1.1 33.2,0.9c1.6,0 3.2,-0.1 4.8,-0.3c0.7,-0.1 1.4,-0.2 1.9,-0.7c0.5,-0.5 0.6,-1.4 0.1,-1.9c-0.5,-0.1 -0.8,-0.2 -1.2,-0.2" class="st0" fill="#231F20"/>
   <path id="svg_7" d="m333.6,225c-6.9,20.9 -11.1,44.8 -7.5,66.8c0.2,1.4 0.4,2.8 0.7,4.2l0,0c0,0 4.6,35.9 27.6,51.3c20.6,13.7 37,17.1 40.3,17.6c0.3,0.1 0.7,0.2 1,0.3l0.5,0.2c-0.3,-0.1 -0.6,-0.2 -0.9,-0.4c-0.1,-0.1 -0.2,-0.1 -0.3,-0.2c0,0 -0.1,-0.1 -0.1,-0.1c-22.1,-12.5 -37.3,-30.8 -45.8,-43.1c-4.4,-6.4 -7,-11.1 -7.8,-12.7c-0.1,-0.2 -0.2,-0.3 -0.3,-0.5c-1.4,-3 -2.7,-6 -3.7,-9.2c-4.6,-14.3 -2,-29.1 1.3,-43.3c6.9,-29.4 20.4,-57.1 31.3,-85.1c2.5,-6.4 4.9,-12.8 7.3,-19.2c5.1,-14 10.2,-28.1 14.4,-42.5c1.3,-4.4 2.6,-8.7 3.8,-13.1c3.3,-12 4.9,-26.1 1.6,-38.3c-1.1,-4.2 -2.7,-8.1 -5.1,-11.6c-0.3,-0.4 -0.5,-1.1 -1.1,-0.9c-0.6,0.1 -0.8,0.8 -0.9,1.3c-0.1,0.3 -0.1,0.6 -0.1,0.8c0.3,1.3 0.6,2.5 0.9,3.8c0.2,0.7 0.2,1.3 0.3,2c0.4,2.5 0.7,5 0.6,7.5c0,2.4 -0.4,4.7 -0.9,7c-3.6,17.9 -9.4,35.1 -15.9,52c-3.3,8.6 -6.8,17.1 -10.3,25.6c-10.7,26.3 -22,52.7 -30.9,79.8" class="st0" fill="#231F20"/>
   <path id="svg_8" d="m321.1,262.1c0.6,-0.2 -3.3,-7.7 -3.7,-8.3c-1,-1.8 -2.1,-3.7 -3.3,-5.4c0,0 -1.4,-2.1 -1.8,-2c-3.4,1.1 -6.6,2.7 -9.7,4.6c-2.7,1.7 -5.7,3.7 -7,6.9c-0.3,0.7 0.5,2 0.8,2.6c0.8,2 1.9,3.8 2.9,5.7c0.8,1.4 1.6,2.7 2.5,4.1c-1.6,0.8 -3.1,1.6 -4.6,2.6c-2.7,1.7 -5.7,3.7 -7,6.9c-0.3,0.7 0.5,2 0.8,2.6c0.8,2 1.9,3.8 2.9,5.7c1,1.8 2.1,3.7 3.3,5.4c0.1,0.1 1.7,2.3 1.8,2c1.3,-3.1 4.3,-5.1 7,-6.9c3,-2 6.3,-3.5 9.7,-4.6c0.6,-0.2 -3.3,-7.7 -3.7,-8.3c-1,-1.8 -2.1,-3.7 -3.3,-5.4c0,0 -0.3,-0.5 -0.7,-1c1.1,-0.9 2.3,-1.7 3.5,-2.5c2.9,-2.1 6.2,-3.6 9.6,-4.7" class="st0" fill="#231F20"/>
   <path id="svg_9" d="m312.8,417c1.6,-0.1 3,0.3 4.3,1.3c0.3,0.2 0.7,0.2 1.1,0.3c0,-0.3 0,-0.7 0,-1c-0.2,-2.6 -1.1,-4.9 -2.6,-6.9c-1.9,-2.6 -6.5,-3.5 -8.9,-1.1c-0.8,0.8 -1.3,2.2 -1.5,3.4c-0.4,3.1 0.2,6.1 1.5,9c2.3,4.9 5.4,9.2 9.3,12.8c1.9,1.7 4,3.2 6,4.7c0.1,-0.1 0.2,-0.3 0.3,-0.4c-0.8,-1 -1.6,-2 -2.4,-3c-2.8,-3.6 -5.7,-7.2 -8.4,-10.9c-1.1,-1.5 -1.9,-3.2 -1.7,-5.3c0.2,-1.7 1.2,-2.8 3,-2.9" class="st0" fill="#231F20"/>
   <path id="svg_10" d="m370.4,404.7c-0.1,0.1 -0.2,0.2 -0.4,0.4c-0.3,0.3 -0.7,0.5 -1.2,0.6c-1.8,0.4 -3.7,-1.5 -4.8,-2.7c-0.4,-0.4 -0.6,-0.7 -0.6,-0.8c-0.6,-0.8 -1.2,-1.7 -1.8,-2.5c-0.2,-0.3 -0.4,-0.6 -0.6,-0.9l-0.3,-0.4c-0.1,-0.1 -0.2,-0.1 -0.3,-0.1l-0.4,0.1c-0.1,0 -0.2,0.2 -0.2,0.3c0.1,0.5 0.1,1 0.2,1.6c0.1,1.2 0.3,2.3 0.6,3.5l0.2,0.6c0.8,3.1 1.7,6.3 3.7,9c1.3,1.8 3,2.9 4.7,3.1c0.2,0 0.4,0 0.6,0c1.4,0 2.8,-0.6 4,-1.7c0.4,-0.3 0.7,-0.8 1,-1.3c0,0 0,0 0,0c0.1,-0.2 3.7,-4.5 1.1,-18.8c-0.3,-2.4 -0.9,-4.9 -1.8,-7.7c0,0 0,0 0,0c-0.5,-1.5 -1,-3.1 -1.7,-4.9c-1.5,-4.2 -3.4,-9 -6.6,-13.2c-0.1,-0.1 -0.2,-0.1 -0.3,-0.1c-0.1,0.1 -0.1,0.2 -0.1,0.3c0.3,1 0.6,2 0.9,2.9c0.7,2.1 1.3,4.4 1.9,6.6c0.3,1 0.6,2.1 0.8,3.1c1.1,4 2.2,8.1 2.9,12.2c0.6,3.8 0.4,6.9 -0.8,9.6c-0.1,0.5 -0.3,0.9 -0.7,1.2" class="st0" fill="#231F20"/>
   <path id="svg_11" d="m383.6,41.1c0.1,-0.5 0.2,-0.9 0.4,-1.4c0.2,-0.9 0.5,-1.6 0.7,-2.1c0.5,-1.3 0.8,-1.7 0.8,-1.7c0.7,0.3 1.4,0.6 2,0.8c0.1,0.1 0.3,0.1 0.4,0.2c0.6,0.2 1.2,0.4 1.7,0.6c0.4,0.1 0.7,0.2 1.1,0.3c0.2,0.1 0.4,0.1 0.5,0.2c12,3.5 20.1,0.9 24.7,-1.8l-0.3,0.2c0.4,-0.2 0.8,-0.5 1.2,-0.8c2.6,-1.7 3.9,-3.3 3.9,-3.3l0,0c2.4,-2.5 3.9,-5.2 4.8,-7.3c0.2,-0.6 0.4,-1.2 0.6,-1.8c0.1,-0.4 0.3,-0.8 0.4,-1.2c0.2,-0.5 0.3,-1 0.3,-1.6c-0.2,-0.5 -0.4,0 -0.7,0.4c-3.8,5.3 -11.8,7.2 -18.3,7.9c-6.9,0.6 -14.1,-0.3 -19.7,-4.2c-0.3,-0.1 -0.5,-0.3 -0.7,-0.5c-0.4,0.3 -0.8,1.1 -1.1,1.7c-1.8,3.2 -5.5,11 -7.7,24.8l3.3,-2.7c0.2,0 0.9,-3.4 1.7,-6.7" class="st0" fill="#231F20"/>
   <path id="svg_12" d="m401,40.4c-0.2,0 -0.4,0 -0.7,0c0.1,0 0.3,0 0.4,0c0.1,0 0.2,0 0.3,0" class="st0" fill="#231F20"/>
   <path id="svg_13" d="m446.6,144c-0.4,8.5 -1.5,17 -3.4,25.2c-2.9,12.3 -7.9,24.6 -15.8,34.6c0.4,-1.3 0.7,-2.4 0.9,-3.2c1.1,-4.2 1.4,-8.8 0.8,-13.6c-0.9,-6.6 -3.5,-12.7 -10.2,-15.9c-4.7,-2.3 -9.3,-1.3 -12.4,2.8c-4.6,6.1 -6.6,13.1 -7.8,20.4c-0.2,0.8 -0.7,2.4 0.1,3.1c0.3,0.2 0.7,0.2 1,0.1c0.5,-0.2 1.1,-0.7 1.3,-1.2c0.1,-0.1 0.1,-0.2 0.2,-0.3c0.8,-2.2 1.2,-4.5 1.9,-6.7c0.9,-2.6 1.6,-5.6 3.2,-8c3.4,-4.9 10.6,-1.7 13.7,1.8c3,3.4 5.2,7.2 5.6,11.7c0,0.1 0,0.2 0,0.2c0.1,0.7 0.1,1.4 0.1,2.1c-0.5,6.7 -7.7,11.6 -7.7,11.6c0.4,-1.4 0.8,-2.9 1.1,-4.4c0.7,-3.6 -0.6,-6.5 -3.6,-8c-3.3,-1.6 -6.9,-0.1 -9,2.6c-2.4,2.9 -3.6,6.7 -4.3,10.4c-0.6,3.2 -0.7,5.3 -0.5,6.8c-1.4,0.7 -2.9,1.5 -4,2.1c-0.7,0.3 -1.3,0.7 -2,1.1c-0.1,0 -0.1,0 -0.1,0c-0.3,0.2 -0.6,0.4 -0.9,0.6c-8,-2.6 -15.1,-7.9 -20.6,-14.4c-3.9,-4.6 -7.1,-9.7 -9.8,-15.1l-2.9,7.8c6.6,9.4 15.7,16.9 26.8,21.2c0.5,0.2 2.7,0.9 5.1,1.5c-2.9,2.5 -4.8,5.8 -5.4,10.2c-0.4,1.5 -0.8,3 -1,4.5c-1.1,8.2 -4,15.4 -10.3,20.9c-8.8,7.8 -18.6,13.6 -30.4,15.5c-0.7,0.1 -1.3,0.5 -2,0.7c0,0.2 0.1,0.3 0.1,0.5c0.4,0 0.7,0.1 1.1,0.1c8.8,-0.1 17.4,-1.9 25.9,-3.8c6.4,-1.4 11.1,-5.4 14,-11.5c2.8,-6.1 3.3,-12.7 4,-19.2c0.4,-3.3 1.1,-6.5 3.9,-8.6c3.3,-2.4 6.8,-4.7 10.3,-6.8c1.7,-1.1 3.6,-2.1 5.5,-2.7c0.6,0 1.6,-0.3 3,-0.9c1.4,-0.5 2.8,-1.2 4,-2c1.2,-0.7 2.3,-1.5 3.2,-2.4c13.5,-7.7 23.4,-20.6 27.9,-35.6c5.3,-17.4 6,-35.2 5.1,-53.1c0,-0.2 0,-0.3 0,-0.5c-0.4,-8.9 -0.8,-17.8 -1.1,-26.7c-0.2,-7.6 -0.4,-15 3.6,-21.8c2.7,-4.6 8,-5.7 12.1,-2.3c1.7,-2.2 1.7,-4.6 1.5,-7.1c-0.2,-2.5 -1.9,-4 -4.1,-4.7c-5.2,-1.6 -9,2.2 -11.4,6.3c-1.2,2 -2.1,4.1 -2.9,6.3c-2.5,7.1 -3.2,14.7 -3.5,22.2c-0.6,15.5 0.8,30.5 0.1,45.6m-36.9,60.2c2.2,0 5.4,2 5.4,3.4c0,0 -0.5,1.8 -4.9,4.3c-0.2,0.1 -0.4,0.1 -0.5,0.1c-0.8,-0.1 -4.7,-0.5 -5,-2.3c-0.4,-1.8 3,-5.5 5,-5.5" class="st0" fill="#231F20"/>
   <path id="svg_14" d="m428.8,91.7l0,0c0,-0.1 0,-0.1 0,0c0.2,-0.7 0.3,-1.6 0.5,-2.9c0.5,-2.7 1,-5.4 2.3,-7.9c0.8,-1.7 2,-4.1 4,-4.6c1.4,-0.3 2.7,0 3.7,1c0.4,0.4 1.5,1.7 1.3,3.5c-0.2,2.1 3.7,-6.3 2.6,-9.1c-0.1,-0.4 -0.2,-0.8 -0.4,-1.2c-0.8,-1.8 -2.8,-3 -4.8,-2.9c-1.7,0.1 -3.1,1.2 -4.1,2.5c-3.7,5 -5.3,10.8 -6.1,16.9c-0.1,0.5 -0.1,1 -0.1,1.6c0,0 -0.4,3.7 0.2,4.2c0.3,0.1 0.6,-0.2 0.9,-1.1" class="st0" fill="#231F20"/>
   <path id="svg_15" d="m592,339.8c-1.4,-16.8 -6.2,-32.2 -11.8,-47.9c-2.9,-8.1 -5.9,-16.1 -9,-24.1c-6,-15.6 -12.5,-31.3 -18.7,-46.7c-1.7,-4.2 -3.5,-8.5 -5.3,-12.7c-9,-21.6 -19.1,-42.6 -26.3,-65c-0.6,-1.7 -1.1,-3.5 -1.5,-5.2c-0.5,-1.7 -0.3,-3.5 -0.2,-5.2c0.1,-1.4 0.5,-2.8 0.5,-4.2c0.1,-1.1 0,-2.3 -0.3,-3.4c-0.2,-1 -1.1,-1 -1.7,-0.2c-0.3,0.5 -0.6,1 -0.8,1.5c-1.9,3.9 -3.1,8 -3.7,12.2c-0.8,5.3 -0.9,10.7 -0.4,16c0.3,3.8 1.1,7.5 2.4,11.1c2.2,6.1 4.3,12.3 6.6,18.4c3.2,8.6 6.5,17.2 10.2,25.7c13.1,30 25.8,60.1 36.9,91c5.6,15.4 11.4,30.9 13.8,47.2c0.6,4.3 1,8.6 1,13c-0.2,20 -11.5,38.4 -26.1,50.7c-4.2,3.6 -8.7,6.7 -13.4,9.6c-4.4,2.7 -9.1,5.6 -13.9,7.5c-0.2,0.1 -0.3,0.2 -0.5,0.3c-1.4,0.6 -2.9,1.2 -4.3,1.8c-7.8,3 -15.6,5.4 -23.7,7.1c-11.9,2.4 -24,4.5 -35.9,6c-0.3,0 -0.7,0.1 -0.9,0.3c-0.5,0.4 -0.4,1.4 0.1,1.9c0.5,0.5 1.2,0.6 1.9,0.7c1.6,0.2 3.2,0.2 4.8,0.3c11,0.2 22.2,-0.4 33.2,-0.9c19.3,-0.9 38.7,-5 55,-16.5c11,-7.8 17.7,-19.6 23,-32.1c4.8,-11.2 8.8,-23.2 9.7,-35.6c0.2,-7.8 -0.1,-15.5 -0.7,-22.6" class="st0" fill="#231F20"/>
   <path id="svg_16" d="m357.1,274.7c0,0.5 0,1 -0.1,1.5c0,0.6 0,1.2 0,1.8c0,21.6 6.6,48.1 27.2,57.8c10.1,4.7 22.4,4.3 31.9,-1.6c7.4,-4.6 12.8,-12.2 16.8,-20.3c5.7,-11.7 8.7,-24.8 9.4,-37.9c0.4,-7.4 0.2,-15 -2,-22.1c-2.2,-7.1 -6.4,-13.7 -12.6,-17.4c-6.1,-3.7 -14.3,-4.2 -20.3,-0.3c-6.6,4.3 -9.4,12.7 -11.1,20.6c-0.3,1.6 -0.1,4 1.4,4.1c1.1,0.1 1.8,-1.2 2.4,-2.2c2.8,-4.7 9,-6.3 14.1,-4.7c5.1,1.6 9.2,5.7 12.3,10.2c4.4,6.3 7.5,14.2 6.3,21.9c-1,6 -4.4,11.3 -8.3,15.9c-6.3,7.5 -14.6,14.3 -24.4,15.1c-11,0.8 -20.1,-5.1 -27.1,-13.5c-0.9,-1.1 -1.7,-2.2 -2.4,-3.4c-4.2,-7.8 -5.3,-17.2 -4.9,-26.4l-8.6,0.9z" class="st0" fill="#231F20"/>
   <path id="svg_17" d="m478.3,383.1c4.4,3.2 10,3 13.7,2.3c0,0.1 0.1,0.2 0.1,0.3c0.4,12.7 5.9,19.4 10.6,22.9c1.3,1 2.8,1.9 4.3,2.6c0.1,0 0.2,0.1 0.3,0.1c1.3,0.6 2.2,0.8 2.2,0.8l0,-0.1c6.5,1.5 13.9,-0.9 19.3,-4.6c10.3,-6.9 19.6,-18.9 23.5,-31.1c3.1,-9.9 4.6,-20.3 4.5,-30.6c-0.1,-5.4 -0.7,-10.8 -1.7,-16.1c-1.9,-10.1 -5.4,-20.1 -9.1,-29.4c-0.3,-0.8 -0.6,-1.5 -0.9,-2.3c-0.6,-1.4 -1.1,-2.8 -1.7,-4.1c-4.6,-11.1 -9.2,-22.2 -13.9,-33.3c-15.5,-37.3 -32.5,-74.1 -46.8,-111.9c-3.6,-9.5 -7,-19.1 -10.3,-28.7c-2.8,-8.3 -6.3,-18 -5.2,-27c0.3,-2.1 0.5,-4.3 1.1,-6.3c0.3,-1.2 0.3,-2.4 0,-3.6c-0.2,-0.8 -0.9,-0.9 -1.5,-0.4c-0.2,0.2 -0.4,0.5 -0.6,0.7c-6.3,8 -6.9,20.8 -6.1,30.4c0.1,1.1 0.1,2.3 0.3,3.4c0.3,2.1 0.5,4.2 1.1,6.2c1.6,6 2.7,11.8 4.7,17.7c2.2,6.5 4.4,13 6.8,19.4c1.7,4.7 3.5,9.5 5.4,14.2c8.3,21 17.6,41.5 26.2,62.3c8.9,21.4 17.8,42.9 26.9,64.1c0.8,1.9 1.6,3.9 2.4,5.8c0.4,1 0.8,1.9 1.2,2.9c0.5,1.2 0.9,2.4 1.3,3.6c0.8,2 1.8,4.1 2.6,6.1c0.7,1.6 1.2,3.2 1.9,4.9c0.7,1.8 1.5,3.6 2.1,5.5c0.7,2.3 1.6,4.6 2.3,6.9c0.6,2.1 1.2,4.3 1.8,6.4c0.3,1.1 0.7,2.2 0.9,3.3c0.3,1.6 0.5,3.3 0.8,4.9c0.7,3.8 -1.1,7.8 -2.6,11.2c-1.6,3.6 -3.7,7 -6,10.2c-4.6,6.2 -10.5,11.5 -17.3,15c-7.8,4.1 -17.9,5.2 -23.8,-2.9c-0.3,-0.4 -0.6,-0.9 -0.6,-1.4c0,-0.1 0,-0.2 0.1,-0.3c9.2,-4.9 15.2,-10.8 19.1,-16.2c1.3,-1.6 2.4,-3.4 3.4,-5.4c0.4,-0.7 0.7,-1.5 1,-2.2c1.4,-2.9 2.1,-5.3 2.4,-6.7c1.5,-5.2 2.3,-10.6 2.7,-16c0.5,-7.1 1.1,-16 -2.7,-22.3c-3.5,-5.8 -10.1,-8.7 -16.2,-10.2c-7,-1.7 -14.5,-2.2 -20.9,-5.5c-1.8,-0.9 -4.4,-1.9 -5.6,-0.2c-0.3,0.4 -0.4,1 -0.6,1.5c-3.3,12.9 -6.6,26.3 -5.1,39.5c0.4,3.7 1.3,7.6 4,10.2c3.7,3.6 9.8,3.1 14.2,0.6c2.9,-1.7 5.4,-4.1 8.5,-5.3c3.1,-1.1 7.3,-0.3 8.5,3c1.4,-6.1 1.8,-12.4 1.2,-18.7c2.7,1.8 5.1,3.9 6.7,6.5c0,0 0,0.1 0.1,0.1c0.1,0.6 0.1,1.1 0,1.7c-0.4,4.2 -3.1,7.6 -5.9,10.6c-8.2,8.8 -18.8,16.3 -30.6,16c-3.6,-0.1 -7.2,-1 -10.3,-3c-3.8,-2.5 -6.3,-6.5 -7.5,-11l0.1,0c0,0 -0.1,-0.1 -0.2,-0.4c-0.2,-0.8 -0.4,-1.7 -0.5,-2.5c-0.2,-1.8 -0.2,-4.6 0.4,-8.6c0.4,-1.6 0.8,-3.2 0.9,-4.8c0.2,-1.1 0.5,-2.2 0.8,-3.5c0,0 -3.3,2.9 -6.4,9.7c-2,4.2 -3.4,8.8 -4.1,13.5c-0.1,0.7 -0.2,1.4 -0.4,2.1l0.1,-0.1c-0.5,5.5 -0.1,11.2 1.4,16.5c2.3,8.1 6.8,15.3 10.8,22.6c0.5,1 1.1,2 1.1,3.2c0,1.2 -0.6,2.3 -1.3,3.4c-8.5,13.8 -21.7,24.5 -36.6,29.7c-5.7,2 -12.2,3.2 -17.6,0.5c-5.5,-2.7 -8.6,-8.6 -9.8,-14.7c-0.1,-0.4 -0.1,-0.8 -0.2,-1.2c0,-0.2 -0.1,-0.5 -0.1,-0.7c0,-0.3 -0.1,-0.6 -0.1,-0.9c-0.5,-5.6 0.3,-11.1 1.1,-16.7l0.4,-2.5c1.3,-6.2 2.8,-11.4 3.3,-13.6c0.7,-2.7 -0.1,-3.4 -0.8,-3.4c-1.1,-0.5 -2.2,0.9 -2.7,2.1c-2.1,4.7 -3.8,9.7 -4.8,14.8c-1.1,-5.1 -2.7,-10.1 -4.8,-14.8c-0.5,-1.2 -1.6,-2.5 -2.7,-2.1c-0.7,0.1 -1.5,0.7 -0.8,3.4c0.5,2.2 2.1,7.4 3.3,13.6c0.1,0.8 0.2,1.6 0.4,2.5c0.8,5.5 1.6,11.1 1.1,16.6c0,0.3 -0.1,0.6 -0.1,0.9c0,0.2 -0.1,0.5 -0.1,0.7c-0.1,0.4 -0.1,0.8 -0.2,1.2c-1.2,6.1 -4.3,12 -9.8,14.7c-5.5,2.7 -11.9,1.5 -17.6,-0.5c-14.9,-5.2 -28,-15.9 -36.6,-29.7c-0.6,-1 -1.3,-2.1 -1.3,-3.4c0,-1.1 0.5,-2.2 1.1,-3.2c4,-7.3 8.5,-14.5 10.8,-22.6c1.5,-5.3 2,-11 1.4,-16.5l0.1,0.1c-0.1,-0.7 -0.2,-1.4 -0.3,-2.1c-0.7,-4.7 -2,-9.3 -4.1,-13.5c-3.1,-6.8 -6.4,-9.7 -6.4,-9.7c0.3,1.2 0.6,2.4 0.8,3.5c0.1,1.6 0.5,3.2 0.9,4.8c0.6,4 0.6,6.8 0.4,8.6c-0.1,0.9 -0.3,1.7 -0.5,2.5c-0.1,0.3 -0.1,0.4 -0.1,0.4l0.1,0c-1.2,4.5 -3.7,8.6 -7.5,11c-3,2 -6.7,2.9 -10.3,3c-11.7,0.3 -22.4,-7.2 -30.6,-16c-2.8,-3 -5.5,-6.5 -5.9,-10.6c-0.1,-0.6 0,-1.1 0,-1.7c0,0 0,-0.1 0.1,-0.1c1.6,-2.6 4,-4.7 6.7,-6.5c-0.6,6.2 -0.2,12.6 1.2,18.7c1.2,-3.2 5.4,-4.1 8.5,-2.9c3.1,1.1 5.6,3.6 8.5,5.3c4.4,2.6 10.4,3 14.2,-0.6c2.6,-2.5 3.6,-6.5 4,-10.2c1.5,-13.3 -1.8,-26.6 -5.1,-39.5c-0.1,-0.5 -0.3,-1.1 -0.6,-1.5c-1.2,-1.7 -3.8,-0.7 -5.6,0.2c-6.5,3.3 -13.9,3.8 -20.9,5.5c-6.1,1.5 -12.7,4.4 -16.2,10.2c-3.8,6.3 -3.2,15.1 -2.7,22.3c0.4,5.4 1.2,10.8 2.6,16c0.3,1.4 1,3.8 2.4,6.7c0.3,0.7 0.7,1.5 1,2.2c1,2 2.2,3.7 3.4,5.4c3.9,5.4 10,11.3 19.1,16.2c0,0.1 0.1,0.2 0.1,0.3c0,0.5 -0.3,1 -0.6,1.4c-5.9,8 -16,6.9 -23.8,2.9c-6.7,-3.5 -12.6,-8.8 -17.3,-15c-2.4,-3.1 -4.4,-6.6 -6,-10.2c-1.5,-3.4 -3.3,-7.4 -2.6,-11.2c0.3,-1.6 0.5,-3.3 0.8,-4.9c0.2,-1.1 0.6,-2.2 0.9,-3.3c0.6,-2.1 1.2,-4.3 1.8,-6.4c0.7,-2.3 1.6,-4.6 2.3,-6.9c0.6,-1.9 1.4,-3.7 2.1,-5.5c0.6,-1.6 1.2,-3.3 1.9,-4.9c0.8,-2 1.8,-4.1 2.6,-6.1c0.5,-1.2 0.9,-2.4 1.3,-3.6c0.4,-1 0.8,-1.9 1.2,-2.9c0.8,-1.9 1.6,-3.9 2.4,-5.8c9.2,-21.3 18.1,-42.7 26.9,-64.1c8.6,-20.8 17.9,-41.3 26.2,-62.3c1.8,-4.7 3.6,-9.4 5.4,-14.2c2.3,-6.4 4.6,-12.9 6.7,-19.4c2,-5.9 3,-11.7 4.7,-17.7c0.6,-2 0.8,-4.1 1.1,-6.2c0.2,-1.1 0.2,-2.3 0.3,-3.4c0.8,-9.6 0.2,-22.5 -6.1,-30.4c-0.2,-0.3 -0.4,-0.5 -0.6,-0.7c-0.6,-0.5 -1.2,-0.4 -1.5,0.4c-0.4,1.2 -0.4,2.4 0,3.6c0.6,2.1 0.8,4.2 1.1,6.3c1.1,9 -2.3,18.7 -5.2,27c-3.3,9.6 -6.7,19.2 -10.3,28.7c-14.2,37.8 -31.2,74.6 -46.8,111.9c-4.6,11.1 -9.2,22.2 -13.9,33.3c-0.6,1.4 -1.2,2.8 -1.7,4.1c-0.3,0.7 -0.6,1.5 -0.9,2.3c-3.7,9.4 -7.2,19.3 -9.1,29.4c-1,5.3 -1.6,10.7 -1.7,16.1c-0.1,10.3 1.4,20.7 4.5,30.6c3.9,12.2 13.2,24.2 23.5,31.1c5.4,3.6 12.8,6.1 19.3,4.6l0,0.1c0,0 0.9,-0.2 2.2,-0.8c0.1,0 0.2,-0.1 0.3,-0.1c1.6,-0.7 3,-1.5 4.3,-2.5c4.7,-3.5 10.3,-10.3 10.6,-22.9c0,-0.1 0.1,-0.2 0.1,-0.3c3.7,0.7 9.3,0.9 13.7,-2.3c-4.6,12.1 0.5,25.9 7.8,36.5c5.1,7.4 11.3,14.3 18.3,19.9c6.8,5.5 15.6,11.4 24.3,12.4c2,0.2 4,0.2 5.9,-0.2c6.6,-1.2 12.2,-6 15.9,-11.6c3.1,-4.7 5,-10.2 6.2,-15.8c1.2,5.6 3.1,11.1 6.2,15.8c3.7,5.6 9.3,10.4 15.9,11.6c2,0.3 3.9,0.4 5.9,0.2c8.7,-1 17.4,-6.9 24.3,-12.4c7,-5.6 13.2,-12.4 18.3,-19.9c7.5,-10.7 12.6,-24.6 8,-36.6m22.6,-58.1c-4.4,2.6 -10,8.1 -15.6,6.6c-5.4,-1.5 -5.7,-8.6 -4.6,-13.2c-0.2,0.9 8.5,2.7 14.6,4c1.5,0.4 3.6,0.9 6,1.7c0.1,0.1 0.1,0.2 0.1,0.3c0.1,0.1 -0.2,0.4 -0.5,0.6m-202.3,-0.9c2.4,-0.8 4.5,-1.3 6,-1.7c6.1,-1.2 14.9,-3 14.6,-4c1.1,4.6 0.8,11.7 -4.6,13.2c-5.5,1.5 -11.1,-4.1 -15.6,-6.6c-0.2,-0.1 -0.6,-0.4 -0.6,-0.6c0.1,-0.1 0.2,-0.3 0.2,-0.3" class="st0" fill="#231F20"/>
   <path id="svg_18" d="m409.3,51c0.3,-1.3 0.6,-2.5 0.9,-3.8c0.1,-0.3 0,-0.6 -0.1,-0.8c-0.2,-0.5 -0.3,-1.2 -0.9,-1.3c-0.6,-0.2 -0.8,0.5 -1.1,0.9c-2.4,3.5 -4,7.5 -5.1,11.6c-3.3,12.2 -1.7,26.3 1.6,38.3c1.2,4.4 2.5,8.8 3.8,13.1c4.2,14.4 9.3,28.5 14.4,42.5c2.4,6.4 4.8,12.8 7.3,19.2c1.8,4.7 3.8,9.5 5.7,14.2c1.5,-3.7 4.5,-12 6.6,-22.7c-2.4,-5.7 -4.7,-11.4 -7.1,-17.2c-3.5,-8.5 -7,-17 -10.3,-25.6c-6.5,-16.9 -12.4,-34.1 -15.9,-52c-0.5,-2.3 -0.9,-4.6 -0.9,-7c0,-2.5 0.3,-5 0.6,-7.5c0.2,-0.6 0.3,-1.2 0.5,-1.9" class="st0" fill="#231F20"/>
   <path id="svg_19" d="m466.4,224.9c-5,-15 -10.7,-29.9 -16.6,-44.6c-1.3,4.1 -4.1,11.6 -8.4,18.2c7.8,18.8 15.3,37.7 20,57.4c3.4,14.2 5.9,29 1.3,43.3c-1,3.2 -2.3,6.2 -3.7,9.2c-0.1,0.2 -0.2,0.3 -0.3,0.5c-0.8,1.5 -3.4,6.3 -7.8,12.7c-8.5,12.3 -23.7,30.6 -45.8,43.1c-0.1,0 -0.1,0.1 -0.1,0.1c-0.1,0.1 -0.2,0.1 -0.3,0.2c-0.3,0.2 -0.6,0.3 -0.9,0.4c0.2,-0.1 0.3,-0.1 0.5,-0.2c0.3,-0.1 0.7,-0.2 1,-0.3c3.2,-0.5 19.7,-3.9 40.3,-17.6c23,-15.3 27.6,-51.3 27.6,-51.3l0,0c0.2,-1.4 0.5,-2.8 0.7,-4.1c3.6,-22.2 -0.6,-46.1 -7.5,-67" class="st0" fill="#231F20"/>
   <path id="svg_20" d="m359.5,80.6c-0.1,-1.7 1,-3.1 1.3,-3.5c1,-0.9 2.3,-1.3 3.7,-1c2,0.5 3.2,2.9 4,4.6c1.2,2.5 1.8,5.2 2.3,7.9c0.1,1.3 0.3,2.2 0.5,2.9c0,0 0,0 0,0.1l0,0c0.3,1 0.6,1.2 0.9,0.9c0.5,-0.5 0.2,-4.2 0.2,-4.2c0,-0.5 0,-1.1 -0.1,-1.6c-0.8,-6.1 -2.4,-11.9 -6.1,-16.9c-1,-1.3 -2.4,-2.5 -4.1,-2.5c-2,-0.1 -4,1.1 -4.8,2.9c-0.2,0.4 -0.3,0.8 -0.4,1.2c-1.1,2.9 2.7,11.4 2.6,9.2" class="st0" fill="#231F20"/>
   <path id="svg_21" d="m345.2,78.2c3.9,6.8 3.8,14.2 3.6,21.8c-0.3,8.9 -0.7,17.8 -1.1,26.7c0,0.2 0,0.4 0,0.5c-0.8,15.7 -0.3,31.2 3.3,46.5c1.3,-3.5 2.9,-7.5 4.5,-11.3c-1.1,-6 -1.7,-12.1 -2,-18.3c-0.7,-15.1 0.7,-30.1 0.1,-45.1c-0.3,-7.5 -0.9,-15.1 -3.5,-22.2c-0.8,-2.2 -1.7,-4.3 -2.9,-6.3c-2.4,-4.2 -6.2,-8 -11.4,-6.3c-2.2,0.7 -3.9,2.2 -4.1,4.7c-0.2,2.5 -0.3,5 1.5,7.1c4,-3.5 9.3,-2.4 12,2.2" class="st0" fill="#231F20"/>
   <path id="svg_22" d="m373.5,236.3c2.1,-6 4.5,-11.9 7.1,-17.8c-1.9,-1 -4.6,-2.4 -6.9,-3.7c-1,2.5 -2,5 -3.1,7.5c-5.9,14.1 -11.1,29 -13,44.4c3.4,-1.6 7.2,-3.7 9.3,-4.9c0.2,-1.2 0.4,-2.4 0.6,-3.5c1.4,-7.5 3.5,-14.9 6,-22" class="st0" fill="#231F20"/>
   <path id="svg_23" d="m394.3,167.9c-3.5,10.6 -8.1,20.7 -13.2,30.5c-1.3,2.5 -2.5,5.1 -3.7,7.7c1.7,1.6 4.3,4 6.2,5.5c4.5,-10 9.1,-20 13,-30.4c5.9,-16.1 12.7,-37.5 6.1,-54.5c-0.3,-0.8 -0.5,-1.4 -1.3,-1.6c-1.8,2.1 -0.7,6.4 -0.7,9c-0.1,4 -0.4,7.9 -1,11.9c-1.1,7.5 -3.1,15 -5.4,21.9" class="st0" fill="#231F20"/>
  </g>
 </g>
</svg>