<svg width="800" height="500" xmlns="http://www.w3.org/2000/svg" xml:space="preserve" version="1.1">

 <g>
  <title>Layer 1</title>
  <path display="none" d="m258.58,120.96l0,-53.35l-2.36,0l0,53.35l-9.58,9.57l9.58,9.58l0,58.78l2.36,0l0,-58.79l9.57,-9.58l-9.57,-9.56zm-1.18,16.57l-1.18,-1.18l-5.82,-5.82l5.82,-5.82l1.18,-1.18l1.18,1.18l5.82,5.82l-5.82,5.82l-1.18,1.18z" class="st0" id="XMLID_935_" fill="#000000"/>
  <path display="none" d="m256.2,428l0,26.9l2.36,0l0,-26.9l9.58,-9.57l-9.58,-9.58l0,-58.78l-2.36,0l0,58.78l-9.57,9.58l9.57,9.57zm1.18,-16.57l1.18,1.18l5.82,5.82l-5.82,5.82l-1.18,1.18l-1.18,-1.18l-5.82,-5.82l5.82,-5.82l1.18,-1.18z" class="st0" id="XMLID_932_" fill="#000000"/>
  <g id="XMLID_874_">
   <g id="XMLID_1237_">
    <path d="m542.56,106.03l-0.97,0l-8.45,0l-0.97,0l-8.44,0l-0.97,0l-8.45,0l0,-9.41l-10.38,0l0,9.41l0,0.97l0,9.41l9.41,0l0.97,0l8.45,0l0.97,0l8.44,0l0.97,0l8.45,0l0,8.44l-8.45,0l-0.97,0l-8.44,0l-0.97,0l-8.45,0l-0.97,0l-9.41,0l0,9.41l0,0.97l0,8.44l-8.45,0l-0.97,0l-8.44,0l0,-8.44l9.41,0l0,-10.38l-9.41,0l0,-8.44l9.41,0l0,-9.41l0,-0.97l0,-8.12l0.68,0l-0.68,-0.68l0,-0.6l-0.6,0l-8.81,-8.81l0,-0.28l-0.28,0l-0.68,-0.68l0,0.68l-8.45,0l0,-0.68l-0.68,0.68l-0.28,0l0,0.28l-8.81,8.81l-0.6,0l0,0.6l-0.68,0.68l0.68,0l0,8.12l0,0.97l0,9.41l9.41,0l0,8.44l-8.44,0l-0.97,0l-8.45,0l0,-8.44l0,-0.97l0,-8.44l0,0l0,-10.1l0,0l0,-3.18l2.27,-2.27l0,0l6.66,-6.66l0,0l6.66,-6.66l0.68,-0.68l5.97,-5.97l5.97,5.97l0,0l7.34,7.34l0,0l5.97,5.97l-0.48,0.48l0.97,0l0.2,0.2l0.2,-0.2l14.28,0l-7.14,-7.14l0,0l-7.34,-7.34l0,0l-6.66,-6.66l0,0l-5.97,-5.97l0,0l-7.34,-7.34l-6.66,6.66l-0.68,0.68l-5.97,5.97l0,0l-7.34,7.34l-6.66,6.66l0,0l-3.74,3.74l-1.57,1.57l0,2.69l0,5.07l-0.69,0.69l0.69,0l0,8.17l0,0l-8.44,0l-0.97,0l-9.41,0l0,9.41l0,0.97l0,8.44l-0.68,0l0.68,0.68l0,0.28l0.28,0l9.13,9.13l0,0.28l0.28,0l0.68,0.68l0,-0.68l8.44,0l0.97,0l8.45,0l0.97,0l8.45,0l0.97,0l8.44,0l0,8.44l-8.44,0l-0.97,0l-8.45,0l-0.97,0l-8.44,0l0,0l-9.79,0l3.69,3.69l-3.31,3.31l-3.38,3.38l2.41,0l0.97,0l8.44,0l0,0l9.41,0l0.97,0l8.45,0l0.97,0l8.44,0l0,8.44l0,0.97l0,8.44l0,0.97l0,8.44l0,0.97l0,8.44l0,0.97l0,9.41l10.38,0l0,-9.41l0,-0.97l0,-8.44l0,-0.97l0,-8.44l0,-0.97l0,-8.44l0,-0.97l0,-8.44l8.44,0l0.97,0l8.45,0l0.97,0l8.44,0l0.97,0l8.45,0l0.97,0l9.41,0l0,-9.41l0,-0.97l0,-8.44l8.45,0l0.97,0l9.41,0l0,-9.41l0,-0.97l0,-8.44l0,-0.97l0,-9.41l-9.42,0l0,0.01zm-19.79,37.65l-8.45,0l0,-8.44l8.45,0l0,8.44zm-37.65,-45.77l0,8.12l-8.45,0l0,-8.12l8.45,0zm-37.66,26.95l-8.44,0l0,-8.44l8.44,0l0,8.44z" id="XMLID_1239_" fill="#000000"/>
    <rect height="10.38" width="10.38" y="143.68" x="541.59" id="XMLID_868_"/>
   </g>
   <g id="XMLID_1230_">
    <path d="m436.37,88.15l0,0l7.34,-7.34l-6.66,-6.66l0,0l-0.23,-0.23l-0.46,-0.46l0,0l-5.97,-5.97l5.97,-5.97l0,0l7.34,-7.34l-6.66,-6.66l0,0l-7.34,-7.34l-6.66,-6.66l-7.34,7.34l0,0l-6.66,6.66l-5.97,5.97l-6.66,6.66l0,0l0,0l-6.66,-6.66l-7.34,7.34l6.66,6.66l0,0l0.34,0.34l0.34,0.34l0,0l6.66,6.66l6.66,-6.66l0,0l0.34,-0.34l0.34,-0.34l0,0l6.66,-6.66l5.97,-5.97l0.68,-0.68l5.97,-5.97l5.97,5.97l-6.66,6.66l0,0l-6.66,6.66l-6.66,6.66l0,0l-6.66,6.66l6.66,6.66l0.68,0.68l5.97,5.97l0,0l-6.66,6.66l-5.97,5.97l0,0l-5.97,-5.97l6.66,-6.66l-7.34,-7.34l-6.66,6.66l0,0l-5.97,-5.97l6.66,-6.66l-6.32,-6.32l0.11,-0.11l-6.77,-6.77l0.37,-0.37l-0.74,0l-0.2,-0.2l-0.2,0.2l-13.14,0l-0.2,-0.2l-0.2,0.2l-0.97,0l0.48,0.48l-5.97,5.97l-0.48,-0.48l0,0.97l-0.2,0.2l0.2,0.2l0,12.46l-0.43,0.43l0.43,0.43l0,0.97l0.48,-0.48l6.09,6.09l7,7l6.66,-6.66l5.97,5.97l-5.97,5.97l-0.68,0.68l-5.97,5.97l-5.97,-5.97l0,0l-0.34,-0.34l-0.34,-0.34l0,0l-5.97,-5.97l0,0l-7.14,-7.14l0,0l-2.25,-2.25l0,-3.21l0,0l0,-9.41l0,-0.97l0,-8.44l0,-0.97l0,-8.44l8.44,0l0.97,0l8.44,0l0.97,0l8.44,0l0,0.68l0.68,-0.68l0.28,0l0,-0.28l10.1,-10.1l-10.1,0l-0.97,0l-8.44,0l-0.97,0l-8.44,0l-0.97,0l-8.44,0l-0.97,0l-9.41,0l0,9.41l0,0.97l0,8.44l0,0.97l0,8.44l0,0.97l0,9.41l0,0l0,5.29l0,2.22l1.9,1.9l3.58,3.58l0,0.97l0.49,-0.49l5.77,5.77l0,0l-5.97,5.97l-0.68,0.68l-6.66,6.66l6.66,6.66l0.68,0.68l5.97,5.97l-0.48,0.48l0.97,0l0.2,0.2l0.2,-0.2l12.91,0l0.2,0.2l0.2,-0.2l0.97,0l-0.48,-0.48l6.31,-6.31l6.31,-6.31l0,0l7.34,-7.34l0,0l5.97,-5.97l5.97,5.97l-5.97,5.97l0,0l-6.66,6.66l-0.68,0.68l-5.97,5.97l0,0l-6.92,6.92l5.22,0l0,4.69l0,1.37l0,3.41l1.7,-1.7l0.68,-0.68l5.97,-5.97l0,0l6.66,-6.66l0.68,-0.68l5.97,-5.97l6.66,-6.66l0,0l5.97,5.97l6.66,6.66l0,0l6.66,6.66l6.66,6.66l0,0l0.23,0.23l0.46,0.46l0,0l6.66,6.66l7.34,-7.34l-6.66,-6.66l0,0l-0.23,-0.23l-0.46,-0.46l0,0l-6.66,-6.66l-5.97,-5.97l-6.66,-6.66l0,0l-6.66,-6.66l0,0l6.66,-6.66l6.66,-6.66l0,0l6.2,-6.2l6.47,-6.44zm-79.87,38.56l-5.97,-5.97l5.97,-5.97l0,0l5.97,5.97l-5.97,5.97l0,0zm13.54,-51.65l0.11,-0.11l5.74,5.74l-6.08,6.08l-5.74,-5.74l5.97,-5.97l0,0zm47.05,5.75l5.97,-5.97l5.97,5.97l-5.97,5.97l-5.97,-5.97z" id="XMLID_1232_" fill="#000000"/>
    <rect height="10.38" width="10.38" transform="matrix(0.7071 -0.7071 0.7071 0.7071 83.9917 337.7526)" y="62.3" x="444.49" id="XMLID_863_"/>
   </g>
   <g id="XMLID_1223_">
    <rect height="10.38" width="10.38" y="73.42" x="318.28" id="XMLID_862_"/>
    <path d="m328.67,139.31l0,-17.86l0,-0.97l0,-28.23l-18.83,0l0,-18.83l-9.41,0l-0.97,0l-18.83,0l0,37.65l-9.41,0l0,10.38l19.79,0l0,-37.65l8.44,0l0,37.65l18.83,0l0,17.86l-8.44,0l0,-9.41l-10.38,0l0,9.41l-8.44,0l0,-9.41l-19.79,0l0,0.6l-8.81,8.81l-0.28,0l0,0.28l-0.68,0.68l0.68,0l0,9.13l9.09,9.09l0,0.6l19.79,0l0,-9.41l8.44,0l0,17.86l-17.86,0l0,0l-13.28,0l-2.27,-2.27l0,0l-14,-14l0,0l-5.97,-5.97l19.77,-19.77l0,-14.68l-34.45,34.45l6.66,6.66l6.66,6.66l0,0l0.45,0.45l0.24,0.24l0,0l13.31,13.31l0,0l5.31,5.31l7.75,0l0.69,0.69l0,-0.69l8.17,0l0,8.45l0,0.97l0,9.41l18.83,0l0,0.68l0.68,-0.68l0.28,0l0,-0.28l9.41,-9.41l0,-37.37l8.44,0l0,37.05l3.69,-3.69l6.69,6.69l0,-40.06l47.07,0l0,-10.38l-47.06,0zm-10.39,-36.68l0,8.44l-8.44,0l0,-8.44l8.44,0zm-27.27,83.75l0,-8.44l8.44,0l0,8.44l-8.44,0zm-10.38,-46.1l0,8.44l-8.12,0l0,-8.44l8.12,0z" id="XMLID_1224_" fill="#000000"/>
   </g>
   <g id="XMLID_1216_">
    <path d="m322.65,248.93l-6.65,-6.65l0,0l-7.34,-7.34l0,0l-6.66,-6.66l-5.97,-5.97l0,0l6.31,-6.31l6.31,-6.31l0,0l0.34,-0.34l0.34,-0.34l0,0l6.31,-6.31l6.31,-6.31l0,0l0.34,-0.34l0.34,-0.34l0,0l6.66,-6.66l-7.34,-7.34l-6.66,6.66l0,0l-0.34,0.34l-0.34,0.34l0,0l-6.66,6.66l-5.97,5.97l-0.68,0.68l-5.97,5.97l-0.68,0.68l-5.97,5.97l0,0l-6.31,-6.31l-6.31,-6.31l0,0l-0.34,-0.34l-0.34,-0.34l0,0l-6.66,-6.66l-5.97,-5.97l-7.34,-7.34l-6.66,6.66l-0.68,0.68l-5.97,5.95l0,0l-6.31,-6.31l-7,-7l-6.66,6.66l-0.68,0.68l-5.97,5.97l-0.68,0.68l-6.66,6.66l6.66,6.66l0,0l0.34,0.34l0.34,0.34l0,0l6.31,6.31l6.31,6.31l0,0l6.66,6.66l-6.66,6.66l7.34,7.34l6.66,-6.66l0,0l7.34,-7.34l-6.66,-6.66l-0.68,-0.68l-5.97,-5.97l-0.68,-0.68l-5.97,-5.97l-6.66,-6.66l0,0l5.97,-5.97l5.97,5.97l0.68,0.68l5.97,5.97l0.68,0.68l5.97,5.97l0.68,0.68l6.66,6.66l7.34,-7.34l5.97,-5.97l0,0l6.31,6.31l6.31,6.31l0,0l-5.97,5.97l0,0l-6.66,-6.66l-7.34,7.34l6.66,6.66l-5.97,5.97l-6.66,-6.66l-7.34,7.34l0,0l-5.74,5.74l-0.48,-0.48l0,0.97l-0.2,0.2l0.2,0.2l0,12.91l-0.2,0.2l0.2,0.2l0,0.97l0.48,-0.48l5.97,5.97l-0.48,0.48l0.97,0l0.2,0.2l0.2,-0.2l12.46,0l0.43,0.43l0.43,-0.43l0.97,0l-0.48,-0.48l5.74,-5.74l7.34,-7.34l-6.66,-6.66l5.97,-5.97l5.97,5.97l0,0l0.46,0.46l0.23,0.23l0,0l5.97,5.97l-5.97,5.97l0,0l-6.66,6.66l0,0l-7.14,7.14l0,0l-2.25,2.25l-3.21,0l0,0l-9.41,0l-0.97,0l-8.44,0l-0.97,0l-8.44,0l0,-8.45l0,-0.97l0,-8.44l0,-0.97l0,-8.45l0.68,0l-0.68,-0.68l0,-0.28l-0.28,0l-10.1,-10.1l0,10.1l0,0.97l0,8.45l0,0.97l0,8.44l0,0.97l0,8.45l0,0.97l0,9.41l9.41,0l0.97,0l8.44,0l0.97,0l8.44,0l0.97,0l9.41,0l0,0l5.29,0l2.22,0l1.9,-1.9l3.58,-3.58l0.97,0l-0.49,-0.49l5.77,-5.77l5.97,5.97l0,0l7.34,7.34l7.34,-7.34l0,0l5.97,-5.97l0.48,0.48l0,-0.97l0.2,-0.2l-0.2,-0.2l0,-12.91l0.2,-0.2l-0.2,-0.2l0,-0.97l-0.48,0.48l-6.63,-6.65l-5.97,-5.97l-6.66,-6.66l0,0l-0.46,-0.46l-0.23,-0.23l0,0l-5.97,-5.97l5.97,-5.97l0,0l5.97,5.97l0.68,0.68l5.97,5.97l6.65,6.65l0,0l6.92,6.92l0,-5.22l4.69,0l1.37,0l3.41,0l-1.69,-1.68l0,0zm-27.3,25.94l-5.97,-5.97l5.97,-5.97l5.97,5.97l-5.97,5.97zm-39.94,-78.5l0,0l5.97,5.97l-5.97,5.97l-5.97,-5.97l5.97,-5.97zm0.23,64.96l0,0l-5.97,-5.97l5.74,-5.74l5.97,5.97l-5.74,5.74z" id="XMLID_1218_" fill="#000000"/>
    <rect height="10.38" width="10.38" transform="matrix(0.7071 -0.7071 0.7071 0.7071 -53.343 222.645)" y="170.53" x="236.91" id="XMLID_853_"/>
   </g>
   <g id="XMLID_1209_">
    <path d="m372.05,325.94l-0.68,-0.68l0,-0.28l-0.28,0l-9.13,-9.13l0,-0.28l-0.28,0l-0.68,-0.68l0,0.68l-8.44,0l-0.97,0l-8.44,0l-0.97,0l-8.44,0l-0.97,0l-8.44,0l0,-8.44l8.44,0l0.97,0l8.44,0l0.97,0l8.44,0l0,0l9.79,0l-3.69,-3.69l3.31,-3.31l3.38,-3.38l-2.41,0l-0.97,0l-8.44,0l0,0l-9.41,0l-0.97,0l-8.44,0l-0.97,0l-8.44,0l0,-8.44l0,-0.97l0,-8.45l0,-0.97l0,-8.44l0,-0.97l0,-8.45l0,-0.97l0,-9.41l-10.38,0l0,9.41l0,0.97l0,8.45l0,0.97l0,8.44l0,0.97l0,8.45l0,0.97l0,8.44l-8.44,0l-0.97,0l-8.45,0l-0.97,0l-8.45,0l-0.97,0l-8.44,0l-0.97,0l-9.41,0l0,9.41l0,0.97l0,8.44l-8.44,0l-0.97,0l-9.41,0l0,9.41l0,0.97l0,8.44l0,0.97l0,9.41l9.41,0l0.97,0l8.44,0l0.97,0l8.44,0l0.97,0l8.44,0l0,9.41l10.38,0l0,-9.41l0,-0.97l0,-9.41l-9.41,0l-0.97,0l-8.44,0l0,0l-9.41,0l-0.97,0l-8.44,0l0,-8.44l8.44,0l0.97,0l8.44,0l0.97,0l8.44,0l0.97,0l9.41,0l0,-9.41l0,0l0,-9.41l8.44,0l0.97,0l8.44,0l0,8.44l-9.41,0l0,10.38l9.41,0l0,8.44l-9.41,0l0,9.41l0,0.97l0,8.12l-0.68,0l0.68,0.68l0,0.6l0.6,0l8.81,8.81l0,0.28l0.28,0l0.68,0.68l0,-0.68l8.44,0l0,0.68l0.68,-0.68l0.28,0l0,-0.28l8.81,-8.81l0.61,0l0,-0.61l0.68,-0.68l-0.68,0l0,-8.12l0,-0.97l0,-9.41l-9.41,0l0,0l0,-8.44l8.44,0l0.97,0l8.44,0l0,8.44l0,0.97l0,8.45l0,0l0,10.09l0,0l0,3.18l-2.27,2.27l0,0l-7.11,7.11l-6.2,6.2l0,0l-6.66,6.66l0,0l-6.66,-6.66l-5.97,-5.97l-6.66,-6.66l0.48,-0.48l-0.97,0l-0.2,-0.2l-0.2,0.2l-14.28,0l7.14,7.14l0,0l0.45,0.45l0.24,0.24l0,0l6.66,6.66l6.66,6.66l0,0l5.97,5.97l0,0l7.34,7.34l7.11,-7.11l6.2,-6.2l0,0l6.66,-6.66l7.34,-7.34l0,0l5.31,-5.31l0,-2.69l0,-5.07l0.69,-0.69l-0.69,0l0,-8.17l0,0l8.44,0l0.97,0l9.41,0l0,-9.41l0,-0.97l0,-8.45l0.7,0l0,0.01zm-19.51,8.44l0,-8.44l8.44,0l0,8.45l-8.44,-0.01l0,0zm-37.65,18.51l0,-8.12l8.44,0l0,8.12l-8.44,0zm-29.21,-37.33l-8.44,0l0,-8.44l8.44,0l0,8.44z" id="XMLID_1211_" fill="#000000"/>
    <rect height="10.38" width="10.38" y="296.73" x="248.03" id="XMLID_848_"/>
   </g>
   <g id="XMLID_1202_">
    <rect height="10.38" width="10.38" transform="matrix(0.7071 -0.7071 0.7071 0.7071 -168.427 359.9623)" y="378.11" x="345.13" id="XMLID_847_"/>
    <path d="m462.58,357.33l0,-2.23l-1.9,-1.9l-3.58,-3.58l0,-0.97l-0.49,0.49l-5.77,-5.77l5.97,-5.97l0,0l0.34,-0.34l0.34,-0.34l0,0l6.66,-6.66l-7.34,-7.34l0,0l-5.97,-5.97l0.48,-0.48l-0.97,0l-0.2,-0.2l-0.2,0.2l-12.91,0l-0.2,-0.2l-0.2,0.2l-0.97,0l0.48,0.48l-5.97,5.97l-0.68,0.68l-5.97,5.97l-0.68,0.68l-5.97,5.97l-0.68,0.68l-5.97,5.97l-5.97,-5.97l0,0l6.66,-6.66l5.97,-5.97l6.65,-6.65l0,0l6.92,-6.92l-5.22,0l0,-4.69l0,-1.37l0,-3.41l-1.7,1.7l-0.68,0.68l-5.97,5.97l0,0l-6.66,6.66l-0.68,0.68l-5.97,5.97l-0.68,0.68l-5.97,5.97l-6.66,-6.66l-6.66,-6.66l0,0l-6.2,-6.2l-6.43,-6.43l0,0l-0.46,-0.46l-0.23,-0.23l0,0l-6.66,-6.66l-7.34,7.34l6.66,6.66l0,0l0.46,0.46l0.23,0.23l0,0l6.66,6.66l6.66,6.66l0,0l6.2,6.2l6.43,6.43l0,0l-5.97,5.97l-6.66,6.66l0,0l-6.66,6.66l-0.68,0.68l-6.66,6.66l0,0l-6.66,6.66l7.34,7.34l5.97,5.97l-5.97,5.97l-7.34,7.34l7.34,7.34l0,0l5.97,5.97l0.68,0.68l6.66,6.66l6.66,-6.66l0,0l7.34,-7.34l0,0l6.66,-6.66l5.97,-5.97l6.66,6.66l7.34,-7.34l-6.66,-6.66l-0.68,-0.68l-6.66,-6.66l-6.66,6.66l-6.66,6.66l0,0l-7.34,7.34l0,0l-5.97,5.97l-5.97,-5.97l0,0l5.97,-5.97l6.66,-6.66l0,0l6.66,-6.66l7.34,-7.34l-6.66,-6.66l0,0l-6.66,-6.66l5.97,-5.97l6.66,-6.66l0,0l5.97,5.97l-6.66,6.66l7.34,7.34l6.66,-6.66l5.97,5.97l0,0l-6.66,6.66l7.34,7.34l0,0l5.75,5.74l-0.48,0.48l0.97,0l0.43,0.43l0.43,-0.43l12.46,0l0.2,0.2l0.2,-0.2l0.97,0l-0.48,-0.48l5.97,-5.97l0.48,0.48l0,-0.97l0.2,-0.2l-0.2,-0.2l0,-12.46l0.43,-0.43l-0.43,-0.43l0,-0.97l-0.48,0.48l-5.74,-5.74l-0.68,-0.68l-6.66,-6.66l-6.66,6.66l0,0l-5.97,-5.97l5.97,-5.97l0,0l6.66,-6.66l5.97,5.97l0.68,0.68l5.97,5.97l0,0l7.14,7.14l0,0l2.25,2.25l0,3.21l0,0l0,9.41l0,1.03l0,8.45l0,0.97l0,8.44l-8.45,0l-0.97,0l-8.44,0l-0.97,0l-8.45,0l0,-0.68l-0.68,0.68l-0.28,0l0,0.28l-10.1,10.1l10.1,0l0.97,0l8.45,0l0.97,0l8.44,0l0.97,0l8.45,0l0.97,0l9.41,0l0,-9.41l0,-0.97l0,-8.44l0,-0.97l0,-8.45l0,-0.97l0,-9.41l0,0l0,-5.29l-0.04,0zm-85.64,18.63l0,0l-5.97,-5.97l0,0l5.97,-5.97l5.97,5.97l-5.97,5.97zm59,-6.2l0,0l-5.97,5.97l-5.74,-5.74l0,0l5.97,-5.97l5.74,5.74zm1.59,-39.71l0,0l5.97,-5.97l5.97,5.97l0,0l-5.97,5.97l-5.97,-5.97z" id="XMLID_1203_" fill="#000000"/>
   </g>
   <g id="XMLID_873_">
    <rect height="10.38" width="10.38" y="366.99" x="471.33" id="XMLID_876_"/>
    <path d="m568.6,305.48l-6.66,-6.66l0,0l-6.66,-6.66l0,0l-6.66,-6.66l0,0l-7.34,-7.34l0,0l-5.31,-5.31l-2.69,0l-5.07,0l-0.69,-0.69l0,0.69l-8.17,0l0,0l0,-8.44l0,-0.97l0,-9.41l-9.41,0l-0.97,0l-8.45,0l0,-0.68l-0.68,0.68l-0.28,0l0,0.28l-9.13,9.13l-0.28,0l0,0.28l-0.68,0.68l0.68,0l0,8.44l0,0.97l0,8.45l0,0.97l0,8.45l0,0.97l0,8.44l-8.44,0l0,-8.44l0,-0.97l0,-8.45l0,-0.97l0,-8.44l0,0l0,-9.79l-3.69,3.69l-3.31,-3.31l-3.38,-3.38l0,2.41l0,0.97l0,8.44l0,0l0,9.41l0,0.97l0,8.45l0,0.97l0,8.44l-8.44,0l-0.97,0l-8.45,0l-0.97,0l-8.44,0l-0.97,0l-8.45,0l-0.97,0l-9.41,0l0,10.38l9.41,0l0.97,0l8.45,0l0.97,0l8.44,0l0.97,0l8.45,0l0.97,0l8.44,0l0,8.44l0,0.97l0,8.45l0,0.97l0,8.44l0,0.97l0,8.45l0,0.97l0,9.41l9.41,0l0.97,0l8.44,0l0,8.45l0,0.97l0,9.41l9.41,0l0.97,0l8.44,0l0.97,0l9.41,0l0,-9.41l0,-0.97l0,-8.45l0,-0.97l0,-8.44l0,-0.97l0,-8.45l9.41,0l0,-10.38l-9.41,0l-0.97,0l-9.41,0l0,9.41l0,0.97l0,8.45l0,0l0,9.41l0,0.97l0,8.45l-8.44,0l0,-8.45l0,-0.97l0,-8.44l0,-0.97l0,-8.45l0,-0.97l0,-9.41l-9.41,0l-0.97,0l-8.44,0l0,-8.45l0,-0.97l0,-8.44l8.44,0l0,9.41l10.38,0l0,-9.41l8.44,0l0,9.41l9.08,0l1.31,0l8.12,0l0,0.68l0.68,-0.68l0.27,0l0,-0.27l9.15,-9.15l0.28,0l0,-0.28l0.68,-0.68l-0.68,0l0,-8.45l0.68,0l-0.68,-0.68l0,-0.28l-0.28,0l-8.81,-8.81l0,-0.61l-0.61,0l-0.68,-0.68l0,0.68l-8.12,0l-0.97,0l-9.41,0l0,9.41l0,0l-8.44,0l0,-8.44l0,-0.97l0,-8.45l8.44,0l0.97,0l8.45,0l0,0l10.09,0l0,0l3.18,0l2.27,2.27l0,0l6.66,6.66l0.68,0.68l5.97,5.97l0.68,0.68l5.97,5.97l-5.97,5.97l-0.68,0.68l-5.97,5.97l-0.68,0.68l-5.97,5.97l-0.48,-0.48l0,0.97l-0.2,0.2l0.2,0.2l0,14.28l7.14,-7.14l0,0l7.34,-7.34l0,0l5.97,-5.97l0,0l7.34,-7.34l0,0l6.66,-6.62zm-49.23,-3.41l8.12,0l0,8.45l-8.12,0l0,-8.45zm-29.21,46.09l-8.44,0l0,-8.45l8.44,0l0,8.45zm10.38,-83.75l8.45,0l0,8.44l0,0l-8.44,0l0,-8.44l-0.01,0z" id="XMLID_961_" fill="#000000"/>
   </g>
   <g id="XMLID_875_">
    <path d="m591.87,248.45l-6.66,-6.66l-0.68,-0.68l-6.66,-6.66l0,0l-6.43,-6.43l-6.2,-6.2l0,0l0,0l6.66,-6.66l-7.34,-7.34l-7.34,7.34l0,0l-6.66,6.66l6.66,6.66l0,0l6.66,6.66l0.68,0.68l6.66,6.66l0,0l5.97,5.97l-5.97,5.97l0,0l-5.97,-5.97l-0.68,-0.68l-5.97,-5.97l-0.68,-0.68l-5.97,-5.97l-0.68,-0.68l-6.66,-6.66l-6.66,6.66l0,0l-6.66,6.66l-5.97,-5.97l-0.68,-0.68l-5.97,-5.97l0,0l5.97,-5.97l6.66,6.66l7.34,-7.34l-6.66,-6.66l0,0l5.97,-5.97l0,0l6.66,6.66l6.3,-6.3l0.13,0.13l6.78,-6.78l0.36,0.36l0,-0.72l0.2,-0.2l-0.2,-0.2l0,-13.16l0.2,-0.2l-0.2,-0.2l0,-0.97l-0.48,0.48l-5.97,-5.97l0.48,-0.48l-0.97,0l-0.2,-0.2l-0.2,0.2l-12.46,0l-0.43,-0.43l-0.43,0.43l-0.97,0l0.48,0.48l-6.43,6.43l-6.66,6.66l6.66,6.66l0,0l-5.97,5.97l-5.97,-5.97l-6.66,-6.66l6.66,-6.66l0,0l5.97,-5.97l0,0l7.14,-7.14l0,-0.01l2.25,-2.25l3.21,0l0,0l9.41,0l0.97,0l8.45,0l0.97,0l8.44,0l0,8.44l0,0.97l0,8.44l0,0.97l0,8.44l-0.68,0l0.68,0.68l0,0.28l0.28,0l10.1,10.1l0,-10.1l0,-0.97l0,-8.44l0,-0.97l0,-8.44l0,-0.97l0,-8.44l0,-0.97l0,-9.41l-9.41,0l-0.97,0l-8.44,0l-0.97,0l-8.45,0l-0.97,0l-9.41,0l0,0l-5.29,0l-2.23,0l-1.9,1.9l-3.58,3.58l-0.97,0l0.49,0.49l-5.77,5.77l-5.97,-5.97l0,0l-0.23,-0.23l-0.46,-0.46l0,0l-6.66,-6.66l-7.34,7.34l0,0l-5.97,5.97l-0.48,-0.48l0,0.97l-0.2,0.2l0.2,0.2l0,12.91l-0.2,0.2l0.2,0.2l0,0.97l0.48,-0.48l5.97,5.97l6.66,6.66l0,0l0.23,0.23l0.46,0.46l0,0l6.66,6.66l5.97,5.97l0,0l-5.97,5.97l-6.66,-6.66l-5.97,-5.97l-6.65,-6.65l0,0l-6.92,-6.92l0,5.22l-4.69,0l-1.37,0l-3.41,0l2.39,2.39l5.97,5.97l0,0l6.66,6.66l6.66,6.66l0,0l6.66,6.66l-5.97,5.97l-0.68,0.68l-5.97,5.97l-0.68,0.68l-5.97,5.97l-6.66,6.66l0,0l-0.34,0.34l-0.34,0.34l0,0l-6.66,6.66l7.34,7.34l6.66,-6.66l0,0l0.34,-0.34l0.34,-0.34l0,0l6.66,-6.66l5.97,-5.97l0.68,-0.68l5.97,-5.97l6.66,-6.66l0,0l5.97,5.97l0.68,0.68l5.97,5.97l0.68,0.68l5.97,5.97l6.66,6.66l0,0l0.34,0.34l0.34,0.34l0,0l6.66,6.66l7.34,-7.34l0,0l5.97,-5.97l5.97,5.97l0,0l7.34,7.34l6.66,-6.66l0,0l0.34,-0.34l0.34,-0.34l0,0l6.66,-6.66l6.63,-6.68zm-93.19,-66.56l5.97,-5.97l0,0l5.97,5.97l-5.97,5.97l-5.97,-5.97l0,0zm51.78,13.67l-5.74,5.74l-6.1,-6.1l5.75,-5.74l5.97,5.97l0,0l0.12,0.13zm-5.87,58.86l-5.97,-5.97l5.97,-5.97l0,0l5.97,5.97l-5.97,5.97l0,0z" id="XMLID_877_" fill="#000000"/>
    <rect height="10.38" width="10.38" transform="matrix(0.7071 -0.7071 0.7071 0.7071 -31.1033 475.0653)" y="269.89" x="552.71" id="XMLID_470_"/>
   </g>
  </g>
 </g>
</svg>