<svg width="800" height="500" xmlns="http://www.w3.org/2000/svg" xml:space="preserve" version="1.1">

 <g>
  <title>Layer 1</title>
  <path display="none" d="m258.58,120.96l0,-53.35l-2.36,0l0,53.35l-9.58,9.57l9.58,9.58l0,58.78l2.36,0l0,-58.79l9.57,-9.58l-9.57,-9.56zm-1.18,16.57l-1.18,-1.18l-5.82,-5.82l5.82,-5.82l1.18,-1.18l1.18,1.18l5.82,5.82l-5.82,5.82l-1.18,1.18z" class="st0" id="XMLID_935_" fill="#000000"/>
  <path display="none" d="m256.2,428l0,26.9l2.36,0l0,-26.9l9.58,-9.57l-9.58,-9.58l0,-58.78l-2.36,0l0,58.78l-9.57,9.58l9.57,9.57zm1.18,-16.57l1.18,1.18l5.82,5.82l-5.82,5.82l-1.18,1.18l-1.18,-1.18l-5.82,-5.82l5.82,-5.82l1.18,-1.18z" class="st0" id="XMLID_932_" fill="#000000"/>
  <g id="XMLID_1177_">
   <g id="XMLID_1184_">
    <path d="m506.39,372.84c-6.12,-5.33 -13.87,-8.6 -21.22,-11.83c-5.34,-2.34 -21.6,-6.56 -22.4,-14.1c-0.6,-5.59 3.86,-12.22 6.02,-17.1c2.95,-6.7 5.63,-13.6 6.46,-20.92c1.02,-9 -1.22,-17.91 -4.66,-26.17c-9.59,-22.97 -24.83,-43.35 -35.89,-65.64c-18.1,-36.47 -32.85,-76.28 -34.76,-116.79c0.11,-1.28 -1.09,-10.96 -1.09,-10.96s-1.95,9.67 -1.89,10.95c-3.98,46.56 -22.93,90.54 -45.22,131.67c-11.88,21.92 -31.67,46.19 -31.38,72.37c0.11,9.59 14.99,9.61 14.89,0c-0.11,-10.43 4.5,-20.07 9.23,-29.12c7.26,-13.87 15.59,-27.16 22.93,-40.99c13.7,-25.8 23.62,-46.92 30.16,-74.92c4.36,21.08 10.82,35.71 19.72,55.67c10.86,24.38 26.63,45.99 38.1,69.99c3.44,7.19 5.73,14.85 5.08,22.87c-1.09,13.39 -11.35,24.3 -12.6,37.73c-0.54,5.83 1.62,10.51 5.21,14.35c-1.03,1.16 -1.75,2.69 -1.87,4.64c-0.07,1.16 -0.07,2.29 -0.03,3.4c-0.17,9.31 -1.31,20.24 -9.16,26.02c-10.49,7.71 -20.42,2.77 -29.28,-3.72c9.36,-3.87 18.02,-7.78 20.94,-20.31c2.77,-11.86 -3.31,-21.37 -12.62,-26.31c10.06,-16.84 12.31,-35.19 6.48,-55.18c-2.94,-10.08 -7.74,-19.65 -12.29,-29.07c-3.68,-7.61 -17.24,-31.64 -17.24,-31.64s-11.18,22.92 -14.64,29.98c-4.85,9.91 -9.78,19.74 -13.41,30.18c-6.83,19.62 -4.74,38.62 5.08,55.62c-8.84,4.6 -14.5,13.33 -12.93,24.74c1.84,13.38 11.08,17.87 21.06,22.09c-8.51,6.27 -16.62,10.26 -27.52,4.64c-9.34,-4.82 -10.63,-17.28 -10.82,-27.07c0.03,-1.1 0.03,-2.22 -0.04,-3.37c-0.12,-2.06 -0.92,-3.66 -2.05,-4.84c2.35,-2.68 4.14,-5.8 4.98,-9.43c2.08,-8.97 -3.21,-18.12 -6.75,-25.98c-3.94,-8.74 -16.77,-1.16 -12.86,7.51c2.9,6.43 8.11,13.77 1.98,19.56c-8.45,7.98 -22.85,10.67 -32.99,16.29c-15.39,8.52 -17.43,21.49 -17.92,37.77c-0.15,4.91 4.86,8.38 9.42,7.18c14.84,-3.89 33.94,-9.98 45.63,-21.44c2.74,6.63 7.09,12.46 13.9,16.67c18.25,11.29 34.45,1.44 49.19,-9.69c0.22,-0.17 0.45,-0.32 0.67,-0.49c0.24,0.16 0.48,0.32 0.71,0.49c7.15,5.13 13.32,10.67 21.77,13.64c8.21,2.88 18.01,0.21 25.65,-3.03c7.97,-3.38 12.84,-9.88 15.79,-17.46c11.7,11.39 30.72,17.44 45.51,21.32c4.57,1.2 9.57,-2.27 9.42,-7.18c-0.38,-12.11 -0.68,-24.07 -10.45,-32.59zm-212.09,22.79c0.33,-3.81 1.21,-7.49 3.64,-10.23c7.03,-7.92 20.39,-11.46 29.72,-15.5c0.68,-0.3 1.37,-0.61 2.05,-0.94c-2.15,15.12 -20.35,22.32 -35.41,26.67zm92.26,-40.65c6.8,-0.71 9.4,-7.42 5.26,-12.71c-15.28,-19.52 -12.38,-41 -2.79,-62.28c2.91,-6.45 6.67,-13.02 9.91,-19.78c3.13,6.75 6.72,13.33 9.64,19.87c9.56,21.4 10.83,43.03 -4.4,62.19c-4.19,5.27 -1.5,12 5.26,12.71c8.93,0.94 12.98,9.99 7.1,17.05c-3.56,4.26 -9.34,4.55 -14.24,6.23c-1.54,0.53 -3.02,1.18 -4.47,1.92c-0.78,-0.4 -1.55,-0.81 -2.37,-1.16c-4.84,-2.11 -10.48,-2.22 -14.68,-5.66c-7.8,-6.41 -3.78,-17.38 5.78,-18.38zm79.73,14.01c5.91,2.92 12.09,5.17 16.65,7.23c5.63,2.55 12.88,5.49 16.42,10.88c1.56,2.38 2.16,5.41 2.4,8.54c-15.05,-4.33 -33.29,-11.53 -35.47,-26.65z" id="XMLID_1221_" fill="#000000"/>
    <g id="XMLID_1206_">
     <ellipse ry="21.66" rx="21.66" cy="334.46" cx="293.55" transform="matrix(0.0453 -0.999 0.999 0.0453 -53.8677 612.5543)" id="XMLID_1169_"/>
     <ellipse ry="21.66" rx="21.66" cy="291.14" cx="293.55" transform="matrix(0.0453 -0.999 0.999 0.0453 -10.5902 571.1954)" id="XMLID_1168_"/>
     <rect height="161.07" width="3.23" y="194.71" x="291.93" id="XMLID_1167_"/>
     <circle r="6.6" cy="239.78" cx="293.55" id="XMLID_1166_"/>
     <g id="XMLID_1207_">
      <path d="m294.28,198.01l-11.55,-4.18l-5.21,-11.12l4.18,-11.55l11.12,-5.21l11.55,4.18l5.21,11.12l-4.18,11.55l-11.12,5.21zm-8.65,-7.35l8.46,3.06l8.15,-3.82l3.06,-8.46l-3.82,-8.15l-8.46,-3.06l-8.15,3.82l-3.06,8.46l3.82,8.15z" id="XMLID_1208_" fill="#000000"/>
     </g>
    </g>
    <g id="XMLID_1194_">
     <ellipse ry="21.66" rx="21.66" cy="312.8" cx="506.45" transform="matrix(0.0453 -0.999 0.999 0.0453 171.021 804.5534)" id="XMLID_1162_"/>
     <rect height="161.07" width="3.23" y="194.71" x="504.83" id="XMLID_1161_"/>
     <circle r="6.6" cy="239.78" cx="506.45" id="XMLID_1160_"/>
     <g id="XMLID_1196_">
      <path d="m507.18,198.01l-11.55,-4.18l-5.21,-11.12l4.18,-11.55l11.12,-5.21l11.55,4.18l5.21,11.12l-4.18,11.55l-11.12,5.21zm-8.66,-7.35l8.46,3.06l8.15,-3.82l3.06,-8.46l-3.82,-8.15l-8.46,-3.06l-8.15,3.82l-3.06,8.46l3.82,8.15z" id="XMLID_1197_" fill="#000000"/>
     </g>
    </g>
    <g id="XMLID_1185_">
     <rect height="97.26" width="3.23" y="56.77" x="396.75" id="XMLID_1156_"/>
     <circle r="6.6" cy="101.84" cx="398.37" id="XMLID_1155_"/>
     <g id="XMLID_1187_">
      <path d="m399.1,60.07l-11.55,-4.18l-5.21,-11.12l4.18,-11.55l11.12,-5.22l11.55,4.18l5.21,11.12l-4.18,11.55l-11.12,5.22zm-8.65,-7.36l8.46,3.06l8.15,-3.82l3.06,-8.46l-3.82,-8.15l-8.46,-3.06l-8.15,3.82l-3.06,8.46l3.82,8.15z" id="XMLID_1188_" fill="#000000"/>
     </g>
    </g>
   </g>
   <g id="XMLID_1178_">
    <path d="m453.08,359.89c0,0 6.66,6.12 13.21,9.1c0.88,3.61 0.77,5.53 3.54,8.84c2.77,3.31 -8.37,7.52 -8.37,7.52s-12.45,0.29 -11.62,-4.5s1.05,-10.91 1.19,-12.87c0.14,-1.96 0.27,-4.18 0.55,-5.45c0.28,-1.26 1.5,-2.64 1.5,-2.64z" id="XMLID_1149_" fill="#000000"/>
    <path d="m342.91,359.89c0,0 -6.66,6.12 -13.21,9.1c-0.88,3.61 -0.77,5.53 -3.54,8.84c-2.77,3.31 8.37,7.52 8.37,7.52s12.45,0.29 11.62,-4.5c-0.83,-4.79 -1.05,-10.91 -1.19,-12.87c-0.14,-1.96 -0.27,-4.18 -0.55,-5.45c-0.29,-1.26 -1.5,-2.64 -1.5,-2.64z" id="XMLID_1148_" fill="#000000"/>
    <path d="m383.16,390.33c0,0 3.44,-0.99 14.83,7.32c-3.34,2.47 -12,8.28 -12,8.28l-12.3,-9.93c0,0 2.63,-1.14 4.77,-2.53s4.7,-3.14 4.7,-3.14z" id="XMLID_1147_" fill="#000000"/>
    <path d="m412.83,390.33c0,0 -3.44,-0.99 -14.83,7.32c3.34,2.47 12,8.28 12,8.28l12.3,-9.93c0,0 -2.63,-1.14 -4.77,-2.53s-4.7,-3.14 -4.7,-3.14z" id="XMLID_1143_" fill="#000000"/>
   </g>
  </g>
 </g>
</svg>