<svg width="800" height="500" xmlns="http://www.w3.org/2000/svg" xml:space="preserve" version="1.1">

 <g>
  <title>Layer 1</title>
  <path display="none" d="m258.58,120.96l0,-53.35l-2.36,0l0,53.35l-9.58,9.57l9.58,9.58l0,58.78l2.36,0l0,-58.79l9.57,-9.58l-9.57,-9.56zm-1.18,16.57l-1.18,-1.18l-5.82,-5.82l5.82,-5.82l1.18,-1.18l1.18,1.18l5.82,5.82l-5.82,5.82l-1.18,1.18z" class="st0" id="XMLID_935_" fill="#000000"/>
  <path display="none" d="m256.2,428l0,26.9l2.36,0l0,-26.9l9.58,-9.57l-9.58,-9.58l0,-58.78l-2.36,0l0,58.78l-9.57,9.58l9.57,9.57zm1.18,-16.57l1.18,1.18l5.82,5.82l-5.82,5.82l-1.18,1.18l-1.18,-1.18l-5.82,-5.82l5.82,-5.82l1.18,-1.18z" class="st0" id="XMLID_932_" fill="#000000"/>
  <g id="XMLID_1050_">
   <g id="XMLID_1146_">
    <polygon points="428.77,369.23 428.77,369.24 428.76,369.23   " id="XMLID_1048_"/>
    <path d="m471.91,297.31l-14.39,-14.36l-14.37,-14.4l28.76,-28.76l-14.39,-14.37l-28.76,-28.78l-27.84,-27.83l-0.93,-0.93l-0.92,0.92l-13.45,13.46l-14.39,14.37l-43.14,43.16l14.37,14.39l0.01,0l14.37,14.37l-22.43,22.45l28.74,0l4.67,-4.66l3.4,-3.39l7.19,7.18l7.19,7.18l0,0.01l-14.37,14.39l-0.01,0l0,-0.01l-5.11,-5.09l-2.97,-2.97l-28.77,0l8.08,8.08l0.01,0l14.37,14.37l-14.37,14.39l-14.39,14.39l14.39,14.37l14.37,14.39l14.4,14.37l22.46,-22.46l0,-41.36l-8.08,-8.09l14.37,-14.37l14.39,14.37l0.01,0l0,0.01l-0.01,0l-8.06,8.06l0,41.42l8.06,8.04l14.4,14.38l14.39,-14.39l14.37,-14.39l14.39,-14.37l-14.37,-14.39l-14.39,-14.39l14.37,-14.39l14.38,-14.37zm-43.14,43.17l14.39,14.37l-14.39,14.37l0,0.01l-0.01,0l-14.36,-14.37l14.37,-14.38zm-71.92,14.37l14.39,-14.39l14.37,14.37l0.01,0.01l0,0.01l-14.37,14.36l-14.4,-14.36zm71.92,-129.43l14.39,14.37l-14.39,14.39l-14.39,-14.39l-14.39,-14.37l-14.37,14.37l-14.39,14.39l-14.39,-14.39l14.39,-14.37l14.39,-14.4l14.37,-14.39l14.39,14.39l14.39,14.4zm-14.39,43.13l-14.37,14.39l-0.01,0l-14.37,-14.39l14.39,-14.37l14.36,14.37zm0,28.76l14.39,-14.37l14.39,14.37l0,0.01l-14.39,14.37l-14.39,-14.37l0,-0.01z" id="XMLID_1152_" fill="#000000"/>
    <rect height="0.01" width="0.01" y="326.08" x="414.38" id="XMLID_1041_"/>
    <rect height="20.34" width="20.34" transform="matrix(0.7071 -0.7071 0.7071 0.7071 -88.143 439.3709)" y="315.91" x="476.13" id="XMLID_1040_"/>
    <rect height="20.34" width="20.34" transform="matrix(0.7071 -0.7071 0.7071 0.7071 -148.8625 321.5417)" y="330.29" x="303.53" id="XMLID_1039_"/>
    <rect height="20.34" width="20.34" transform="matrix(0.7071 -0.7071 0.7071 0.7071 -128.5257 313.1179)" y="301.53" x="303.53" id="XMLID_1038_"/>
    <polygon points="428.77,369.23 428.77,369.24 428.76,369.23   " id="XMLID_1037_"/>
   </g>
   <g id="XMLID_1130_">
    <polygon points="428.77,369.23 428.77,369.24 428.76,369.23   " id="XMLID_1036_"/>
    <polygon points="430.53,383.61 429.46,384.69 428.77,385.39 406.32,362.95 406.32,359.41   " id="XMLID_1035_"/>
    <polygon points="393.7,359.4 393.7,362.92 379.31,377.32 371.23,385.39 363.16,377.31 348.78,362.92     340.7,354.85 371.39,324.18 372.04,323.53 377.55,318.02 391.93,303.63 393.69,305.39 373.8,325.29 344.24,354.85 371.25,381.84     377.54,375.55   " id="XMLID_1034_"/>
    <polygon points="393.7,346.8 393.7,350.32 391.93,348.55 377.54,334.16 377.54,334.15 379.31,332.39     393.69,346.79   " id="XMLID_1033_"/>
    <polygon points="379.31,274.87 377.57,276.66 420.69,319.78 422.46,318.01   " id="XMLID_1032_"/>
    <polygon points="459.29,239.79 451.22,231.72 400,180.5 391.93,188.57 340.7,239.79 363.15,262.25     364.93,260.48 344.23,239.79 364.93,219.11 399.99,184.02 420.69,204.72 435.07,219.1 455.77,239.79 406.31,289.25 408.07,291.01       " id="XMLID_1031_"/>
    <polygon points="422.45,260.49 421.75,261.2 420.69,262.25 400.01,241.57 364.93,276.63 350.54,291.01     347.02,291.01 363.17,274.87 391.93,246.1 399.99,238.03 408.07,246.1   " id="XMLID_1030_"/>
    <polygon points="459.3,297.32 422.46,334.17 406.32,350.31 406.32,346.76 428.77,324.32 455.76,297.31     449.46,291.02 435.07,276.63 436.12,275.58 436.84,274.87 451.22,289.26   " id="XMLID_1029_"/>
    <polygon points="436.84,332.4 435.07,334.17 455.77,354.85 428.63,381.98 429.46,384.69 451.22,362.92     459.29,354.85   " id="XMLID_1028_"/>
    <polygon points="364.93,318.01 363.16,319.78 348.78,305.4 347.01,303.63 350.54,303.63   " id="XMLID_1027_"/>
    <rect height="0.01" width="0.01" y="326.08" x="414.38" id="XMLID_1026_"/>
    <rect height="2.5" width="2.5" transform="matrix(0.7071 -0.7071 0.7071 0.7071 -88.143 439.3711)" y="324.84" x="485.05" id="XMLID_1025_"/>
    <rect height="2.5" width="2.5" transform="matrix(0.7071 -0.7071 0.7071 0.7071 -148.8626 321.5417)" y="339.22" x="312.46" id="XMLID_1024_"/>
    <rect height="2.5" width="2.5" transform="matrix(0.7071 -0.7071 0.7071 0.7071 -128.5258 313.1179)" y="310.45" x="312.46" id="XMLID_1023_"/>
    <polygon points="428.77,369.23 428.77,369.24 428.76,369.23   " id="XMLID_1022_"/>
   </g>
   <g id="XMLID_1115_">
    <polygon points="399.99,311.71 380.11,331.6 373.8,325.29 372.04,323.53 365.72,317.21 371.23,311.71     371.23,311.7 385.62,297.32 393.69,305.39   " id="XMLID_1021_"/>
    <rect height="20.34" width="30.75" transform="matrix(0.7071 -0.7071 0.7071 0.7071 -75.0189 377.4084)" y="269.09" x="402.69" id="XMLID_1020_"/>
    <polygon points="393.7,334.17 393.7,346.76 393.69,346.79 391.93,348.55 385.62,354.85 385.61,354.84     371.23,340.47 385.62,326.08   " id="XMLID_1019_"/>
    <polygon points="393.7,334.19 393.7,375.54 385.61,383.61 379.31,377.32 377.54,375.55 371.23,369.24     371.25,369.23 385.61,354.84 371.23,340.47 385.61,326.1   " id="XMLID_1018_"/>
    <polygon points="414.39,354.87 428.75,369.24 422.46,375.55 420.69,377.31 414.38,383.61 406.32,375.57     406.32,334.15 414.38,326.1 428.75,340.47 414.38,354.84   " id="XMLID_1017_"/>
    <rect height="20.34" width="20.34" transform="matrix(0.7071 -0.7071 0.7071 0.7071 -70.2738 396.2242)" y="272.77" x="432.98" id="XMLID_1016_"/>
    <rect height="20.34" width="20.34" transform="matrix(0.7071 -0.7071 0.7071 0.7071 -58.3588 367.4589)" y="244" x="404.21" id="XMLID_1015_"/>
    <rect height="20.34" width="20.34" transform="matrix(0.7071 -0.7071 0.7071 0.7071 -75.2092 326.7785)" y="244" x="346.68" id="XMLID_1014_"/>
    <rect height="20.34" width="20.34" transform="matrix(0.7071 -0.7071 0.7071 0.7071 -110.9542 413.0746)" y="330.3" x="432.98" id="XMLID_1013_"/>
    <rect height="29.26" width="20.34" transform="matrix(0.7071 -0.7071 0.7071 0.7071 -88.4306 358.6979)" y="271.46" x="378.6" id="XMLID_1012_"/>
    <polygon points="428.77,311.71 422.46,318.02 420.69,319.78 414.39,326.08 414.38,326.08 399.99,311.71     393.69,305.39 393.57,305.27 399.88,298.97 401.65,297.21 407.96,290.9 414.38,297.32   " id="XMLID_1011_"/>
    <polygon points="371.23,311.71 365.72,317.21 364.93,318.01 356.85,326.08 342.48,311.71 342.48,311.7     348.78,305.4 350.54,303.63 363.16,303.63   " id="XMLID_1010_"/>
    <polygon points="371.23,282.94 371.23,282.95 367.83,286.34 363.18,291.01 334.42,291.01 356.85,268.55     363.17,274.87 364.93,276.63   " id="XMLID_1009_"/>
    <polygon points="371.23,311.7 371.23,311.71 365.72,317.21 364.93,318.01 356.85,326.08 342.48,311.71     342.48,311.7 334.42,303.63 363.18,303.63   " id="XMLID_1008_"/>
   </g>
   <g id="XMLID_1051_">
    <g id="XMLID_1094_">
     <path d="m400.93,21l0,23.54c-0.32,-0.03 -0.62,-0.05 -0.94,-0.05c-0.3,0 -0.62,0.03 -0.92,0.05l0,-23.54l1.86,0z" id="XMLID_1007_" fill="#000000"/>
     <path d="m400.93,64.37l0,2.02c-0.32,0.05 -0.62,0.05 -0.94,0.05c-0.3,0 -0.62,0 -0.92,-0.03l0,-2.05c0.3,0.03 0.62,0.05 0.92,0.05c0.32,0.02 0.62,-0.01 0.94,-0.04z" id="XMLID_1006_" fill="#000000"/>
     <path d="m400.93,66.05l0,19.22c-0.32,-0.05 -0.62,-0.05 -0.94,-0.05c-0.3,0 -0.62,0 -0.92,0.05l0,-19.22c0.3,0.03 0.62,0.05 0.92,0.05c0.32,0.01 0.62,-0.02 0.94,-0.05z" id="XMLID_1005_" fill="#000000"/>
     <path d="m400.93,107.12l0,12.64c-0.32,-0.05 -0.62,-0.05 -0.94,-0.05c-0.3,0 -0.62,0 -0.92,0.05l0,-12.64c0.3,0.05 0.62,0.05 0.92,0.05c0.32,0.01 0.62,0.01 0.94,-0.05z" id="XMLID_1004_" fill="#000000"/>
     <path d="m400.93,176.58l0,-23.85c-0.32,0.05 -0.62,0.05 -0.94,0.05c-0.3,0 -0.62,0 -0.92,-0.05l0,23.85l1.86,0z" id="XMLID_1003_" fill="#000000"/>
     <g id="XMLID_1101_">
      <path d="m390.5,57.5c-0.59,0.37 -1.14,0.84 -1.68,1.35c1.64,4.17 5.58,7.22 10.25,7.57l0,-2.05c-4.04,-0.35 -7.39,-3.12 -8.57,-6.87zm0,0c-0.59,0.37 -1.14,0.84 -1.68,1.35c1.64,4.17 5.58,7.22 10.25,7.57l0,-2.05c-4.04,-0.35 -7.39,-3.12 -8.57,-6.87zm10.43,-14.98c-0.31,-0.06 -0.62,-0.06 -0.94,-0.06c-0.29,0 -0.62,0 -0.91,0.02c-6.19,0.5 -11.08,5.67 -11.08,11.98c0,0.75 0.08,1.5 0.21,2.2c0.14,0.76 0.35,1.48 0.62,2.19c1.64,4.17 5.58,7.22 10.25,7.57c0.29,0.02 0.62,0.02 0.91,0.02c0.33,0 0.63,0 0.94,-0.05c4.66,-0.35 8.57,-3.37 10.21,-7.54c0.28,-0.71 0.49,-1.43 0.63,-2.19c0.13,-0.7 0.21,-1.46 0.21,-2.2c0,-6.28 -4.87,-11.48 -11.05,-11.94zm8.97,12.83c-0.06,0.76 -0.19,1.46 -0.43,2.16c-1.19,3.72 -4.52,6.49 -8.55,6.87c-0.31,0.03 -0.62,0.06 -0.94,0.06c-0.29,0 -0.62,-0.02 -0.91,-0.06c-4.05,-0.35 -7.39,-3.12 -8.57,-6.87c-0.24,-0.7 -0.38,-1.4 -0.43,-2.16c-0.06,-0.29 -0.06,-0.59 -0.06,-0.89c0,-5.21 3.99,-9.47 9.06,-9.92c0.29,-0.02 0.62,-0.06 0.91,-0.06c0.33,0 0.63,0.03 0.94,0.06c5.07,0.45 9.03,4.74 9.03,9.92c0.01,0.29 0.01,0.59 -0.05,0.89zm-19.4,2.15c-0.59,0.37 -1.14,0.84 -1.68,1.35c1.64,4.17 5.58,7.22 10.25,7.57l0,-2.05c-4.04,-0.35 -7.39,-3.12 -8.57,-6.87zm0,0c-0.59,0.37 -1.14,0.84 -1.68,1.35c1.64,4.17 5.58,7.22 10.25,7.57l0,-2.05c-4.04,-0.35 -7.39,-3.12 -8.57,-6.87z" id="XMLID_1102_" fill="#000000"/>
     </g>
     <path d="m410.98,96.18c0,5.74 -4.42,10.48 -10.05,10.94c-0.32,0.05 -0.62,0.05 -0.94,0.05c-0.3,0 -0.62,0 -0.92,-0.05c-5.63,-0.46 -10.05,-5.17 -10.05,-10.94c0,-5.77 4.42,-10.46 10.05,-10.92c0.3,-0.05 0.62,-0.05 0.92,-0.05c0.32,0 0.62,0 0.94,0.05c5.63,0.47 10.05,5.18 10.05,10.92z" id="XMLID_993_" fill="#000000"/>
     <g id="XMLID_1095_">
      <path d="m400.93,117.74c-0.29,-0.05 -0.62,-0.05 -0.94,-0.05c-0.29,0 -0.62,0 -0.91,0.05c-9.78,0.47 -17.63,8.6 -17.63,18.52c0,9.89 7.85,18.02 17.63,18.49c0.29,0.05 0.62,0.05 0.91,0.05c0.33,0 0.65,0 0.94,-0.05c9.82,-0.47 17.63,-8.6 17.63,-18.49c-0.01,-9.92 -7.82,-18.06 -17.63,-18.52zm0,34.98c-0.31,0.06 -0.62,0.06 -0.94,0.06c-0.29,0 -0.62,0 -0.91,-0.06c-8.68,-0.45 -15.61,-7.65 -15.61,-16.46s6.92,-16.04 15.61,-16.5c0.29,-0.06 0.62,-0.06 0.91,-0.06c0.33,0 0.63,0 0.94,0.06c8.68,0.45 15.61,7.71 15.61,16.5c0,8.78 -6.93,16.01 -15.61,16.46z" id="XMLID_1096_" fill="#000000"/>
     </g>
    </g>
    <g id="XMLID_1073_">
     <path d="m486.75,164.65l0,70.01c-0.16,-0.01 -0.3,-0.03 -0.46,-0.03c-0.14,0 -0.3,0.01 -0.45,0.03l0,-70.01l0.91,0z" id="XMLID_988_" fill="#000000"/>
     <path d="m486.75,244.32l0,0.98c-0.16,0.03 -0.3,0.03 -0.46,0.03c-0.14,0 -0.3,0 -0.45,-0.01l0,-1c0.14,0.01 0.3,0.03 0.45,0.03c0.16,0 0.3,-0.01 0.46,-0.03z" id="XMLID_982_" fill="#000000"/>
     <path d="m486.75,245.14l0,9.36c-0.16,-0.03 -0.3,-0.03 -0.46,-0.03c-0.14,0 -0.3,0 -0.45,0.03l0,-9.36c0.14,0.01 0.3,0.03 0.45,0.03c0.16,0 0.3,-0.02 0.46,-0.03z" id="XMLID_980_" fill="#000000"/>
     <path d="m486.75,265.15l0,6.16c-0.16,-0.03 -0.3,-0.03 -0.46,-0.03c-0.14,0 -0.3,0 -0.45,0.03l0,-6.16c0.14,0.03 0.3,0.03 0.45,0.03c0.16,-0.01 0.3,-0.01 0.46,-0.03z" id="XMLID_978_" fill="#000000"/>
     <path d="m486.75,315.24l0,-27.89c-0.16,0.03 -0.3,0.03 -0.46,0.03c-0.14,0 -0.3,0 -0.45,-0.03l0,27.89l0.91,0z" id="XMLID_975_" fill="#000000"/>
     <g id="XMLID_1080_">
      <path d="m481.67,240.97c-0.29,0.19 -0.55,0.41 -0.82,0.66c0.8,2.03 2.72,3.52 4.99,3.68l0,-0.99c-1.97,-0.17 -3.59,-1.52 -4.17,-3.35zm0,0c-0.29,0.19 -0.55,0.41 -0.82,0.66c0.8,2.03 2.72,3.52 4.99,3.68l0,-0.99c-1.97,-0.17 -3.59,-1.52 -4.17,-3.35zm5.08,-7.3c-0.16,-0.02 -0.3,-0.02 -0.47,-0.02c-0.14,0 -0.29,0 -0.44,0.01c-3.01,0.24 -5.4,2.76 -5.4,5.83c0,0.37 0.05,0.73 0.1,1.08c0.07,0.36 0.17,0.71 0.3,1.06c0.8,2.03 2.72,3.52 4.99,3.68c0.15,0.01 0.3,0.01 0.44,0.01c0.16,0 0.3,0 0.47,-0.02c2.27,-0.17 4.17,-1.64 4.98,-3.67c0.13,-0.35 0.23,-0.7 0.3,-1.06c0.06,-0.35 0.1,-0.71 0.1,-1.08c0.02,-3.05 -2.36,-5.58 -5.37,-5.82zm4.37,6.25c-0.02,0.37 -0.09,0.71 -0.21,1.05c-0.58,1.82 -2.2,3.17 -4.16,3.36c-0.16,0.01 -0.3,0.02 -0.47,0.02c-0.14,0 -0.29,-0.01 -0.44,-0.02c-1.97,-0.17 -3.59,-1.53 -4.17,-3.36c-0.12,-0.34 -0.19,-0.68 -0.21,-1.05c-0.02,-0.14 -0.02,-0.28 -0.02,-0.43c0,-2.53 1.94,-4.6 4.41,-4.83c0.15,-0.01 0.3,-0.02 0.44,-0.02c0.16,0 0.3,0.01 0.47,0.02c2.47,0.22 4.39,2.31 4.39,4.83c0,0.15 0,0.29 -0.03,0.43zm-9.45,1.05c-0.29,0.19 -0.55,0.41 -0.82,0.66c0.8,2.03 2.72,3.52 4.99,3.68l0,-0.99c-1.97,-0.17 -3.59,-1.52 -4.17,-3.35zm0,0c-0.29,0.19 -0.55,0.41 -0.82,0.66c0.8,2.03 2.72,3.52 4.99,3.68l0,-0.99c-1.97,-0.17 -3.59,-1.52 -4.17,-3.35z" id="XMLID_1081_" fill="#000000"/>
     </g>
     <path d="m491.65,259.82c0,2.8 -2.15,5.11 -4.9,5.33c-0.16,0.03 -0.3,0.03 -0.46,0.03c-0.14,0 -0.3,0 -0.45,-0.03c-2.74,-0.22 -4.9,-2.52 -4.9,-5.33c0,-2.81 2.15,-5.09 4.9,-5.32c0.14,-0.03 0.3,-0.03 0.45,-0.03c0.16,0 0.3,0 0.46,0.03c2.74,0.22 4.9,2.52 4.9,5.32z" id="XMLID_951_" fill="#000000"/>
     <g id="XMLID_1074_">
      <path d="m486.75,270.31c-0.15,-0.02 -0.3,-0.02 -0.47,-0.02c-0.14,0 -0.29,0 -0.44,0.02c-4.77,0.22 -8.58,4.19 -8.58,9.02c0,4.81 3.81,8.78 8.58,9c0.15,0.03 0.3,0.03 0.44,0.03c0.16,0 0.31,0 0.47,-0.03c4.78,-0.22 8.58,-4.19 8.58,-9c0,-4.83 -3.8,-8.79 -8.58,-9.02zm0,17.05c-0.16,0.02 -0.3,0.02 -0.47,0.02c-0.14,0 -0.29,0 -0.44,-0.02c-4.22,-0.22 -7.6,-3.73 -7.6,-8.02s3.38,-7.81 7.6,-8.03c0.15,-0.04 0.3,-0.04 0.44,-0.04c0.16,0 0.3,0 0.47,0.04c4.22,0.22 7.6,3.75 7.6,8.03c0,4.28 -3.38,7.8 -7.6,8.02z" id="XMLID_1075_" fill="#000000"/>
     </g>
    </g>
    <g id="XMLID_1052_">
     <path d="m314.16,164.65l0,70.01c-0.16,-0.01 -0.3,-0.03 -0.46,-0.03c-0.14,0 -0.3,0.01 -0.45,0.03l0,-70.01l0.91,0z" id="XMLID_936_" fill="#000000"/>
     <path d="m314.16,244.32l0,0.98c-0.16,0.03 -0.3,0.03 -0.46,0.03c-0.14,0 -0.3,0 -0.45,-0.01l0,-1c0.14,0.01 0.3,0.03 0.45,0.03c0.15,0 0.3,-0.01 0.46,-0.03z" id="XMLID_934_" fill="#000000"/>
     <path d="m314.16,245.14l0,9.36c-0.16,-0.03 -0.3,-0.03 -0.46,-0.03c-0.14,0 -0.3,0 -0.45,0.03l0,-9.36c0.14,0.01 0.3,0.03 0.45,0.03c0.15,0 0.3,-0.02 0.46,-0.03z" id="XMLID_930_" fill="#000000"/>
     <path d="m314.16,265.15l0,6.16c-0.16,-0.03 -0.3,-0.03 -0.46,-0.03c-0.14,0 -0.3,0 -0.45,0.03l0,-6.16c0.14,0.03 0.3,0.03 0.45,0.03c0.15,-0.01 0.3,-0.01 0.46,-0.03z" id="XMLID_929_" fill="#000000"/>
     <path d="m314.16,298.97l0,-11.62c-0.16,0.03 -0.3,0.03 -0.46,0.03c-0.14,0 -0.3,0 -0.45,-0.03l0,11.62l0.91,0z" id="XMLID_925_" fill="#000000"/>
     <g id="XMLID_1059_">
      <path d="m309.08,240.97c-0.29,0.19 -0.55,0.41 -0.82,0.66c0.8,2.03 2.72,3.52 4.99,3.68l0,-0.99c-1.97,-0.17 -3.59,-1.52 -4.17,-3.35zm0,0c-0.29,0.19 -0.55,0.41 -0.82,0.66c0.8,2.03 2.72,3.52 4.99,3.68l0,-0.99c-1.97,-0.17 -3.59,-1.52 -4.17,-3.35zm5.08,-7.3c-0.16,-0.02 -0.3,-0.02 -0.47,-0.02c-0.14,0 -0.29,0 -0.44,0.01c-3.01,0.24 -5.4,2.76 -5.4,5.83c0,0.37 0.05,0.73 0.1,1.08c0.07,0.36 0.17,0.71 0.3,1.06c0.8,2.03 2.72,3.52 4.99,3.68c0.15,0.01 0.3,0.01 0.44,0.01c0.16,0 0.3,0 0.47,-0.02c2.27,-0.17 4.17,-1.64 4.98,-3.67c0.13,-0.35 0.23,-0.7 0.29,-1.06c0.07,-0.35 0.1,-0.71 0.1,-1.08c0.01,-3.05 -2.35,-5.58 -5.36,-5.82zm4.37,6.25c-0.02,0.37 -0.09,0.71 -0.21,1.05c-0.58,1.82 -2.2,3.17 -4.16,3.36c-0.16,0.01 -0.3,0.02 -0.47,0.02c-0.14,0 -0.29,-0.01 -0.44,-0.02c-1.97,-0.17 -3.59,-1.53 -4.17,-3.36c-0.12,-0.34 -0.19,-0.68 -0.21,-1.05c-0.02,-0.14 -0.02,-0.28 -0.02,-0.43c0,-2.53 1.94,-4.6 4.41,-4.83c0.15,-0.01 0.3,-0.02 0.44,-0.02c0.16,0 0.3,0.01 0.47,0.02c2.47,0.22 4.39,2.31 4.39,4.83c-0.01,0.15 -0.01,0.29 -0.03,0.43zm-9.45,1.05c-0.29,0.19 -0.55,0.41 -0.82,0.66c0.8,2.03 2.72,3.52 4.99,3.68l0,-0.99c-1.97,-0.17 -3.59,-1.52 -4.17,-3.35zm0,0c-0.29,0.19 -0.55,0.41 -0.82,0.66c0.8,2.03 2.72,3.52 4.99,3.68l0,-0.99c-1.97,-0.17 -3.59,-1.52 -4.17,-3.35z" id="XMLID_1060_" fill="#000000"/>
     </g>
     <path d="m319.05,259.82c0,2.8 -2.15,5.11 -4.9,5.33c-0.16,0.03 -0.3,0.03 -0.46,0.03c-0.14,0 -0.3,0 -0.45,-0.03c-2.74,-0.22 -4.9,-2.52 -4.9,-5.33c0,-2.81 2.15,-5.09 4.9,-5.32c0.14,-0.03 0.3,-0.03 0.45,-0.03c0.16,0 0.3,0 0.46,0.03c2.75,0.22 4.9,2.52 4.9,5.32z" id="XMLID_911_" fill="#000000"/>
     <g id="XMLID_1053_">
      <path d="m314.16,270.31c-0.15,-0.02 -0.3,-0.02 -0.47,-0.02c-0.14,0 -0.29,0 -0.44,0.02c-4.77,0.22 -8.58,4.19 -8.58,9.02c0,4.81 3.81,8.78 8.58,9c0.15,0.03 0.3,0.03 0.44,0.03c0.16,0 0.31,0 0.47,-0.03c4.78,-0.22 8.58,-4.19 8.58,-9c0,-4.83 -3.8,-8.79 -8.58,-9.02zm0,17.05c-0.16,0.02 -0.3,0.02 -0.47,0.02c-0.14,0 -0.29,0 -0.44,-0.02c-4.22,-0.22 -7.6,-3.73 -7.6,-8.02s3.38,-7.81 7.6,-8.03c0.15,-0.04 0.3,-0.04 0.44,-0.04c0.16,0 0.3,0 0.47,0.04c4.22,0.22 7.6,3.75 7.6,8.03c0,4.28 -3.38,7.8 -7.6,8.02z" id="XMLID_1054_" fill="#000000"/>
     </g>
    </g>
   </g>
  </g>
 </g>
</svg>