<svg width="800" height="500" xmlns="http://www.w3.org/2000/svg" xml:space="preserve" version="1.1">

 <g>
  <title>Layer 1</title>
  <path display="none" d="m258.58,120.96l0,-53.35l-2.36,0l0,53.35l-9.58,9.57l9.58,9.58l0,58.78l2.36,0l0,-58.79l9.57,-9.58l-9.57,-9.56zm-1.18,16.57l-1.18,-1.18l-5.82,-5.82l5.82,-5.82l1.18,-1.18l1.18,1.18l5.82,5.82l-5.82,5.82l-1.18,1.18z" class="st0" id="XMLID_935_" fill="#000000"/>
  <path display="none" d="m256.2,428l0,26.9l2.36,0l0,-26.9l9.58,-9.57l-9.58,-9.58l0,-58.78l-2.36,0l0,58.78l-9.57,9.58l9.57,9.57zm1.18,-16.57l1.18,1.18l5.82,5.82l-5.82,5.82l-1.18,1.18l-1.18,-1.18l-5.82,-5.82l5.82,-5.82l1.18,-1.18z" class="st0" id="XMLID_932_" fill="#000000"/>
  <g id="XMLID_471_">
   <g id="XMLID_487_">
    <g id="XMLID_517_">
     <g id="XMLID_522_">
      <path d="m328.14,191.3c1.26,0.14 2.51,0.31 3.75,0.51c1.02,0.17 2.02,0.36 3.02,0.58c0.33,0.07 0.66,0.14 0.98,0.22c6.45,1.44 12.56,3.77 18.21,6.87c11.82,6.47 21.57,16.24 28.02,28.06c5.09,9.32 8.12,19.9 8.48,31.16c0.36,-11.18 3.35,-21.7 8.38,-30.97c0.03,-0.06 0.06,-0.13 0.1,-0.19c6.45,-11.83 16.21,-21.59 28.02,-28.06c8.99,-4.92 19.16,-7.93 29.97,-8.48c-10.81,-0.55 -20.98,-3.56 -29.97,-8.48c-11.81,-6.47 -21.57,-16.24 -28.02,-28.06c-5.09,-9.32 -8.12,-19.91 -8.48,-31.16c-0.36,11.25 -3.4,21.84 -8.48,31.16c-6.45,11.83 -16.2,21.59 -28.02,28.06c-0.02,0.01 -0.04,0.02 -0.05,0.03c-8.92,4.88 -19.01,7.87 -29.73,8.45c-0.06,0 -0.12,0.01 -0.18,0.01c1.33,0.05 2.67,0.15 4,0.29zm62.45,-21.6c5.77,8.29 12.98,15.51 21.27,21.29c-8.28,5.78 -15.5,12.99 -21.27,21.29c-5.77,-8.29 -12.98,-15.51 -21.27,-21.29c8.28,-5.78 15.5,-12.99 21.27,-21.29z" id="XMLID_529_" fill="#000000"/>
      <path d="m253.53,262.72c10.81,-0.55 20.98,-3.56 29.97,-8.48c7.07,-3.87 13.42,-8.93 18.74,-14.91c3.58,-4 6.69,-8.41 9.28,-13.16c0.79,-1.45 1.54,-2.93 2.22,-4.44c3.75,-8.2 5.96,-17.23 6.26,-26.72c0.36,11.25 3.4,21.84 8.48,31.16c6.42,11.78 16.14,21.52 27.89,27.99c0.04,0.03 0.08,0.04 0.13,0.07c8.73,4.78 18.56,7.75 29.02,8.42c0.01,0 0.01,0 0.02,0c0.31,0.03 0.62,0.04 0.93,0.06c-1.29,0.06 -2.58,0.16 -3.85,0.31l-0.01,0c-7.66,0.81 -14.97,2.87 -21.69,5.97c-1.5,0.67 -2.97,1.42 -4.42,2.21c-0.04,-0.02 -0.07,-0.03 -0.11,-0.04c-5.35,-2.3 -10.41,-5.13 -15.12,-8.44c-0.03,-0.02 -0.06,-0.04 -0.09,-0.06c-8.25,-5.77 -15.43,-12.96 -21.18,-21.22c-2.77,3.99 -5.88,7.72 -9.27,11.17c-3.68,3.73 -7.69,7.12 -12,10.12c8.28,5.78 15.5,12.99 21.27,21.29c3,-4.31 6.39,-8.33 10.11,-12.01c4.17,3.16 8.61,6.01 13.26,8.49c-5.98,5.34 -11.03,11.69 -14.89,18.77c-5.09,9.32 -8.12,19.91 -8.48,31.16c-0.36,-11.26 -3.39,-21.84 -8.48,-31.16c-6.44,-11.83 -16.2,-21.59 -28.02,-28.06c-8.99,-4.93 -19.16,-7.94 -29.97,-8.49z" id="XMLID_466_" fill="#000000"/>
      <g id="XMLID_526_">
       <path d="m324.3,190.98c10.72,-0.58 20.81,-3.57 29.73,-8.45c14.79,6.37 27.43,16.82 36.5,29.91c3.31,4.76 6.15,9.88 8.44,15.28c0.01,0.03 0.03,0.05 0.04,0.08c2.76,6.53 4.74,13.47 5.79,20.7c0.6,4.07 0.92,8.24 0.92,12.47c0,0.23 0,0.47 -0.01,0.7c-2.48,0.57 -5.01,1 -7.59,1.28c-2.44,-0.28 -4.92,-0.43 -7.44,-0.45c-0.09,-0.01 -0.17,-0.01 -0.26,0c0.02,-0.51 0.03,-1.02 0.03,-1.54c0,-4.7 -0.47,-9.29 -1.36,-13.74c-1.37,-6.89 -3.76,-13.43 -7.01,-19.44c-9.3,-17.25 -25.63,-30.17 -45.11,-34.94c-0.36,-0.09 -0.72,-0.18 -1.08,-0.26c-0.32,-0.07 -0.65,-0.14 -0.98,-0.22c-1,-0.22 -2,-0.4 -3.02,-0.58c-1.24,-0.21 -2.49,-0.38 -3.75,-0.51c-1.27,-0.12 -2.55,-0.23 -3.84,-0.29z" id="XMLID_465_" fill="#000000"/>
      </g>
      <g id="XMLID_523_">
       <path d="m382.61,263.03l0,0c1.28,-0.14 2.56,-0.24 3.85,-0.31c-0.31,-0.02 -0.62,-0.04 -0.93,-0.06c-0.01,0 -0.01,0 -0.02,0c-0.51,0.03 -1.02,0.07 -1.52,0.11c-0.66,0.05 -1.31,0.13 -1.97,0.2c0.21,0.02 0.39,0.04 0.59,0.06z" id="XMLID_524_" fill="#000000"/>
      </g>
     </g>
     <g id="XMLID_520_">
      <path d="m373.4,261.48c0.04,-3.51 0.3,-7 0.76,-10.45c0,-0.03 0.01,-0.06 0.01,-0.09c0.8,-5.81 2.21,-11.48 4.15,-16.95c5.33,-15.01 14.8,-28.4 27.42,-38.41c9.88,2.37 20.41,2.62 30.9,0.38c-1.22,0.4 -2.44,0.84 -3.61,1.31c-1.19,0.46 -2.35,0.95 -3.49,1.47c-0.93,0.43 -1.86,0.88 -2.77,1.35c-0.3,0.15 -0.59,0.31 -0.89,0.46c-0.32,0.18 -0.65,0.36 -0.97,0.54c-17.56,9.69 -29.94,26.43 -34.41,45.51c-1.28,5.44 -1.91,11.09 -1.83,16.8c0.02,1.27 0.06,2.53 0.15,3.79c0.26,3.82 0.83,7.66 1.74,11.49c-3.84,0.04 -7.64,-0.19 -11.37,-0.66c-1.51,-0.18 -3.01,-0.4 -4.49,-0.67c-0.29,-1.61 -0.53,-3.23 -0.72,-4.83c-0.44,-3.7 -0.63,-7.39 -0.58,-11.04z" id="XMLID_463_" fill="#000000"/>
     </g>
     <g id="XMLID_518_">
      <path d="m312.11,228.78c4.67,-9.03 7.44,-19.18 7.77,-29.92c0.09,1.28 0.22,2.57 0.4,3.84c0.16,1.25 0.36,2.5 0.6,3.73c0.19,1.02 0.4,2.01 0.64,3.01c0.08,0.32 0.16,0.65 0.24,0.97c0.09,0.36 0.18,0.72 0.28,1.07c5.2,19.37 18.49,35.4 35.95,44.31c4.83,2.48 10,4.4 15.4,5.7c1.37,0.34 2.78,0.63 4.19,0.87c3.61,0.64 7.31,1 11.09,1.05c0.02,1.27 0.06,2.53 0.15,3.79c0.26,3.82 0.83,7.66 1.74,11.49c-3.84,0.04 -7.64,-0.19 -11.37,-0.66c-1.51,-0.18 -3.01,-0.4 -4.49,-0.67c-5.64,-1 -11.12,-2.57 -16.34,-4.64c-0.03,-0.01 -0.05,-0.03 -0.08,-0.04c-5.45,-2.17 -10.62,-4.89 -15.46,-8.09c-13.28,-8.77 -24.01,-21.18 -30.71,-35.81z" id="XMLID_461_" fill="#000000"/>
     </g>
    </g>
    <g id="XMLID_501_">
     <g id="XMLID_506_">
      <path d="m475.46,314.24c-1.26,-0.14 -2.51,-0.31 -3.75,-0.51c-1.02,-0.17 -2.02,-0.36 -3.02,-0.58c-0.33,-0.07 -0.66,-0.14 -0.98,-0.22c-6.45,-1.44 -12.56,-3.77 -18.21,-6.87c-11.82,-6.47 -21.57,-16.24 -28.02,-28.06c-5.09,-9.32 -8.12,-19.9 -8.48,-31.16c-0.36,11.18 -3.35,21.7 -8.38,30.97c-0.03,0.06 -0.06,0.13 -0.1,0.19c-6.45,11.83 -16.21,21.59 -28.02,28.06c-8.99,4.92 -19.16,7.93 -29.97,8.48c10.81,0.55 20.98,3.56 29.97,8.48c11.81,6.47 21.57,16.24 28.02,28.06c5.09,9.32 8.12,19.91 8.48,31.16c0.36,-11.25 3.4,-21.84 8.48,-31.16c6.45,-11.83 16.2,-21.59 28.02,-28.06c0.02,-0.01 0.04,-0.02 0.05,-0.03c8.92,-4.88 19.01,-7.87 29.73,-8.45c0.06,0 0.12,-0.01 0.18,-0.01c-1.33,-0.05 -2.67,-0.15 -4,-0.29zm-62.45,21.6c-5.77,-8.29 -12.98,-15.51 -21.27,-21.29c8.28,-5.78 15.5,-12.99 21.27,-21.29c5.77,8.29 12.98,15.51 21.27,21.29c-8.29,5.78 -15.5,13 -21.27,21.29z" id="XMLID_513_" fill="#000000"/>
      <path d="m550.07,242.82c-10.81,0.55 -20.98,3.56 -29.97,8.48c-7.07,3.87 -13.42,8.93 -18.74,14.91c-3.58,4 -6.69,8.41 -9.28,13.16c-0.79,1.45 -1.54,2.93 -2.22,4.44c-3.75,8.2 -5.96,17.23 -6.26,26.72c-0.36,-11.25 -3.4,-21.84 -8.48,-31.16c-6.42,-11.78 -16.14,-21.52 -27.89,-27.99c-0.04,-0.03 -0.08,-0.04 -0.13,-0.07c-8.73,-4.78 -18.56,-7.75 -29.02,-8.42c-0.01,0 -0.01,0 -0.02,0c-0.31,-0.03 -0.62,-0.04 -0.93,-0.06c1.29,-0.06 2.58,-0.16 3.85,-0.31l0.01,0c7.66,-0.81 14.97,-2.87 21.69,-5.97c1.5,-0.67 2.97,-1.42 4.42,-2.21c0.04,0.02 0.07,0.03 0.11,0.04c5.35,2.3 10.41,5.13 15.12,8.44c0.03,0.02 0.06,0.04 0.09,0.06c8.25,5.77 15.43,12.96 21.18,21.22c2.77,-3.99 5.88,-7.72 9.27,-11.17c3.68,-3.73 7.69,-7.12 12,-10.12c-8.28,-5.78 -15.5,-12.99 -21.27,-21.29c-3,4.31 -6.39,8.33 -10.11,12.01c-4.17,-3.16 -8.61,-6.01 -13.26,-8.49c5.98,-5.34 11.03,-11.69 14.89,-18.77c5.09,-9.32 8.12,-19.91 8.48,-31.16c0.36,11.26 3.39,21.84 8.48,31.16c6.44,11.83 16.2,21.59 28.02,28.06c8.99,4.93 19.16,7.94 29.97,8.49z" id="XMLID_457_" fill="#000000"/>
      <g id="XMLID_510_">
       <path d="m479.3,314.56c-10.72,0.58 -20.81,3.57 -29.73,8.45c-14.79,-6.37 -27.43,-16.82 -36.5,-29.91c-3.31,-4.76 -6.15,-9.88 -8.44,-15.28c-0.01,-0.03 -0.03,-0.05 -0.04,-0.08c-2.76,-6.53 -4.74,-13.47 -5.79,-20.7c-0.6,-4.07 -0.92,-8.24 -0.92,-12.47c0,-0.23 0,-0.47 0.01,-0.7c2.48,-0.57 5.01,-1 7.59,-1.28c2.44,0.28 4.92,0.43 7.44,0.45c0.09,0.01 0.17,0.01 0.26,0c-0.02,0.51 -0.03,1.02 -0.03,1.54c0,4.7 0.47,9.29 1.36,13.74c1.37,6.89 3.76,13.43 7.01,19.44c9.3,17.25 25.63,30.17 45.11,34.94c0.36,0.09 0.72,0.18 1.08,0.26c0.32,0.07 0.65,0.14 0.98,0.22c1,0.22 2,0.4 3.02,0.58c1.24,0.21 2.49,0.38 3.75,0.51c1.27,0.12 2.55,0.23 3.84,0.29z" id="XMLID_456_" fill="#000000"/>
      </g>
      <g id="XMLID_507_">
       <path d="m420.99,242.52l0,0c-1.28,0.14 -2.56,0.24 -3.85,0.31c0.31,0.02 0.62,0.04 0.93,0.06c0.01,0 0.01,0 0.02,0c0.51,-0.03 1.02,-0.07 1.52,-0.11c0.66,-0.05 1.31,-0.13 1.97,-0.2c-0.22,-0.03 -0.4,-0.05 -0.59,-0.06z" id="XMLID_508_" fill="#000000"/>
      </g>
     </g>
     <g id="XMLID_504_">
      <path d="m430.2,244.07c-0.04,3.51 -0.3,7 -0.76,10.45c0,0.03 -0.01,0.06 -0.01,0.09c-0.8,5.81 -2.21,11.48 -4.15,16.95c-5.33,15.01 -14.8,28.4 -27.42,38.41c-9.88,-2.37 -20.41,-2.62 -30.9,-0.38c1.22,-0.4 2.44,-0.84 3.61,-1.31c1.19,-0.46 2.35,-0.95 3.49,-1.47c0.93,-0.43 1.86,-0.88 2.77,-1.35c0.3,-0.15 0.59,-0.31 0.89,-0.46c0.32,-0.18 0.65,-0.36 0.97,-0.54c17.56,-9.69 29.94,-26.43 34.41,-45.51c1.28,-5.44 1.91,-11.09 1.83,-16.8c-0.02,-1.27 -0.06,-2.53 -0.15,-3.79c-0.26,-3.82 -0.83,-7.66 -1.74,-11.49c3.84,-0.04 7.64,0.19 11.37,0.66c1.51,0.18 3.01,0.4 4.49,0.67c0.29,1.61 0.53,3.23 0.72,4.83c0.43,3.7 0.63,7.38 0.58,11.04z" id="XMLID_453_" fill="#000000"/>
     </g>
     <g id="XMLID_502_">
      <path d="m491.49,276.77c-4.67,9.03 -7.44,19.18 -7.77,29.92c-0.09,-1.28 -0.22,-2.57 -0.4,-3.84c-0.16,-1.25 -0.36,-2.5 -0.6,-3.73c-0.19,-1.02 -0.4,-2.01 -0.64,-3.01c-0.08,-0.32 -0.16,-0.65 -0.24,-0.97c-0.09,-0.36 -0.18,-0.72 -0.28,-1.07c-5.2,-19.37 -18.49,-35.4 -35.95,-44.31c-4.83,-2.48 -10,-4.4 -15.4,-5.7c-1.37,-0.34 -2.78,-0.63 -4.19,-0.87c-3.61,-0.64 -7.31,-1 -11.09,-1.05c-0.02,-1.27 -0.06,-2.53 -0.15,-3.79c-0.26,-3.82 -0.83,-7.66 -1.74,-11.49c3.84,-0.04 7.64,0.19 11.37,0.66c1.51,0.18 3.01,0.4 4.49,0.67c5.64,1 11.12,2.57 16.34,4.64c0.03,0.01 0.05,0.03 0.08,0.04c5.45,2.17 10.62,4.89 15.46,8.09c13.28,8.76 24,21.17 30.71,35.81z" id="XMLID_452_" fill="#000000"/>
     </g>
    </g>
    <rect height="1.93" width="76.2" y="241.73" x="537.04" id="XMLID_451_"/>
    <ellipse ry="15.88" rx="15.88" cy="242.52" cx="559.27" transform="matrix(0.6574 -0.7536 0.7536 0.6574 8.8696 504.5384)" id="XMLID_449_"/>
    <rect height="1.93" width="76.2" y="261.94" x="186.76" id="XMLID_448_"/>
    <ellipse ry="15.88" rx="15.88" cy="262.72" cx="240.73" transform="matrix(0.7445 -0.6676 0.6676 0.7445 -113.8955 227.8537)" id="XMLID_447_"/>
    <ellipse ry="15.88" rx="15.88" cy="262.72" cx="215.57" transform="matrix(0.7445 -0.6676 0.6676 0.7445 -120.3246 211.0552)" id="XMLID_444_"/>
    <path d="m429.59,393.63c-1.11,-0.46 -2.12,-0.86 -3.02,-1.22c-7.74,-3.12 -7.74,-3.12 -11,-10.79c-0.38,-0.9 -0.8,-1.9 -1.28,-3l-0.31,-0.73l0,-5.09l-1.93,0l0,5.25l-0.24,0.59c-0.46,1.11 -0.86,2.12 -1.22,3.03c-3.12,7.73 -3.12,7.73 -10.8,10.99c-0.89,0.38 -1.89,0.8 -3,1.28l-2.93,1.27l2.96,1.21c1.11,0.46 2.12,0.86 3.02,1.23c7.74,3.11 7.74,3.11 11,10.79c0.36,0.86 0.76,1.81 1.22,2.88l0,37.68l1.93,0l0,-36.1l0.61,-1.49c0.46,-1.11 0.86,-2.12 1.23,-3.03c3.11,-7.73 3.11,-7.73 10.79,-10.99c0.9,-0.38 1.89,-0.8 3,-1.28l2.93,-1.28l-2.96,-1.2zm-4.03,1.28c-7.96,3.38 -8.71,3.81 -11.58,10.82c-0.21,0.51 -0.43,1.06 -0.66,1.64c0,0.01 0,0.01 0,0.02c-0.01,-0.01 -0.01,-0.01 -0.01,-0.02c-0.47,-1.1 -0.87,-2.07 -1.26,-2.91c-2.56,-5.74 -3.7,-6.31 -11.21,-9.33c-0.01,0 -0.01,0 -0.02,0c0.01,0 0.01,-0.01 0.02,-0.01c7.6,-3.23 8.62,-3.77 11.21,-9.93c0.31,-0.75 0.66,-1.59 1.03,-2.53c0,-0.01 0,-0.01 0,-0.02c0.01,0.01 0.01,0.01 0.01,0.02c0.32,0.75 0.61,1.44 0.89,2.07c2.85,6.54 3.72,7.01 11.58,10.18c0,0 0,0 0,0c0,0 0,0 0,0z" id="XMLID_493_" fill="#000000"/>
    <path d="m403.96,108.91c-7.74,-3.11 -7.74,-3.11 -11,-10.79c-0.15,-0.36 -0.31,-0.73 -0.47,-1.11c0.25,-0.63 0.49,-1.22 0.72,-1.78c3.11,-7.73 3.11,-7.73 10.79,-10.99c0.9,-0.38 1.89,-0.8 3,-1.28l2.93,-1.27l-2.96,-1.21c-1.11,-0.46 -2.12,-0.86 -3.02,-1.23c-7.74,-3.11 -7.74,-3.11 -11,-10.79c-0.38,-0.9 -0.8,-1.89 -1.28,-3l-0.13,-0.29l0,-24.7l-1.94,0l0,23.97l-0.42,1.03c-0.46,1.11 -0.86,2.12 -1.22,3.02c-3.12,7.74 -3.12,7.74 -10.8,11c-0.89,0.38 -1.89,0.8 -3,1.28l-2.93,1.28l2.96,1.21c1.11,0.46 2.12,0.86 3.02,1.22c7.74,3.12 7.74,3.12 11,10.79c0.15,0.36 0.31,0.73 0.48,1.12c-0.26,0.63 -0.5,1.22 -0.72,1.77c-3.12,7.74 -3.12,7.74 -10.8,11c-0.89,0.38 -1.89,0.8 -3,1.28l-2.93,1.28l2.96,1.21c1.11,0.46 2.12,0.86 3.02,1.22c7.74,3.12 7.74,3.12 11,10.79c0.38,0.9 0.8,1.9 1.28,3l0.12,0.27l0,5.55l1.94,0l0,-4.81l0.42,-1.03c0.46,-1.11 0.86,-2.12 1.23,-3.03c3.11,-7.74 3.11,-7.74 10.79,-10.99c0.9,-0.38 1.89,-0.8 3,-1.28l2.93,-1.27l-2.96,-1.21c-1.11,-0.46 -2.11,-0.86 -3.01,-1.23zm-25.73,-26.93c-0.01,0 -0.01,0 -0.02,-0.01c0.01,0 0.01,0 0.02,0.01c7.78,-3.32 8.66,-3.8 11.39,-10.37c0.26,-0.64 0.55,-1.34 0.85,-2.1c0,-0.01 0,-0.01 0,-0.02c0.01,0.01 0.01,0.01 0.01,0.02c0.4,0.93 0.75,1.75 1.08,2.5c2.7,6.13 3.71,6.65 11.39,9.74c0,0 0,0.01 -0.01,0.01c-7.78,3.3 -8.66,3.78 -11.39,10.36c-0.18,0.44 -0.37,0.9 -0.58,1.4l-0.58,-1.33l-0.29,0.69c-0.17,-0.41 -0.34,-0.79 -0.5,-1.16c-2.68,-6.13 -3.69,-6.65 -11.37,-9.74zm24.71,29.45c-7.78,3.3 -8.66,3.78 -11.39,10.36c-0.26,0.64 -0.55,1.34 -0.85,2.1c0,0.01 0,0.01 0,0.02c-0.01,-0.01 -0.01,-0.01 -0.01,-0.02c-0.4,-0.93 -0.75,-1.75 -1.08,-2.5c-2.7,-6.14 -3.71,-6.65 -11.39,-9.74c-0.01,0 -0.01,0 -0.02,-0.01c0.01,0 0.01,0 0.02,0c7.78,-3.31 8.66,-3.79 11.39,-10.36c0.18,-0.44 0.37,-0.91 0.58,-1.41l0.58,1.34l0.29,-0.7c0.17,0.41 0.34,0.8 0.5,1.17c2.69,6.12 3.71,6.64 11.38,9.75c0.01,-0.01 0.01,0 0,0z" id="XMLID_488_" fill="#000000"/>
   </g>
   <path d="m573.59,241.73c-10.71,-4.34 -9.37,-3.31 -14.46,-15.09c-4.78,11.64 -3.59,10.85 -13.56,15.09l-4.71,0c-7.38,-1.37 -14.37,-3.9 -20.75,-7.39c-11.82,-6.47 -21.57,-16.24 -28.02,-28.06c-5.09,-9.32 -8.12,-19.9 -8.48,-31.16c-0.36,11.25 -3.4,21.84 -8.48,31.16c-3.86,7.08 -8.91,13.43 -14.89,18.77c4.65,2.48 9.09,5.33 13.26,8.49c3.72,-3.68 7.11,-7.69 10.11,-12.01c5.77,8.29 12.98,15.51 21.27,21.29c-4.3,3 -8.32,6.39 -12,10.12c-3.25,3.3 -6.23,6.87 -8.9,10.66c-6.23,-8.95 -14.12,-16.65 -23.21,-22.65c-4.83,-3.2 -10.01,-5.92 -15.46,-8.09c-0.03,-0.01 -0.05,-0.03 -0.08,-0.04c-5.22,-2.07 -10.69,-3.64 -16.34,-4.64c-1.48,-0.27 -2.98,-0.49 -4.49,-0.67c-3.73,-0.47 -7.53,-0.69 -11.37,-0.66c0.92,3.84 1.48,7.67 1.74,11.49c0.09,1.27 0.13,2.53 0.15,3.79c0.06,4.3 -0.28,8.56 -1,12.72c-0.5,-3.37 -0.76,-6.8 -0.76,-10.3c0,-0.51 0.01,-1.02 0.03,-1.54c-0.09,0.01 -0.17,0.01 -0.26,0c-2.52,-0.02 -5,-0.17 -7.44,-0.45c-0.58,0.06 -1.16,0.14 -1.73,0.22c-1.13,-5.19 -2.72,-10.2 -4.75,-14.99c-0.01,-0.03 -0.03,-0.05 -0.04,-0.08c0.03,-0.06 0.06,-0.13 0.1,-0.19c4.46,-8.18 10.51,-15.37 17.72,-21.17c2.57,-1.93 5.27,-3.7 8.12,-5.28c0.32,-0.18 0.65,-0.36 0.97,-0.54c0.3,-0.15 0.59,-0.31 0.89,-0.46c0.91,-0.47 1.83,-0.92 2.77,-1.35c1.14,-0.52 2.3,-1.02 3.49,-1.47c1.18,-0.48 2.39,-0.92 3.61,-1.31c-1.26,0.27 -2.52,0.5 -3.77,0.7c7.48,-3.25 15.64,-5.23 24.19,-5.66c-10.81,-0.55 -20.98,-3.56 -29.97,-8.48c-11.81,-6.47 -21.57,-16.24 -28.02,-28.06c-3.62,-6.63 -6.2,-13.91 -7.51,-21.62l0,-3.87l0.42,-1.03c0.46,-1.11 0.86,-2.12 1.23,-3.03c3.11,-7.74 3.11,-7.74 10.79,-10.99c0.9,-0.38 1.89,-0.8 3,-1.28l2.93,-1.27l-2.96,-1.21c-1.11,-0.46 -2.12,-0.86 -3.02,-1.23c-7.74,-3.11 -7.74,-3.11 -11,-10.79c-0.15,-0.36 -0.31,-0.73 -0.47,-1.11c0.25,-0.63 0.49,-1.22 0.72,-1.78c3.11,-7.73 3.11,-7.73 10.79,-10.99c0.9,-0.38 1.89,-0.8 3,-1.28l2.93,-1.27l-2.96,-1.21c-1.11,-0.46 -2.12,-0.86 -3.02,-1.23c-7.74,-3.11 -7.74,-3.11 -11,-10.79c-0.38,-0.9 -0.8,-1.89 -1.28,-3l-0.13,-0.29l0,-24.7l-1.94,0l0,23.97l-0.42,1.03c-0.46,1.11 -0.86,2.12 -1.22,3.02c-3.12,7.74 -3.12,7.74 -10.8,11c-0.89,0.38 -1.89,0.8 -3,1.28l-2.93,1.28l2.96,1.21c1.11,0.46 2.12,0.86 3.02,1.22c7.74,3.12 7.74,3.12 11,10.79c0.15,0.36 0.31,0.73 0.48,1.12c-0.26,0.63 -0.5,1.22 -0.72,1.77c-3.12,7.74 -3.12,7.74 -10.8,11c-0.89,0.38 -1.89,0.8 -3,1.28l-2.93,1.28l2.96,1.21c1.11,0.46 2.12,0.86 3.02,1.22c7.74,3.12 7.74,3.12 11,10.79c0.38,0.9 0.8,1.9 1.28,3l0.12,0.27l0,4.63c-1.32,7.7 -3.89,14.98 -7.51,21.61c-6.45,11.83 -16.2,21.59 -28.02,28.06c-0.02,0.01 -0.04,0.02 -0.05,0.03c-8.92,4.88 -19.01,7.87 -29.73,8.45c-0.06,0 -0.12,0.01 -0.18,0.01c1.35,0.07 2.69,0.17 4.02,0.31c1.26,0.14 2.51,0.31 3.75,0.51c1.02,0.17 2.02,0.36 3.02,0.58c0.33,0.07 0.66,0.14 0.98,0.22c0.36,0.08 0.72,0.17 1.08,0.26c19.01,4.65 35,17.08 44.4,33.71c-1.12,2.42 -2.15,4.89 -3.04,7.41c-1.94,5.46 -3.35,11.13 -4.15,16.95c0,0.03 -0.01,0.06 -0.01,0.09c-0.44,3.23 -0.69,6.5 -0.75,9.78c-5.97,-1.46 -11.65,-3.68 -16.92,-6.57c-0.04,-0.03 -0.08,-0.04 -0.13,-0.07c-11.75,-6.47 -21.47,-16.21 -27.89,-27.99c-5.09,-9.32 -8.12,-19.91 -8.48,-31.16c-0.31,9.5 -2.52,18.53 -6.26,26.72c-0.68,1.51 -1.43,2.99 -2.22,4.44c-2.59,4.74 -5.71,9.16 -9.28,13.16c-5.32,5.98 -11.66,11.03 -18.74,14.91c-6.89,3.78 -14.48,6.42 -22.52,7.7l-6.09,0c-10.52,-4.31 -9.21,-3.35 -14.23,-15.1c-4.62,11.1 -3.74,10.89 -12.38,14.5c-8.97,-3.66 -8.01,-3.32 -12.78,-14.5c-4.86,11.68 -3.63,10.83 -13.78,15.1l-14.96,0l0,1.93l15.56,0c9.54,3.9 8.46,3.33 13.33,14.73c4.62,-11.1 3.74,-10.89 12.38,-14.5c8.97,3.66 8.01,3.32 12.78,14.5c4.71,-11.33 3.7,-10.87 12.91,-14.73l9.25,0l0,-0.02c7.31,1.38 14.22,3.89 20.54,7.36c11.82,6.47 21.57,16.24 28.02,28.06c5.09,9.32 8.12,19.9 8.48,31.16c0.36,-11.25 3.4,-21.84 8.48,-31.16c3.86,-7.08 8.91,-13.43 14.89,-18.77c-4.65,-2.48 -9.09,-5.33 -13.26,-8.49c-3.72,3.68 -7.11,7.69 -10.11,12.01c-5.77,-8.29 -12.98,-15.51 -21.27,-21.29c4.3,-3 8.32,-6.39 12,-10.12c3.25,-3.3 6.23,-6.87 8.9,-10.66c6.23,8.95 14.12,16.65 23.21,22.65c4.83,3.2 10.01,5.92 15.46,8.09c0.03,0.01 0.05,0.03 0.08,0.04c5.22,2.07 10.69,3.64 16.34,4.64c1.48,0.27 2.98,0.49 4.49,0.67c3.73,0.47 7.53,0.69 11.37,0.66c-0.92,-3.84 -1.48,-7.67 -1.74,-11.49c-0.09,-1.27 -0.13,-2.53 -0.15,-3.79c-0.06,-4.3 0.28,-8.56 1,-12.72c0.5,3.37 0.76,6.8 0.76,10.3c0,0.51 -0.01,1.02 -0.03,1.54c0.09,-0.01 0.17,-0.01 0.26,0c2.52,0.02 5,0.17 7.44,0.45c0.58,-0.06 1.16,-0.14 1.73,-0.22c1.13,5.19 2.72,10.2 4.75,14.99c0.01,0.03 0.03,0.05 0.04,0.08c-0.03,0.06 -0.06,0.13 -0.1,0.19c-4.46,8.18 -10.51,15.37 -17.72,21.17c-2.57,1.93 -5.27,3.7 -8.12,5.28c-0.32,0.18 -0.65,0.36 -0.97,0.54c-0.3,0.15 -0.59,0.31 -0.89,0.46c-0.91,0.47 -1.83,0.92 -2.77,1.35c-1.14,0.52 -2.3,1.02 -3.49,1.47c-1.18,0.48 -2.39,0.92 -3.61,1.31c1.26,-0.27 2.52,-0.5 3.77,-0.7c-7.48,3.25 -15.64,5.23 -24.19,5.66c10.81,0.55 20.98,3.56 29.97,8.48c11.81,6.47 21.57,16.24 28.02,28.06c3.63,6.65 6.21,13.96 7.53,21.69l0,5.25l-0.24,0.59c-0.46,1.11 -0.86,2.12 -1.22,3.03c-3.12,7.73 -3.12,7.73 -10.8,10.99c-0.89,0.38 -1.89,0.8 -3,1.28l-2.93,1.27l2.96,1.21c1.11,0.46 2.12,0.86 3.02,1.23c7.74,3.11 7.74,3.11 11,10.79c0.36,0.86 0.76,1.81 1.22,2.88l0,37.66l1.93,0l0,-36.1l0.61,-1.49c0.46,-1.11 0.86,-2.12 1.23,-3.03c3.11,-7.73 3.11,-7.73 10.79,-10.99c0.9,-0.38 1.89,-0.8 3,-1.28l2.93,-1.28l-2.96,-1.21c-1.11,-0.46 -2.12,-0.86 -3.02,-1.22c-7.74,-3.12 -7.74,-3.12 -11,-10.79c-0.38,-0.9 -0.8,-1.9 -1.28,-3l-0.31,-0.73l0,-5.09l-0.02,0c1.31,-7.73 3.89,-15.04 7.53,-21.69c6.45,-11.83 16.2,-21.59 28.02,-28.06c0.02,-0.01 0.04,-0.02 0.05,-0.03c8.92,-4.88 19.01,-7.87 29.73,-8.45c0.06,0 0.12,-0.01 0.18,-0.01c-1.35,-0.07 -2.69,-0.17 -4.02,-0.31c-1.26,-0.14 -2.51,-0.31 -3.75,-0.51c-1.02,-0.17 -2.02,-0.36 -3.02,-0.58c-0.33,-0.07 -0.66,-0.14 -0.98,-0.22c-0.36,-0.08 -0.72,-0.17 -1.08,-0.26c-19.01,-4.65 -35,-17.08 -44.4,-33.71c1.12,-2.42 2.15,-4.89 3.04,-7.41c1.94,-5.46 3.35,-11.13 4.15,-16.95c0,-0.03 0.01,-0.06 0.01,-0.09c0.44,-3.23 0.69,-6.5 0.75,-9.78c5.97,1.46 11.65,3.68 16.92,6.57c0.04,0.03 0.08,0.04 0.13,0.07c11.75,6.47 21.47,16.21 27.89,27.99c5.09,9.32 8.12,19.91 8.48,31.16c0.31,-9.5 2.52,-18.53 6.26,-26.72c0.68,-1.51 1.43,-2.99 2.22,-4.44c2.59,-4.74 5.71,-9.16 9.28,-13.16c5.32,-5.98 11.66,-11.03 18.74,-14.91c6.77,-3.71 14.22,-6.33 22.11,-7.64l3.66,0c9.73,3.92 8.6,3.29 13.55,14.73c4.64,-11.29 3.66,-10.89 12.7,-14.73l41.13,0l0,-1.93l-39.68,0l0,0.01zm-195.36,-159.75c-0.01,0 -0.01,0 -0.02,-0.01c0.01,0 0.01,0 0.02,0.01c7.78,-3.32 8.66,-3.8 11.39,-10.37c0.26,-0.64 0.55,-1.34 0.85,-2.1c0,-0.01 0,-0.01 0,-0.02c0.01,0.01 0.01,0.01 0.01,0.02c0.4,0.93 0.75,1.75 1.08,2.5c2.7,6.13 3.71,6.65 11.39,9.74c0,0 0,0.01 -0.01,0.01c-7.78,3.3 -8.66,3.78 -11.39,10.36c-0.18,0.44 -0.37,0.9 -0.58,1.4l-0.58,-1.33l-0.29,0.69c-0.17,-0.41 -0.34,-0.79 -0.5,-1.16c-2.68,-6.13 -3.69,-6.65 -11.37,-9.74zm0,29.67c-0.01,0 -0.01,0 -0.02,-0.01c0.01,0 0.01,0 0.02,0.01c7.78,-3.32 8.66,-3.8 11.39,-10.37c0.18,-0.44 0.37,-0.91 0.58,-1.41l0.58,1.34l0.29,-0.7c0.17,0.41 0.34,0.8 0.5,1.17c2.7,6.13 3.71,6.65 11.39,9.74c0,0 0,0.01 -0.01,0.01c-7.78,3.3 -8.66,3.78 -11.39,10.36c-0.26,0.64 -0.55,1.34 -0.85,2.1c0,0.01 0,0.01 0,0.02c-0.01,-0.01 -0.01,-0.01 -0.01,-0.02c-0.03,-0.07 -0.06,-0.14 -0.09,-0.21c-0.01,-0.13 -0.01,-0.27 -0.02,-0.4c0,0.11 -0.01,0.21 -0.02,0.32c-0.34,-0.81 -0.66,-1.55 -0.96,-2.21c-2.69,-6.14 -3.7,-6.65 -11.38,-9.74zm11.95,100.07c-5.7,-8.06 -12.77,-15.08 -20.86,-20.73c8.28,-5.78 15.5,-12.99 21.27,-21.29c5.77,8.29 12.98,15.51 21.27,21.29c-2.08,1.45 -4.08,2.98 -6.02,4.61c-0.03,-0.01 -0.07,-0.01 -0.1,-0.02c-5.92,4.69 -11.13,10.14 -15.56,16.14zm23.8,173.01c2.85,6.53 3.72,7.01 11.58,10.17c0,0 0,0 0.01,0c-0.01,0.01 -0.01,0.01 -0.01,0.01c-7.96,3.38 -8.71,3.81 -11.58,10.82c-0.21,0.51 -0.43,1.06 -0.66,1.64c0,0.01 0,0.01 0,0.02c-0.01,-0.01 -0.01,-0.01 -0.01,-0.02c-0.47,-1.1 -0.87,-2.07 -1.26,-2.91c-2.56,-5.74 -3.7,-6.31 -11.21,-9.33c-0.01,0 -0.01,0 -0.02,0c0.01,0 0.01,-0.01 0.02,-0.01c7.6,-3.23 8.62,-3.77 11.21,-9.93c0.31,-0.75 0.66,-1.59 1.03,-2.53c0,-0.01 0,-0.01 0,-0.02c0.01,0.01 0.01,0.01 0.01,0.02c0.33,0.76 0.61,1.44 0.89,2.07zm20.3,-70.18c-8.28,5.78 -15.5,12.99 -21.27,21.29c-5.77,-8.29 -12.98,-15.51 -21.27,-21.29c2.08,-1.45 4.08,-2.98 6.02,-4.61c0.03,0.01 0.07,0.01 0.1,0.02c5.92,-4.69 11.13,-10.14 15.56,-16.14c5.7,8.06 12.76,15.09 20.86,20.73z" id="XMLID_478_" fill="#000000"/>
   <g opacity="0.7" class="st1" id="XMLID_472_">
    <path d="m413.92,254.87c0,0 -2.21,10.85 -9.3,22.95c-1.79,-4.59 -3.73,-10.35 -4.39,-13.33c-0.66,-2.98 12.69,-21.46 12.69,-21.46s0.79,10.54 1,11.84z" id="XMLID_428_" fill="#000000"/>
    <path d="m422.23,279c0,0 -3.74,8.61 -8.81,14.84c4.9,6.27 6.38,7.71 8.15,9.67c1.76,1.96 10.43,-11.2 10.43,-11.2s-7.32,-8.57 -9.77,-13.31z" id="XMLID_427_" fill="#000000"/>
    <path d="m390.18,211.7c0,0 4.93,7.08 8.89,15.84c3.23,-5.33 7.11,-10.8 10.33,-14.31s-7.55,-14.37 -7.55,-14.37s-7.8,7.13 -11.67,12.84z" id="XMLID_426_" fill="#000000"/>
    <path d="m381.37,226.54c0,0 7.37,11.06 8.31,24.13c-0.84,7.02 -1.05,10.76 -1,12.73c0.05,1.96 -13.13,-19.89 -13.13,-19.89s3.73,-14.62 5.82,-16.97z" id="XMLID_422_" fill="#000000"/>
   </g>
  </g>
 </g>
</svg>