<svg width="800" height="500" xmlns="http://www.w3.org/2000/svg" xml:space="preserve" version="1.1">

 <g>
  <title>Layer 1</title>
  <path display="none" d="m258.58,120.96l0,-53.35l-2.36,0l0,53.35l-9.58,9.57l9.58,9.58l0,58.78l2.36,0l0,-58.79l9.57,-9.58l-9.57,-9.56zm-1.18,16.57l-1.18,-1.18l-5.82,-5.82l5.82,-5.82l1.18,-1.18l1.18,1.18l5.82,5.82l-5.82,5.82l-1.18,1.18z" class="st0" id="XMLID_935_" fill="#000000"/>
  <path display="none" d="m256.2,428l0,26.9l2.36,0l0,-26.9l9.58,-9.57l-9.58,-9.58l0,-58.78l-2.36,0l0,58.78l-9.57,9.58l9.57,9.57zm1.18,-16.57l1.18,1.18l5.82,5.82l-5.82,5.82l-1.18,1.18l-1.18,-1.18l-5.82,-5.82l5.82,-5.82l1.18,-1.18z" class="st0" id="XMLID_932_" fill="#000000"/>
  <g id="XMLID_423_">
   <g id="XMLID_445_">
    <path d="m427.14,153.51l13.32,-13.32l-0.92,-0.92c-3.96,-6.67 -9.58,-12.29 -16.25,-16.25l-0.6,-0.6l-11.45,11.45l-5.14,-5.14l11.45,-11.45l-15.73,-15.73l-2.04,-2.38l-2.02,2.36l-15.75,15.75l6.32,6.32l11.45,-11.45l5.14,5.14l-11.45,11.45l21.62,21.62c2.85,3.5 4.41,7.91 4.41,12.41c0,6.61 -3.28,12.71 -8.79,16.4l-5.23,-5.23c2.36,-1.21 4.3,-3.16 5.5,-5.54c0.89,-1.77 1.34,-3.66 1.34,-5.62c0,-1.78 -0.38,-3.52 -1.13,-5.17c-0.31,-0.69 -0.67,-1.33 -1.07,-1.91c-0.89,-1.29 -1.99,-2.4 -3.22,-3.23l-7.13,-7.13l-7.07,7.08c-1.29,0.89 -2.4,1.99 -3.28,3.28c-0.39,0.58 -0.75,1.22 -1.07,1.91c-0.75,1.64 -1.13,3.38 -1.13,5.17c0,1.96 0.45,3.85 1.34,5.62c1.2,2.38 3.14,4.33 5.5,5.54l-0.61,0.61l-4.62,4.62c-5.51,-3.68 -8.78,-9.79 -8.78,-16.42c0,-0.46 0.02,-0.96 0.07,-1.53l0.03,-0.32c0.05,-0.48 0.11,-0.96 0.19,-1.44l0.07,-0.35c0.08,-0.43 0.18,-0.87 0.29,-1.29l0.09,-0.31c0.11,-0.39 0.23,-0.78 0.36,-1.16l0.03,-0.09c0.04,-0.13 0.09,-0.26 0.14,-0.38c0.14,-0.38 0.3,-0.75 0.46,-1.12c0.09,-0.19 0.18,-0.38 0.27,-0.57c0.11,-0.22 0.22,-0.44 0.34,-0.65c0.19,-0.35 0.38,-0.69 0.58,-1.02c0.08,-0.14 0.17,-0.28 0.26,-0.41c0.42,-0.65 0.89,-1.29 1.38,-1.88l10.04,-10.04l-17.77,-17.77l-0.6,0.6c-6.67,3.96 -12.29,9.57 -16.25,16.25l-0.92,0.92l13.32,13.32c-1.01,2.99 -1.53,6.1 -1.53,9.25l-0.34,0.34l0.35,0.35c0.07,3.21 0.67,6.35 1.77,9.32c0.99,2.68 2.38,5.2 4.13,7.49c1.67,2.19 3.64,4.13 5.86,5.76c2.32,1.71 4.88,3.06 7.6,4.02l0.25,0.09l9.26,-9.26l9.26,9.26l0.25,-0.09c2.72,-0.95 5.28,-2.3 7.6,-4.02c2.21,-1.63 4.18,-3.57 5.86,-5.76c1.75,-2.29 3.14,-4.81 4.13,-7.49c1.1,-2.97 1.7,-6.11 1.77,-9.32l0.35,-0.35l-0.34,-0.34c0.01,-3.15 -0.5,-6.26 -1.52,-9.25zm-46.26,-12.54c-0.32,0.27 -0.62,0.56 -0.97,0.89l-0.2,0.19c-0.13,0.12 -0.26,0.24 -0.39,0.37c-0.35,0.35 -0.67,0.71 -1,1.08l-0.17,0.19c-0.09,0.1 -0.18,0.2 -0.27,0.3c-0.37,0.43 -0.72,0.86 -1.04,1.29l-5.8,-5.8c1.54,-1.89 3.25,-3.63 5.1,-5.17l5.8,5.8c-0.04,0.03 -0.08,0.07 -0.12,0.1l-0.46,0.37c-0.17,0.13 -0.32,0.26 -0.48,0.39zm12.51,44.36l0,0l0,0l0,0l0,0zm35.15,-45.85l-5.8,5.8c-1.48,-1.93 -3.19,-3.67 -5.1,-5.18l5.79,-5.79c1.86,1.54 3.58,3.28 5.11,5.17zm-25.37,23.29c0,0.8 -0.36,1.9 -1.02,3.09l-2.37,2.37l-2.03,-2.03c-1.26,-1.13 -1.35,-3.41 -1.35,-3.43c0,-1.87 1.52,-3.39 3.39,-3.39c1.86,0.01 3.38,1.53 3.38,3.39z" id="XMLID_491_" fill="#000000"/>
    <path d="m470.4,224.72l16.78,8.56l0.59,-1.16c5.12,-5.82 8.73,-12.9 10.44,-20.47l0.38,-0.75l-14.43,-7.36l3.3,-6.47l14.43,7.36l10.11,-19.83l1.63,-2.68l-2.86,-1.19l-19.84,-10.12l-4.06,7.96l14.43,7.36l-3.3,6.47l-14.43,-7.36l-13.89,27.24c-2.45,3.79 -6.16,6.64 -10.45,8.03c-6.29,2.04 -13.1,0.81 -18.31,-3.3l3.36,-6.59c1.88,1.87 4.34,3.12 6.97,3.52c1.96,0.3 3.9,0.15 5.76,-0.46c1.7,-0.55 3.23,-1.45 4.57,-2.67c0.56,-0.51 1.06,-1.05 1.49,-1.6c0.96,-1.24 1.67,-2.63 2.08,-4.07l4.58,-8.99l-8.92,-4.54c-1.24,-0.96 -2.63,-1.67 -4.14,-2.11c-0.67,-0.2 -1.39,-0.34 -2.14,-0.43c-1.79,-0.2 -3.57,-0.03 -5.26,0.52c-1.86,0.6 -3.52,1.62 -4.93,3.01c-1.9,1.88 -3.15,4.32 -3.58,6.95l-0.77,-0.39l-5.82,-2.97c1.8,-6.37 6.6,-11.38 12.91,-13.42c0.44,-0.14 0.92,-0.28 1.48,-0.41l0.31,-0.07c0.47,-0.11 0.95,-0.19 1.42,-0.26l0.35,-0.05c0.44,-0.06 0.88,-0.1 1.31,-0.13l0.32,-0.02c0.41,-0.02 0.81,-0.02 1.22,-0.01l0.1,0c0.14,0 0.27,0.01 0.41,0.01c0.4,0.02 0.81,0.05 1.21,0.09c0.21,0.02 0.42,0.05 0.63,0.08c0.24,0.03 0.48,0.08 0.72,0.12c0.39,0.07 0.77,0.15 1.15,0.24c0.16,0.04 0.31,0.08 0.47,0.12c0.74,0.2 1.5,0.45 2.21,0.74l12.64,6.45l11.42,-22.38l-0.75,-0.38c-5.82,-5.12 -12.9,-8.73 -20.47,-10.44l-1.16,-0.59l-8.56,16.78c-3.15,-0.04 -6.27,0.43 -9.27,1.4l-0.42,-0.22l-0.23,0.44c-3.03,1.06 -5.83,2.6 -8.32,4.56c-2.24,1.77 -4.21,3.87 -5.85,6.24c-1.57,2.27 -2.8,4.74 -3.67,7.35c-0.91,2.74 -1.41,5.59 -1.47,8.47l-0.01,0.26l11.67,5.95l-5.95,11.67l0.16,0.21c1.75,2.3 3.82,4.31 6.17,5.99c2.24,1.6 4.69,2.88 7.29,3.79c2.72,0.96 5.55,1.5 8.4,1.62c3.17,0.13 6.33,-0.27 9.41,-1.19l0.44,0.23l0.22,-0.42c2.99,-0.96 5.79,-2.41 8.32,-4.29zm-2.35,-47.88c-0.36,-0.22 -0.72,-0.41 -1.15,-0.64l-0.24,-0.13c-0.16,-0.09 -0.31,-0.17 -0.47,-0.26c-0.44,-0.22 -0.89,-0.42 -1.33,-0.62l-0.23,-0.11c-0.12,-0.06 -0.24,-0.11 -0.37,-0.17c-0.52,-0.22 -1.04,-0.42 -1.55,-0.6l3.72,-7.3c2.27,0.88 4.46,1.97 6.49,3.26l-3.73,7.3c-0.04,-0.03 -0.09,-0.06 -0.13,-0.08l-0.5,-0.32c-0.16,-0.11 -0.33,-0.22 -0.51,-0.33zm-38.34,25.59l0,0l0,0l0,0l0,0zm54.47,19.29l-7.3,-3.72c1.38,-2 2.51,-4.16 3.35,-6.45l7.3,3.72c-0.9,2.24 -2.02,4.4 -3.35,6.45zm-29.99,-16.94c-0.76,0.25 -1.92,0.24 -3.26,-0.01l-2.98,-1.52l1.31,-2.56c0.68,-1.54 2.83,-2.34 2.84,-2.35c1.78,-0.58 3.69,0.4 4.27,2.18c0.57,1.77 -0.4,3.68 -2.18,4.26z" id="XMLID_485_" fill="#000000"/>
    <path d="m416.02,287.84l-2.96,18.6l1.29,0.21c7.12,3.08 14.97,4.32 22.69,3.61l0.84,0.13l2.55,-15.99l7.17,1.14l-2.55,15.99l21.96,3.49l3.05,0.73l0.25,-3.09l3.5,-21.99l-8.82,-1.4l-2.55,16l-7.17,-1.14l2.55,-16l-30.2,-4.8c-4.36,-1.16 -8.22,-3.81 -10.86,-7.46c-3.88,-5.35 -4.81,-12.22 -2.52,-18.43l7.3,1.16c-1.2,2.37 -1.63,5.09 -1.2,7.72c0.32,1.96 1.06,3.75 2.21,5.34c1.05,1.44 2.38,2.63 3.95,3.52c0.66,0.37 1.32,0.68 1.98,0.92c1.48,0.53 3.02,0.77 4.51,0.72l9.96,1.59l1.57,-9.89c0.53,-1.48 0.77,-3.02 0.73,-4.59c-0.02,-0.7 -0.11,-1.43 -0.26,-2.17c-0.36,-1.77 -1.08,-3.4 -2.12,-4.84c-1.15,-1.58 -2.63,-2.85 -4.39,-3.76c-2.37,-1.22 -5.09,-1.66 -7.71,-1.26l0.14,-0.85l1.03,-6.45c6.62,-0.25 12.86,2.76 16.75,8.13c0.27,0.37 0.55,0.79 0.84,1.28l0.17,0.27c0.25,0.42 0.48,0.84 0.69,1.27l0.15,0.32c0.19,0.4 0.37,0.8 0.52,1.21l0.12,0.3c0.14,0.38 0.27,0.77 0.39,1.15l0.03,0.09c0.04,0.13 0.08,0.26 0.11,0.39c0.11,0.39 0.2,0.78 0.28,1.18c0.04,0.21 0.08,0.41 0.12,0.62c0.04,0.24 0.08,0.48 0.11,0.72c0.05,0.39 0.1,0.78 0.13,1.17c0.01,0.16 0.02,0.32 0.03,0.48c0.04,0.77 0.03,1.57 -0.02,2.33l-2.23,14.02l24.82,3.95l0.13,-0.84c3.07,-7.12 4.32,-14.96 3.61,-22.69l0.21,-1.29l-18.6,-2.96c-0.93,-3.01 -2.34,-5.83 -4.19,-8.39l0.07,-0.47l-0.49,-0.08c-1.95,-2.56 -4.27,-4.75 -6.9,-6.5c-2.37,-1.59 -4.98,-2.81 -7.74,-3.64c-2.64,-0.79 -5.37,-1.2 -8.12,-1.23c-2.88,-0.02 -5.75,0.38 -8.51,1.21l-0.25,0.07l-2.06,12.94l-12.93,-2.06l-0.15,0.22c-1.65,2.37 -2.92,4.97 -3.8,7.72c-0.83,2.62 -1.29,5.35 -1.36,8.1c-0.07,2.88 0.28,5.74 1.05,8.49c0.86,3.05 2.21,5.94 4.04,8.58l-0.08,0.49l0.47,0.08c1.86,2.57 4.1,4.79 6.67,6.61zm44.81,-17.01c0.09,-0.41 0.17,-0.82 0.26,-1.29l0.05,-0.27c0.03,-0.18 0.07,-0.35 0.1,-0.53c0.08,-0.48 0.13,-0.97 0.18,-1.46l0.03,-0.25c0.02,-0.13 0.03,-0.27 0.04,-0.4c0.05,-0.56 0.08,-1.12 0.09,-1.65l8.1,1.29c-0.13,2.43 -0.5,4.85 -1.09,7.18l-8.1,-1.29c0.01,-0.05 0.03,-0.1 0.04,-0.15l0.15,-0.57c0.05,-0.21 0.11,-0.41 0.15,-0.61zm-36.17,-28.57l0,0l0,0l0,0l0,0zm-1.53,57.76l1.29,-8.09c2.33,0.7 4.73,1.1 7.17,1.2l-1.29,8.09c-2.41,-0.17 -4.82,-0.57 -7.17,-1.2zm6.86,-33.75c-0.47,-0.65 -0.82,-1.75 -0.99,-3.1l0.53,-3.31l2.84,0.45c1.68,0.17 3.1,1.97 3.11,1.98c1.1,1.51 0.76,3.63 -0.75,4.73c-1.53,1.1 -3.65,0.76 -4.74,-0.75z" id="XMLID_479_" fill="#000000"/>
    <path d="m339.2,255.6l-18.61,2.92l0.2,1.29c-0.73,7.72 0.51,15.57 3.57,22.7l0.13,0.84l16,-2.52l1.13,7.18l-16,2.52l3.46,21.97l0.25,3.12l3.02,-0.72l22,-3.46l-1.39,-8.82l-16,2.52l-1.13,-7.18l16,-2.52l-4.75,-30.2c-0.24,-4.51 1.09,-8.99 3.74,-12.63c3.89,-5.34 10.13,-8.35 16.75,-8.08l1.15,7.31c-2.62,-0.41 -5.34,0.02 -7.71,1.24c-1.76,0.91 -3.24,2.17 -4.4,3.75c-1.05,1.44 -1.77,3.07 -2.13,4.84c-0.15,0.74 -0.24,1.47 -0.26,2.17c-0.05,1.57 0.2,3.11 0.7,4.51l1.57,9.97l9.89,-1.56c1.57,0.05 3.11,-0.2 4.59,-0.72c0.66,-0.23 1.33,-0.54 1.98,-0.91c1.57,-0.89 2.9,-2.07 3.95,-3.51c1.15,-1.58 1.9,-3.38 2.22,-5.33c0.43,-2.63 0.01,-5.35 -1.18,-7.72l0.85,-0.13l6.45,-1.01c2.28,6.22 1.34,13.08 -2.56,18.44c-0.27,0.37 -0.59,0.77 -0.96,1.2l-0.21,0.24c-0.32,0.36 -0.66,0.71 -1,1.05l-0.26,0.24c-0.32,0.3 -0.65,0.6 -0.99,0.87l-0.25,0.2c-0.32,0.25 -0.65,0.49 -0.98,0.72l-0.08,0.05c-0.11,0.08 -0.22,0.15 -0.34,0.23c-0.34,0.22 -0.68,0.43 -1.03,0.63c-0.18,0.1 -0.37,0.2 -0.56,0.3c-0.22,0.12 -0.44,0.22 -0.66,0.33c-0.35,0.17 -0.71,0.33 -1.07,0.48c-0.15,0.06 -0.3,0.12 -0.45,0.18c-0.72,0.28 -1.48,0.51 -2.22,0.7l-14.02,2.2l3.9,24.82l0.84,-0.13c7.72,0.73 15.57,-0.51 22.7,-3.57l1.29,-0.2l-2.93,-18.61c2.58,-1.82 4.82,-4.03 6.68,-6.58l0.47,-0.07l-0.08,-0.49c1.83,-2.64 3.2,-5.53 4.06,-8.58c0.78,-2.75 1.14,-5.6 1.07,-8.49c-0.06,-2.76 -0.51,-5.48 -1.34,-8.11c-0.87,-2.75 -2.14,-5.35 -3.78,-7.72l-0.15,-0.22l-12.94,2.03l-2.03,-12.94l-0.25,-0.08c-2.76,-0.83 -5.63,-1.25 -8.51,-1.23c-2.75,0.02 -5.48,0.42 -8.13,1.21c-2.76,0.82 -5.37,2.04 -7.75,3.62c-2.64,1.76 -4.97,3.94 -6.92,6.49l-0.49,0.08l0.07,0.47c-1.83,2.58 -3.24,5.4 -4.18,8.41zm30.01,37.37c0.42,-0.04 0.83,-0.09 1.31,-0.15l0.28,-0.03c0.18,-0.02 0.36,-0.04 0.53,-0.07c0.48,-0.08 0.96,-0.18 1.45,-0.28l0.25,-0.05c0.13,-0.03 0.26,-0.05 0.4,-0.08c0.55,-0.13 1.09,-0.27 1.6,-0.42l1.27,8.1c-2.36,0.63 -4.76,1.02 -7.17,1.18l-1.27,-8.1c0.05,0 0.1,-0.01 0.16,-0.01l0.59,-0.03c0.19,-0.03 0.4,-0.04 0.6,-0.06zm16,-43.22l0,0l0,0l0,0l0,0zm-55.41,16.37l8.1,-1.27c0.06,2.43 0.42,4.84 1.07,7.19l-8.09,1.27c-0.59,-2.34 -0.95,-4.76 -1.08,-7.19zm34.23,-3.89c0.47,-0.65 1.41,-1.32 2.64,-1.9l3.31,-0.52l0.45,2.84c0.35,1.65 -0.92,3.56 -0.93,3.57c-1.1,1.51 -3.22,1.84 -4.73,0.74c-1.51,-1.1 -1.84,-3.23 -0.74,-4.73z" id="XMLID_473_" fill="#000000"/>
    <path d="m346.15,172.58l-8.53,-16.8l-1.17,0.59c-7.57,1.69 -14.65,5.29 -20.49,10.4l-0.76,0.38l7.33,14.44l-6.48,3.29l-7.33,-14.44l-19.83,10.07l-2.9,1.2l1.61,2.65l10.08,19.86l7.96,-4.04l-7.33,-14.44l6.48,-3.29l7.33,14.44l27.26,-13.84c4.21,-1.62 8.89,-1.74 13.17,-0.34c6.28,2.05 11.07,7.06 12.86,13.44l-6.6,3.35c-0.42,-2.62 -1.67,-5.07 -3.56,-6.95c-1.41,-1.4 -3.06,-2.42 -4.93,-3.02c-1.7,-0.55 -3.47,-0.73 -5.26,-0.53c-0.75,0.08 -1.47,0.23 -2.14,0.42c-1.5,0.44 -2.9,1.15 -4.08,2.06l-9,4.57l4.54,8.92c0.44,1.5 1.15,2.9 2.1,4.14c0.42,0.55 0.92,1.09 1.48,1.61c1.33,1.22 2.87,2.12 4.56,2.67c1.86,0.61 3.8,0.76 5.76,0.47c2.64,-0.4 5.09,-1.64 6.98,-3.51l0.39,0.77l2.96,5.82c-5.21,4.09 -12.03,5.31 -18.33,3.25c-0.44,-0.14 -0.91,-0.32 -1.43,-0.54l-0.3,-0.12c-0.45,-0.19 -0.88,-0.4 -1.31,-0.63l-0.31,-0.17c-0.39,-0.21 -0.77,-0.44 -1.14,-0.67l-0.27,-0.18c-0.34,-0.23 -0.67,-0.46 -0.99,-0.71l-0.08,-0.06c-0.11,-0.08 -0.22,-0.16 -0.32,-0.25c-0.32,-0.25 -0.62,-0.52 -0.92,-0.79c-0.16,-0.14 -0.31,-0.29 -0.46,-0.44c-0.18,-0.17 -0.35,-0.35 -0.52,-0.52c-0.27,-0.28 -0.53,-0.57 -0.79,-0.87c-0.1,-0.12 -0.21,-0.25 -0.31,-0.37c-0.48,-0.6 -0.95,-1.25 -1.35,-1.9l-6.43,-12.66l-22.35,11.39l0.38,0.76c1.69,7.57 5.29,14.65 10.4,20.49l0.59,1.16l16.8,-8.53c2.52,1.89 5.32,3.35 8.32,4.33l0.22,0.42l0.45,-0.23c3.08,0.93 6.24,1.33 9.41,1.21c2.85,-0.11 5.68,-0.65 8.4,-1.6c2.6,-0.91 5.06,-2.18 7.3,-3.78c2.35,-1.67 4.43,-3.69 6.18,-5.98l0.16,-0.21l-5.93,-11.68l11.68,-5.93l-0.01,-0.26c-0.06,-2.89 -0.55,-5.74 -1.46,-8.47c-0.87,-2.61 -2.1,-5.09 -3.66,-7.36c-1.64,-2.37 -3.6,-4.48 -5.84,-6.25c-2.49,-1.97 -5.28,-3.51 -8.31,-4.58l-0.23,-0.44l-0.42,0.21c-3.01,-0.96 -6.13,-1.44 -9.28,-1.4zm-26.28,40.08c0.16,0.38 0.34,0.76 0.55,1.2l0.12,0.25c0.07,0.16 0.15,0.33 0.23,0.48c0.22,0.44 0.47,0.86 0.71,1.29l0.13,0.22c0.06,0.12 0.13,0.24 0.2,0.35c0.29,0.48 0.59,0.95 0.9,1.39l-7.31,3.71c-1.32,-2.05 -2.44,-4.22 -3.33,-6.46l7.31,-3.71c0.02,0.05 0.04,0.1 0.06,0.15l0.21,0.55c0.06,0.2 0.14,0.39 0.22,0.58zm46.05,1.88l0,0l0,0l0,0l0,0zm-32.68,-47.65l3.71,7.31c-2.29,0.8 -4.48,1.89 -6.5,3.24l-3.71,-7.3c2.05,-1.29 4.23,-2.38 6.5,-3.25zm14.27,31.35c0.76,0.25 1.69,0.93 2.62,1.93l1.52,2.99l-2.56,1.3c-1.46,0.85 -3.67,0.23 -3.68,0.22c-1.77,-0.58 -2.75,-2.5 -2.17,-4.27c0.58,-1.78 2.5,-2.75 4.27,-2.17z" id="XMLID_467_" fill="#000000"/>
    <circle r="20.22" cy="218.87" cx="399.79" id="XMLID_396_"/>
    <path d="m407.53,65.56l-7.03,-7.03l0,-3.03l10.2,-10.2l-10.2,-10.2l0,-7.93l-1.42,0l0,7.93l-10.2,10.2l10.2,10.2l0,3.02l-7.03,7.03l7.03,7.03l0,4.16l-0.08,0.02c-1.63,0.36 -2.82,1.84 -2.82,3.52c0,1.68 1.19,3.15 2.82,3.52l0.07,0.02l0,18.58l1.42,0l0,-18.58l0.07,-0.02c1.63,-0.36 2.82,-1.84 2.82,-3.52c0,-1.68 -1.19,-3.15 -2.82,-3.52l-0.07,-0.02l0,-4.16l7.04,-7.02zm-16.08,-20.25l7.62,-7.62l0.71,-0.71l0.71,0.71l7.62,7.62l-7.62,7.62l-0.71,0.71l-0.71,-0.71l-7.62,-7.62zm8.34,26.16l-0.71,-0.71l-5.2,-5.2l5.2,-5.2l0.71,-0.71l0.71,0.71l5.2,5.2l-5.2,5.2l-0.71,0.71z" id="XMLID_462_" fill="#000000"/>
    <path d="m548.05,179.07l4.53,-8.85l2.88,-0.93l12.84,6.57l6.57,-12.84l7.54,-2.44l-0.44,-1.36l-7.54,2.44l-12.84,-6.57l-6.57,12.84l-2.88,0.93l-8.85,-4.53l-4.53,8.85l-3.96,1.28l-0.04,-0.07c-0.85,-1.44 -2.62,-2.12 -4.22,-1.6s-2.64,2.1 -2.48,3.77l0.01,0.08l-17.68,5.72l0.44,1.36l17.68,-5.72l0.04,0.06c0.85,1.44 2.62,2.12 4.22,1.6s2.64,-2.1 2.48,-3.77l-0.01,-0.08l3.96,-1.28l8.85,4.54zm14.32,-21.53l9.6,4.91l0.9,0.46l-0.46,0.9l-4.91,9.6l-9.6,-4.91l-0.9,-0.46l0.46,-0.9l4.91,-9.6zm-22.33,15.98l0.46,-0.9l3.35,-6.55l6.55,3.35l0.9,0.46l-0.46,0.9l-3.35,6.55l-6.55,-3.35l-0.9,-0.46z" id="XMLID_458_" fill="#000000"/>
    <path d="m483.27,347.7l9.82,1.58l1.77,2.45l-2.3,14.24l14.24,2.3l4.64,6.43l1.15,-0.83l-4.64,-6.43l2.3,-14.24l-14.24,-2.3l-1.77,-2.45l1.58,-9.82l-9.82,-1.58l-2.44,-3.37l0.05,-0.06c1.11,-1.25 1.21,-3.15 0.23,-4.5c-0.98,-1.36 -2.81,-1.86 -4.35,-1.2l-0.07,0.03l-10.88,-15.06l-1.15,0.83l10.88,15.06l-0.05,0.06c-1.11,1.25 -1.21,3.15 -0.23,4.5c0.98,1.36 2.81,1.86 4.35,1.2l0.07,-0.03l2.44,3.37l-1.58,9.82zm24.89,7l-1.72,10.64l-0.16,0.99l-0.99,-0.16l-10.64,-1.72l1.72,-10.64l0.16,-0.99l0.99,0.16l10.64,1.72zm-22.08,-16.33l0.99,0.16l7.27,1.17l-1.17,7.27l-0.16,0.99l-0.99,-0.16l-7.27,-1.17l1.17,-7.27l0.16,-0.99z" id="XMLID_454_" fill="#000000"/>
    <path d="m302.89,337.94l1.51,9.83l-1.79,2.44l-14.25,2.19l2.19,14.25l-4.69,6.39l1.15,0.84l4.69,-6.39l14.25,-2.19l-2.19,-14.25l1.79,-2.44l9.83,-1.51l-1.51,-9.83l2.46,-3.36l0.07,0.03c1.53,0.67 3.36,0.18 4.36,-1.17c0.99,-1.35 0.91,-3.25 -0.19,-4.51l-0.05,-0.06l10.99,-14.98l-1.15,-0.84l-10.99,14.98l-0.07,-0.03c-1.53,-0.67 -3.36,-0.18 -4.36,1.17c-0.99,1.35 -0.91,3.25 0.19,4.51l0.05,0.06l-2.46,3.36l-9.83,1.51zm1,25.83l-10.66,1.64l-1,0.15l-0.15,-1l-1.64,-10.66l10.66,-1.64l1,-0.15l0.15,1l1.64,10.66zm8.74,-26.03l0.15,1l1.12,7.27l-7.27,1.12l-1,0.15l-0.15,-1l-1.12,-7.27l7.27,-1.12l1,-0.15z" id="XMLID_450_" fill="#000000"/>
    <path d="m256.69,163.31l-8.88,4.46l-2.87,-0.95l-6.47,-12.89l-12.89,6.47l-7.53,-2.49l-0.45,1.35l7.53,2.49l6.47,12.89l12.89,-6.47l2.87,0.95l4.46,8.88l8.88,-4.46l3.95,1.31l-0.01,0.08c-0.17,1.67 0.86,3.26 2.45,3.78c1.59,0.53 3.37,-0.13 4.23,-1.57l0.04,-0.06l17.64,5.84l0.45,-1.35l-17.64,-5.84l0.01,-0.08c0.17,-1.67 -0.86,-3.26 -2.45,-3.78s-3.37,0.13 -4.23,1.57l-0.04,0.06l-3.95,-1.31l-4.46,-8.88zm-24.28,8.89l-4.84,-9.63l-0.45,-0.9l0.9,-0.45l9.63,-4.84l4.84,9.63l0.45,0.9l-0.9,0.45l-9.63,4.84zm27.46,0.32l-0.9,0.45l-6.58,3.3l-3.3,-6.58l-0.45,-0.9l0.9,-0.45l6.58,-3.3l3.3,6.58l0.45,0.9z" id="XMLID_446_" fill="#000000"/>
   </g>
   <g id="XMLID_424_">
    <path d="m344.69,131.21l-6.78,-1.02l-1.24,-1.68l1.48,-9.83l-9.84,-1.48l-3.25,-4.4l-0.79,0.58l3.25,4.4l-1.48,9.84l9.84,1.48l1.24,1.68l-1.02,6.78l6.78,1.02l1.7,2.31l-0.03,0.04c-0.76,0.87 -0.81,2.18 -0.12,3.11s1.95,1.26 3.01,0.8l0.05,-0.02l7.61,10.31l0.79,-0.58l-7.61,-10.31l0.03,-0.04c0.76,-0.87 0.81,-2.18 0.12,-3.11c-0.69,-0.93 -1.95,-1.26 -3.01,-0.8l-0.05,0.02l-1.7,-2.31l1.02,-6.79zm-17.22,-4.65l1.11,-7.35l0.1,-0.69l0.69,0.1l7.35,1.11l-1.11,7.35l-0.1,0.69l-0.69,-0.1l-7.35,-1.11zm15.35,11.11l-0.69,-0.1l-5.02,-0.76l0.76,-5.02l0.1,-0.69l0.69,0.1l5.02,0.76l-0.76,5.02l-0.1,0.69z" id="XMLID_441_" fill="#000000"/>
    <path d="m470.09,132.91l-1.11,-6.77l1.22,-1.69l9.81,-1.62l-1.62,-9.81l3.19,-4.44l-0.8,-0.57l-3.19,4.44l-9.81,1.62l1.62,9.81l-1.22,1.69l-6.77,1.11l1.11,6.77l-1.67,2.33l-0.05,-0.02c-1.06,-0.45 -2.32,-0.1 -3,0.84c-0.67,0.94 -0.6,2.24 0.17,3.11l0.03,0.04l-7.47,10.41l0.8,0.57l7.47,-10.41l0.05,0.02c1.06,0.45 2.32,0.1 3,-0.84c0.67,-0.94 0.6,-2.24 -0.17,-3.11l-0.03,-0.04l1.67,-2.33l6.77,-1.11zm-0.87,-17.81l7.34,-1.21l0.69,-0.11l0.11,0.69l1.21,7.34l-7.34,1.21l-0.69,0.11l-0.11,-0.69l-1.21,-7.34zm-5.84,18.01l-0.11,-0.69l-0.82,-5.01l5.01,-0.82l0.69,-0.11l0.11,0.69l0.82,5.01l-5.01,0.82l-0.69,0.11z" id="XMLID_437_" fill="#000000"/>
    <path d="m506.95,259.55l6.09,-3.14l1.99,0.63l4.56,8.84l8.84,-4.56l5.21,1.67l0.3,-0.94l-5.21,-1.67l-4.56,-8.84l-8.84,4.56l-1.99,-0.63l-3.14,-6.1l-6.09,3.14l-2.73,-0.87l0,-0.05c0.1,-1.15 -0.62,-2.24 -1.72,-2.59c-1.1,-0.35 -2.32,0.12 -2.9,1.11l-0.03,0.05l-12.21,-3.9l-0.3,0.94l12.21,3.9l0,0.05c-0.1,1.15 0.62,2.24 1.72,2.59c1.1,0.35 2.32,-0.12 2.9,-1.11l0.03,-0.04l2.73,0.87l3.14,6.09zm16.68,-6.31l3.41,6.61l0.32,0.62l-0.62,0.32l-6.61,3.41l-3.41,-6.61l-0.32,-0.62l0.62,-0.32l6.61,-3.41zm-18.94,-0.02l0.62,-0.32l4.51,-2.33l2.33,4.51l0.32,0.62l-0.62,0.32l-4.51,2.33l-2.33,-4.51l-0.32,-0.62z" id="XMLID_433_" fill="#000000"/>
    <path d="m397.27,326.15l4.86,4.83l0.01,2.08l-7.01,7.06l7.06,7.01l0.02,5.47l0.98,0l-0.02,-5.47l7.01,-7.06l-7.06,-7.01l-0.01,-2.08l4.83,-4.86l-4.86,-4.83l-0.01,-2.87l0.05,-0.01c1.13,-0.25 1.94,-1.28 1.94,-2.43c0,-1.16 -0.83,-2.17 -1.95,-2.42l-0.05,-0.01l-0.04,-12.82l-0.98,0l0.04,12.82l-0.05,0.01c-1.13,0.25 -1.94,1.28 -1.94,2.43c0,1.16 0.83,2.17 1.95,2.42l0.05,0.01l0.01,2.87l-4.83,4.86zm11.13,13.93l-5.24,5.28l-0.49,0.49l-0.49,-0.49l-5.28,-5.24l5.24,-5.28l0.49,-0.49l0.49,0.49l5.28,5.24zm-5.81,-18.03l0.49,0.49l3.6,3.58l-3.58,3.6l-0.49,0.49l-0.49,-0.49l-3.6,-3.58l3.58,-3.6l0.49,-0.49z" id="XMLID_429_" fill="#000000"/>
    <path d="m305.7,245.37l-3.1,6.12l-1.98,0.65l-8.87,-4.5l-4.5,8.87l-5.2,1.7l0.31,0.93l5.2,-1.7l8.87,4.5l4.5,-8.87l1.98,-0.65l6.12,3.1l3.1,-6.12l2.73,-0.89l0.03,0.04c0.59,0.99 1.81,1.45 2.91,1.1c1.1,-0.36 1.81,-1.45 1.7,-2.6l-0.01,-0.05l12.18,-3.98l-0.31,-0.93l-12.18,3.98l-0.03,-0.04c-0.59,-0.99 -1.81,-1.45 -2.91,-1.1c-1.1,0.36 -1.81,1.45 -1.7,2.6l0.01,0.05l-2.73,0.89l-6.12,-3.1zm-9.83,14.88l-6.63,-3.36l-0.62,-0.31l0.31,-0.62l3.36,-6.63l6.63,3.36l0.62,0.31l-0.31,0.62l-3.36,6.63zm15.36,-11.07l-0.31,0.62l-2.3,4.53l-4.53,-2.3l-0.62,-0.31l0.31,-0.62l2.3,-4.53l4.53,2.3l0.62,0.31z" id="XMLID_425_" fill="#000000"/>
   </g>
  </g>
 </g>
</svg>