<svg xmlns="http://www.w3.org/2000/svg" viewBox="0 0 32 32"><path d="M29.707 15.293 26 11.586V7a1 1 0 0 0-1-1h-4.586l-3.707-3.707a1 1 0 0 0-1.414 0L11.586 6H7a1 1 0 0 0-1 1v4.586l-3.707 3.707a1 1 0 0 0 0 1.414L6 20.414V25a1 1 0 0 0 1 1h4.586l3.707 3.707a1 1 0 0 0 1.414 0L20.414 26H25a1 1 0 0 0 1-1v-4.586l3.707-3.707a1 1 0 0 0 0-1.414Zm-10.724 4.736a3.7 3.7 0 0 1-3.319.157 4.672 4.672 0 0 1-1.4-7.612 3.734 3.734 0 0 1 3.151-1.028.344.344 0 0 1 .144.6 4.73 4.73 0 0 0-1.442 1.872 3.9 3.9 0 0 0 .775 4.152 4.643 4.643 0 0 0 2.008 1.246.344.344 0 0 1 .083.613Z" data-name="Layer 2"/></svg>