<?xml version="1.0" standalone="no"?>
<!DOCTYPE svg PUBLIC "-//W3C//DTD SVG 20010904//EN"
 "http://www.w3.org/TR/2001/REC-SVG-20010904/DTD/svg10.dtd">
<svg version="1.0" xmlns="http://www.w3.org/2000/svg"
 width="173.000000pt" height="92.000000pt" viewBox="0 0 173.000000 92.000000"
 preserveAspectRatio="xMidYMid meet">
<metadata>
Created by potrace 1.10, written by Peter Selinger 2001-2011
</metadata>
<g transform="translate(0.000000,92.000000) scale(0.100000,-0.100000)"
fill="#000000" stroke="none">
<path d="M554 676 c-9 -24 4 -48 23 -44 12 2 18 12 18 28 0 29 -32 41 -41 16z"/>
<path d="M1254 626 c-9 -24 4 -48 23 -44 12 2 18 12 18 28 0 29 -32 41 -41 16z"/>
<path d="M1316 625 c-7 -20 3 -45 19 -45 7 0 18 7 25 15 10 12 10 18 0 30 -7
8 -18 15 -25 15 -7 0 -15 -7 -19 -15z"/>
<path d="M1101 606 c-15 -18 -3 -46 19 -46 24 0 33 15 25 40 -7 23 -28 26 -44
6z"/>
<path d="M568 582 c-2 -4 -24 -24 -49 -45 -36 -29 -48 -46 -51 -72 -3 -30 -1
-35 17 -35 11 0 26 -4 34 -9 9 -6 19 -4 29 5 13 13 12 17 -4 29 -10 7 -22 11
-26 9 -5 -3 -8 0 -8 6 0 6 8 14 18 17 9 4 24 16 33 27 16 19 16 19 30 -1 8
-10 22 -22 32 -26 9 -3 17 -11 17 -17 0 -6 -4 -9 -9 -6 -15 10 -94 -57 -118
-99 -59 -103 -5 -186 174 -266 78 -36 94 -31 28 8 -136 80 -185 128 -185 183
0 54 83 140 134 140 19 0 21 5 18 34 -3 26 -16 44 -57 80 -29 25 -55 42 -57
38z"/>
<path d="M815 520 c-4 -11 -17 -28 -31 -36 -27 -18 -31 -34 -9 -34 11 0 15
-12 15 -50 l0 -50 -58 0 c-37 0 -71 7 -95 19 -31 16 -38 17 -48 4 -27 -31 57
-63 169 -63 l72 0 0 115 c0 63 -2 115 -4 115 -3 0 -8 -9 -11 -20z"/>
<path d="M970 511 c-6 -16 -20 -31 -31 -34 -23 -6 -25 -27 -3 -27 14 0 15 -14
12 -97 -3 -111 -20 -147 -86 -184 l-37 -20 39 5 c21 3 49 12 63 21 32 21 63
74 63 108 l0 27 75 0 c109 0 155 28 155 96 0 20 -13 39 -46 69 l-46 42 -44
-40 c-39 -36 -45 -45 -42 -76 3 -32 7 -36 33 -39 24 -3 28 -1 18 9 -21 21 -15
55 13 74 25 16 27 16 50 -6 56 -52 18 -89 -90 -89 l-77 0 3 95 c2 52 0 95 -3
95 -4 0 -12 -13 -19 -29z m20 -180 c0 -6 -4 -13 -10 -16 -5 -3 -10 1 -10 9 0
9 5 16 10 16 6 0 10 -4 10 -9z"/>
<path d="M1338 505 c-6 -14 -17 -25 -24 -25 -21 0 -28 -22 -10 -32 11 -6 16
-23 16 -53 l0 -45 -50 0 c-37 0 -55 -5 -70 -20 l-20 -20 90 0 90 0 0 110 c0
61 -2 110 -5 110 -3 0 -11 -11 -17 -25z m2 -165 c0 -5 -5 -10 -11 -10 -5 0 -7
5 -4 10 3 6 8 10 11 10 2 0 4 -4 4 -10z"/>
<path d="M730 265 c-10 -12 -10 -18 0 -30 25 -30 57 -12 45 25 -8 24 -28 26
-45 5z"/>
<path d="M794 266 c-9 -24 4 -48 23 -44 12 2 18 12 18 28 0 29 -32 41 -41 16z"/>
</g>
</svg>
